%TF.GenerationSoftware,KiCad,Pcbnew,9.0.5+1*%
%TF.CreationDate,2025-10-19T05:27:58+07:00*%
%TF.ProjectId,TARA_T8X,54415241-5f54-4385-982e-6b696361645f,rev?*%
%TF.SameCoordinates,Original*%
%TF.FileFunction,Soldermask,Bot*%
%TF.FilePolarity,Negative*%
%FSLAX46Y46*%
G04 Gerber Fmt 4.6, Leading zero omitted, Abs format (unit mm)*
G04 Created by KiCad (PCBNEW 9.0.5+1) date 2025-10-19 05:27:58*
%MOMM*%
%LPD*%
G01*
G04 APERTURE LIST*
G04 Aperture macros list*
%AMRoundRect*
0 Rectangle with rounded corners*
0 $1 Rounding radius*
0 $2 $3 $4 $5 $6 $7 $8 $9 X,Y pos of 4 corners*
0 Add a 4 corners polygon primitive as box body*
4,1,4,$2,$3,$4,$5,$6,$7,$8,$9,$2,$3,0*
0 Add four circle primitives for the rounded corners*
1,1,$1+$1,$2,$3*
1,1,$1+$1,$4,$5*
1,1,$1+$1,$6,$7*
1,1,$1+$1,$8,$9*
0 Add four rect primitives between the rounded corners*
20,1,$1+$1,$2,$3,$4,$5,0*
20,1,$1+$1,$4,$5,$6,$7,0*
20,1,$1+$1,$6,$7,$8,$9,0*
20,1,$1+$1,$8,$9,$2,$3,0*%
G04 Aperture macros list end*
%ADD10C,2.000000*%
%ADD11C,0.500000*%
%ADD12C,1.000000*%
%ADD13R,1.700000X1.700000*%
%ADD14O,1.700000X1.700000*%
%ADD15C,2.800000*%
%ADD16R,1.600000X1.600000*%
%ADD17C,1.600000*%
%ADD18RoundRect,0.381000X-0.381000X0.762000X-0.381000X-0.762000X0.381000X-0.762000X0.381000X0.762000X0*%
%ADD19RoundRect,0.500000X-0.500000X1.500000X-0.500000X-1.500000X0.500000X-1.500000X0.500000X1.500000X0*%
G04 APERTURE END LIST*
D10*
%TO.C,S2*%
X126467660Y-108667460D03*
X132967660Y-108667460D03*
X126467660Y-113167460D03*
X132967660Y-113167460D03*
%TD*%
D11*
%TO.C,J2*%
X183490000Y-72145000D03*
X182090000Y-72145000D03*
X184190000Y-72845000D03*
X182790000Y-72845000D03*
X181390000Y-72845000D03*
X183490000Y-73545000D03*
X182090000Y-73545000D03*
X184190000Y-74245000D03*
X182790000Y-74245000D03*
X181390000Y-74245000D03*
X183490000Y-74945000D03*
X182090000Y-74945000D03*
%TD*%
D10*
%TO.C,S4*%
X162027660Y-108667460D03*
X168527660Y-108667460D03*
X162027660Y-113167460D03*
X168527660Y-113167460D03*
%TD*%
D12*
%TO.C,Y1*%
X131230000Y-69995000D03*
X133770000Y-69995000D03*
%TD*%
D13*
%TO.C,J3*%
X106245845Y-72332645D03*
D14*
X106245845Y-69792645D03*
X106245845Y-67252645D03*
X106245845Y-64712645D03*
%TD*%
D10*
%TO.C,S3*%
X144247660Y-108667460D03*
X150747660Y-108667460D03*
X144247660Y-113167460D03*
X150747660Y-113167460D03*
%TD*%
D15*
%TO.C,J4*%
X158950000Y-51625000D03*
X153950000Y-51625000D03*
X148950000Y-51625000D03*
X143950000Y-51625000D03*
X138950000Y-51625000D03*
X133950000Y-51625000D03*
X128950000Y-51625000D03*
X123950000Y-51625000D03*
X118950000Y-51625000D03*
X113950000Y-51625000D03*
%TD*%
D16*
%TO.C,C1*%
X86450000Y-92575000D03*
D17*
X81450000Y-92575000D03*
%TD*%
D15*
%TO.C,J1*%
X116241161Y-128461497D03*
X121241161Y-128461497D03*
X126241161Y-128461497D03*
X131241161Y-128461497D03*
X136241161Y-128461497D03*
X141241161Y-128461497D03*
X146241161Y-128461497D03*
X151241161Y-128461497D03*
X156241161Y-128461497D03*
X161241161Y-128461497D03*
%TD*%
D10*
%TO.C,S1*%
X108687660Y-108667460D03*
X115187660Y-108667460D03*
X108687660Y-113167460D03*
X115187660Y-113167460D03*
%TD*%
D18*
%TO.C,U3*%
X160550000Y-103325000D03*
X158010000Y-103325000D03*
X155470000Y-103325000D03*
X152930000Y-103325000D03*
D19*
X152041000Y-60145000D03*
X157121000Y-60145000D03*
X162201000Y-60145000D03*
%TD*%
M02*
