%TF.GenerationSoftware,KiCad,Pcbnew,9.0.4*%
%TF.CreationDate,2025-10-10T10:10:13+07:00*%
%TF.ProjectId,TARA_T8X,54415241-5f54-4385-982e-6b696361645f,rev?*%
%TF.SameCoordinates,Original*%
%TF.FileFunction,Legend,Bot*%
%TF.FilePolarity,Positive*%
%FSLAX46Y46*%
G04 Gerber Fmt 4.6, Leading zero omitted, Abs format (unit mm)*
G04 Created by KiCad (PCBNEW 9.0.4) date 2025-10-10 10:10:13*
%MOMM*%
%LPD*%
G01*
G04 APERTURE LIST*
%ADD10C,0.150000*%
%ADD11C,0.120000*%
G04 APERTURE END LIST*
D10*
X161965180Y-112133666D02*
X162441371Y-112466999D01*
X161965180Y-112705094D02*
X162965180Y-112705094D01*
X162965180Y-112705094D02*
X162965180Y-112324142D01*
X162965180Y-112324142D02*
X162917561Y-112228904D01*
X162917561Y-112228904D02*
X162869942Y-112181285D01*
X162869942Y-112181285D02*
X162774704Y-112133666D01*
X162774704Y-112133666D02*
X162631847Y-112133666D01*
X162631847Y-112133666D02*
X162536609Y-112181285D01*
X162536609Y-112181285D02*
X162488990Y-112228904D01*
X162488990Y-112228904D02*
X162441371Y-112324142D01*
X162441371Y-112324142D02*
X162441371Y-112705094D01*
X162965180Y-111800332D02*
X161965180Y-111133666D01*
X162965180Y-111133666D02*
X161965180Y-111800332D01*
X161965180Y-110752713D02*
X162965180Y-110752713D01*
X162965180Y-110752713D02*
X162965180Y-110514618D01*
X162965180Y-110514618D02*
X162917561Y-110371761D01*
X162917561Y-110371761D02*
X162822323Y-110276523D01*
X162822323Y-110276523D02*
X162727085Y-110228904D01*
X162727085Y-110228904D02*
X162536609Y-110181285D01*
X162536609Y-110181285D02*
X162393752Y-110181285D01*
X162393752Y-110181285D02*
X162203276Y-110228904D01*
X162203276Y-110228904D02*
X162108038Y-110276523D01*
X162108038Y-110276523D02*
X162012800Y-110371761D01*
X162012800Y-110371761D02*
X161965180Y-110514618D01*
X161965180Y-110514618D02*
X161965180Y-110752713D01*
X168854895Y-62921142D02*
X168854895Y-62444952D01*
X168569180Y-63016380D02*
X169569180Y-62683047D01*
X169569180Y-62683047D02*
X168569180Y-62349714D01*
X168950133Y-62016380D02*
X168950133Y-61254476D01*
X168569180Y-61635428D02*
X169331085Y-61635428D01*
X160377561Y-112228904D02*
X160425180Y-112324142D01*
X160425180Y-112324142D02*
X160425180Y-112466999D01*
X160425180Y-112466999D02*
X160377561Y-112609856D01*
X160377561Y-112609856D02*
X160282323Y-112705094D01*
X160282323Y-112705094D02*
X160187085Y-112752713D01*
X160187085Y-112752713D02*
X159996609Y-112800332D01*
X159996609Y-112800332D02*
X159853752Y-112800332D01*
X159853752Y-112800332D02*
X159663276Y-112752713D01*
X159663276Y-112752713D02*
X159568038Y-112705094D01*
X159568038Y-112705094D02*
X159472800Y-112609856D01*
X159472800Y-112609856D02*
X159425180Y-112466999D01*
X159425180Y-112466999D02*
X159425180Y-112371761D01*
X159425180Y-112371761D02*
X159472800Y-112228904D01*
X159472800Y-112228904D02*
X159520419Y-112181285D01*
X159520419Y-112181285D02*
X159853752Y-112181285D01*
X159853752Y-112181285D02*
X159853752Y-112371761D01*
X159425180Y-111752713D02*
X160425180Y-111752713D01*
X160425180Y-111752713D02*
X159425180Y-111181285D01*
X159425180Y-111181285D02*
X160425180Y-111181285D01*
X159425180Y-110705094D02*
X160425180Y-110705094D01*
X160425180Y-110705094D02*
X160425180Y-110466999D01*
X160425180Y-110466999D02*
X160377561Y-110324142D01*
X160377561Y-110324142D02*
X160282323Y-110228904D01*
X160282323Y-110228904D02*
X160187085Y-110181285D01*
X160187085Y-110181285D02*
X159996609Y-110133666D01*
X159996609Y-110133666D02*
X159853752Y-110133666D01*
X159853752Y-110133666D02*
X159663276Y-110181285D01*
X159663276Y-110181285D02*
X159568038Y-110228904D01*
X159568038Y-110228904D02*
X159472800Y-110324142D01*
X159472800Y-110324142D02*
X159425180Y-110466999D01*
X159425180Y-110466999D02*
X159425180Y-110705094D01*
X165505180Y-112728904D02*
X165505180Y-112157476D01*
X164505180Y-112443190D02*
X165505180Y-112443190D01*
X165505180Y-111919380D02*
X164505180Y-111252714D01*
X165505180Y-111252714D02*
X164505180Y-111919380D01*
X164505180Y-110871761D02*
X165505180Y-110871761D01*
X165505180Y-110871761D02*
X165505180Y-110633666D01*
X165505180Y-110633666D02*
X165457561Y-110490809D01*
X165457561Y-110490809D02*
X165362323Y-110395571D01*
X165362323Y-110395571D02*
X165267085Y-110347952D01*
X165267085Y-110347952D02*
X165076609Y-110300333D01*
X165076609Y-110300333D02*
X164933752Y-110300333D01*
X164933752Y-110300333D02*
X164743276Y-110347952D01*
X164743276Y-110347952D02*
X164648038Y-110395571D01*
X164648038Y-110395571D02*
X164552800Y-110490809D01*
X164552800Y-110490809D02*
X164505180Y-110633666D01*
X164505180Y-110633666D02*
X164505180Y-110871761D01*
X159488561Y-62825904D02*
X159536180Y-62921142D01*
X159536180Y-62921142D02*
X159536180Y-63063999D01*
X159536180Y-63063999D02*
X159488561Y-63206856D01*
X159488561Y-63206856D02*
X159393323Y-63302094D01*
X159393323Y-63302094D02*
X159298085Y-63349713D01*
X159298085Y-63349713D02*
X159107609Y-63397332D01*
X159107609Y-63397332D02*
X158964752Y-63397332D01*
X158964752Y-63397332D02*
X158774276Y-63349713D01*
X158774276Y-63349713D02*
X158679038Y-63302094D01*
X158679038Y-63302094D02*
X158583800Y-63206856D01*
X158583800Y-63206856D02*
X158536180Y-63063999D01*
X158536180Y-63063999D02*
X158536180Y-62968761D01*
X158536180Y-62968761D02*
X158583800Y-62825904D01*
X158583800Y-62825904D02*
X158631419Y-62778285D01*
X158631419Y-62778285D02*
X158964752Y-62778285D01*
X158964752Y-62778285D02*
X158964752Y-62968761D01*
X158536180Y-62349713D02*
X159536180Y-62349713D01*
X159536180Y-62349713D02*
X158536180Y-61778285D01*
X158536180Y-61778285D02*
X159536180Y-61778285D01*
X158536180Y-61302094D02*
X159536180Y-61302094D01*
X159536180Y-61302094D02*
X159536180Y-61063999D01*
X159536180Y-61063999D02*
X159488561Y-60921142D01*
X159488561Y-60921142D02*
X159393323Y-60825904D01*
X159393323Y-60825904D02*
X159298085Y-60778285D01*
X159298085Y-60778285D02*
X159107609Y-60730666D01*
X159107609Y-60730666D02*
X158964752Y-60730666D01*
X158964752Y-60730666D02*
X158774276Y-60778285D01*
X158774276Y-60778285D02*
X158679038Y-60825904D01*
X158679038Y-60825904D02*
X158583800Y-60921142D01*
X158583800Y-60921142D02*
X158536180Y-61063999D01*
X158536180Y-61063999D02*
X158536180Y-61302094D01*
X164139990Y-62611618D02*
X164092371Y-62468761D01*
X164092371Y-62468761D02*
X164044752Y-62421142D01*
X164044752Y-62421142D02*
X163949514Y-62373523D01*
X163949514Y-62373523D02*
X163806657Y-62373523D01*
X163806657Y-62373523D02*
X163711419Y-62421142D01*
X163711419Y-62421142D02*
X163663800Y-62468761D01*
X163663800Y-62468761D02*
X163616180Y-62563999D01*
X163616180Y-62563999D02*
X163616180Y-62944951D01*
X163616180Y-62944951D02*
X164616180Y-62944951D01*
X164616180Y-62944951D02*
X164616180Y-62611618D01*
X164616180Y-62611618D02*
X164568561Y-62516380D01*
X164568561Y-62516380D02*
X164520942Y-62468761D01*
X164520942Y-62468761D02*
X164425704Y-62421142D01*
X164425704Y-62421142D02*
X164330466Y-62421142D01*
X164330466Y-62421142D02*
X164235228Y-62468761D01*
X164235228Y-62468761D02*
X164187609Y-62516380D01*
X164187609Y-62516380D02*
X164139990Y-62611618D01*
X164139990Y-62611618D02*
X164139990Y-62944951D01*
X163997133Y-61944951D02*
X163997133Y-61183047D01*
X163616180Y-61563999D02*
X164378085Y-61563999D01*
X168045180Y-112927332D02*
X167045180Y-112593999D01*
X167045180Y-112593999D02*
X168045180Y-112260666D01*
X167140419Y-111355904D02*
X167092800Y-111403523D01*
X167092800Y-111403523D02*
X167045180Y-111546380D01*
X167045180Y-111546380D02*
X167045180Y-111641618D01*
X167045180Y-111641618D02*
X167092800Y-111784475D01*
X167092800Y-111784475D02*
X167188038Y-111879713D01*
X167188038Y-111879713D02*
X167283276Y-111927332D01*
X167283276Y-111927332D02*
X167473752Y-111974951D01*
X167473752Y-111974951D02*
X167616609Y-111974951D01*
X167616609Y-111974951D02*
X167807085Y-111927332D01*
X167807085Y-111927332D02*
X167902323Y-111879713D01*
X167902323Y-111879713D02*
X167997561Y-111784475D01*
X167997561Y-111784475D02*
X168045180Y-111641618D01*
X168045180Y-111641618D02*
X168045180Y-111546380D01*
X168045180Y-111546380D02*
X167997561Y-111403523D01*
X167997561Y-111403523D02*
X167949942Y-111355904D01*
X167140419Y-110355904D02*
X167092800Y-110403523D01*
X167092800Y-110403523D02*
X167045180Y-110546380D01*
X167045180Y-110546380D02*
X167045180Y-110641618D01*
X167045180Y-110641618D02*
X167092800Y-110784475D01*
X167092800Y-110784475D02*
X167188038Y-110879713D01*
X167188038Y-110879713D02*
X167283276Y-110927332D01*
X167283276Y-110927332D02*
X167473752Y-110974951D01*
X167473752Y-110974951D02*
X167616609Y-110974951D01*
X167616609Y-110974951D02*
X167807085Y-110927332D01*
X167807085Y-110927332D02*
X167902323Y-110879713D01*
X167902323Y-110879713D02*
X167997561Y-110784475D01*
X167997561Y-110784475D02*
X168045180Y-110641618D01*
X168045180Y-110641618D02*
X168045180Y-110546380D01*
X168045180Y-110546380D02*
X167997561Y-110403523D01*
X167997561Y-110403523D02*
X167949942Y-110355904D01*
D11*
%TO.C,U3*%
X156324000Y-65874000D02*
X156324000Y-108800000D01*
X156324000Y-65874000D02*
X157825000Y-65874000D01*
X156324000Y-108800000D02*
X158925000Y-108800000D01*
X160825000Y-108802000D02*
X161525000Y-108802000D01*
X162925000Y-65902000D02*
X160225000Y-65902000D01*
X163325000Y-108802000D02*
X164025000Y-108802000D01*
X165925000Y-108802000D02*
X166525000Y-108802000D01*
X168025000Y-65902000D02*
X165225000Y-65902000D01*
X168425000Y-108802000D02*
X171564000Y-108802000D01*
X171564000Y-65874000D02*
X170325000Y-65874000D01*
X171564000Y-108800000D02*
X171564000Y-65874000D01*
%TD*%
M02*
