%TF.GenerationSoftware,KiCad,Pcbnew,9.0.4*%
%TF.CreationDate,2025-10-10T10:10:13+07:00*%
%TF.ProjectId,TARA_T8X,54415241-5f54-4385-982e-6b696361645f,rev?*%
%TF.SameCoordinates,Original*%
%TF.FileFunction,Legend,Top*%
%TF.FilePolarity,Positive*%
%FSLAX46Y46*%
G04 Gerber Fmt 4.6, Leading zero omitted, Abs format (unit mm)*
G04 Created by KiCad (PCBNEW 9.0.4) date 2025-10-10 10:10:13*
%MOMM*%
%LPD*%
G01*
G04 APERTURE LIST*
%ADD10C,0.150000*%
%ADD11C,0.120000*%
%ADD12C,0.250000*%
%ADD13C,0.375000*%
G04 APERTURE END LIST*
D10*
X196420500Y-53000000D02*
X198579500Y-53000000D01*
X198579500Y-55286000D01*
X196420500Y-55286000D01*
X196420500Y-53000000D01*
X176324000Y-51000000D02*
X187500000Y-51000000D01*
X187500000Y-55826000D01*
X176324000Y-55826000D01*
X176324000Y-51000000D01*
X174202661Y-114792460D02*
G75*
G02*
X170652659Y-114792460I-1775001J0D01*
G01*
X170652659Y-114792460D02*
G75*
G02*
X174202661Y-114792460I1775001J0D01*
G01*
D11*
X153714286Y-119206379D02*
X153714286Y-120015902D01*
X153714286Y-120015902D02*
X153761905Y-120111140D01*
X153761905Y-120111140D02*
X153809524Y-120158760D01*
X153809524Y-120158760D02*
X153904762Y-120206379D01*
X153904762Y-120206379D02*
X154095238Y-120206379D01*
X154095238Y-120206379D02*
X154190476Y-120158760D01*
X154190476Y-120158760D02*
X154238095Y-120111140D01*
X154238095Y-120111140D02*
X154285714Y-120015902D01*
X154285714Y-120015902D02*
X154285714Y-119206379D01*
X154761905Y-120206379D02*
X154761905Y-119206379D01*
X154761905Y-119206379D02*
X155142857Y-119206379D01*
X155142857Y-119206379D02*
X155238095Y-119253998D01*
X155238095Y-119253998D02*
X155285714Y-119301617D01*
X155285714Y-119301617D02*
X155333333Y-119396855D01*
X155333333Y-119396855D02*
X155333333Y-119539712D01*
X155333333Y-119539712D02*
X155285714Y-119634950D01*
X155285714Y-119634950D02*
X155238095Y-119682569D01*
X155238095Y-119682569D02*
X155142857Y-119730188D01*
X155142857Y-119730188D02*
X154761905Y-119730188D01*
D10*
X132390476Y-128654819D02*
X133057142Y-128654819D01*
X133057142Y-128654819D02*
X132390476Y-129654819D01*
X132390476Y-129654819D02*
X133057142Y-129654819D01*
X133961904Y-129654819D02*
X133390476Y-129654819D01*
X133676190Y-129654819D02*
X133676190Y-128654819D01*
X133676190Y-128654819D02*
X133580952Y-128797676D01*
X133580952Y-128797676D02*
X133485714Y-128892914D01*
X133485714Y-128892914D02*
X133390476Y-128940533D01*
X124270476Y-58454819D02*
X124603809Y-59454819D01*
X124603809Y-59454819D02*
X124937142Y-58454819D01*
X125841904Y-59359580D02*
X125794285Y-59407200D01*
X125794285Y-59407200D02*
X125651428Y-59454819D01*
X125651428Y-59454819D02*
X125556190Y-59454819D01*
X125556190Y-59454819D02*
X125413333Y-59407200D01*
X125413333Y-59407200D02*
X125318095Y-59311961D01*
X125318095Y-59311961D02*
X125270476Y-59216723D01*
X125270476Y-59216723D02*
X125222857Y-59026247D01*
X125222857Y-59026247D02*
X125222857Y-58883390D01*
X125222857Y-58883390D02*
X125270476Y-58692914D01*
X125270476Y-58692914D02*
X125318095Y-58597676D01*
X125318095Y-58597676D02*
X125413333Y-58502438D01*
X125413333Y-58502438D02*
X125556190Y-58454819D01*
X125556190Y-58454819D02*
X125651428Y-58454819D01*
X125651428Y-58454819D02*
X125794285Y-58502438D01*
X125794285Y-58502438D02*
X125841904Y-58550057D01*
X126841904Y-59359580D02*
X126794285Y-59407200D01*
X126794285Y-59407200D02*
X126651428Y-59454819D01*
X126651428Y-59454819D02*
X126556190Y-59454819D01*
X126556190Y-59454819D02*
X126413333Y-59407200D01*
X126413333Y-59407200D02*
X126318095Y-59311961D01*
X126318095Y-59311961D02*
X126270476Y-59216723D01*
X126270476Y-59216723D02*
X126222857Y-59026247D01*
X126222857Y-59026247D02*
X126222857Y-58883390D01*
X126222857Y-58883390D02*
X126270476Y-58692914D01*
X126270476Y-58692914D02*
X126318095Y-58597676D01*
X126318095Y-58597676D02*
X126413333Y-58502438D01*
X126413333Y-58502438D02*
X126556190Y-58454819D01*
X126556190Y-58454819D02*
X126651428Y-58454819D01*
X126651428Y-58454819D02*
X126794285Y-58502438D01*
X126794285Y-58502438D02*
X126841904Y-58550057D01*
X127222857Y-58550057D02*
X127270476Y-58502438D01*
X127270476Y-58502438D02*
X127365714Y-58454819D01*
X127365714Y-58454819D02*
X127603809Y-58454819D01*
X127603809Y-58454819D02*
X127699047Y-58502438D01*
X127699047Y-58502438D02*
X127746666Y-58550057D01*
X127746666Y-58550057D02*
X127794285Y-58645295D01*
X127794285Y-58645295D02*
X127794285Y-58740533D01*
X127794285Y-58740533D02*
X127746666Y-58883390D01*
X127746666Y-58883390D02*
X127175238Y-59454819D01*
X127175238Y-59454819D02*
X127794285Y-59454819D01*
D11*
X134834571Y-120074569D02*
X135167904Y-120074569D01*
X135310761Y-120598379D02*
X134834571Y-120598379D01*
X134834571Y-120598379D02*
X134834571Y-119598379D01*
X134834571Y-119598379D02*
X135310761Y-119598379D01*
X135739333Y-120598379D02*
X135739333Y-119598379D01*
X135739333Y-119598379D02*
X136310761Y-120598379D01*
X136310761Y-120598379D02*
X136310761Y-119598379D01*
X136644095Y-119598379D02*
X137215523Y-119598379D01*
X136929809Y-120598379D02*
X136929809Y-119598379D01*
X137548857Y-120074569D02*
X137882190Y-120074569D01*
X138025047Y-120598379D02*
X137548857Y-120598379D01*
X137548857Y-120598379D02*
X137548857Y-119598379D01*
X137548857Y-119598379D02*
X138025047Y-119598379D01*
X139025047Y-120598379D02*
X138691714Y-120122188D01*
X138453619Y-120598379D02*
X138453619Y-119598379D01*
X138453619Y-119598379D02*
X138834571Y-119598379D01*
X138834571Y-119598379D02*
X138929809Y-119645998D01*
X138929809Y-119645998D02*
X138977428Y-119693617D01*
X138977428Y-119693617D02*
X139025047Y-119788855D01*
X139025047Y-119788855D02*
X139025047Y-119931712D01*
X139025047Y-119931712D02*
X138977428Y-120026950D01*
X138977428Y-120026950D02*
X138929809Y-120074569D01*
X138929809Y-120074569D02*
X138834571Y-120122188D01*
X138834571Y-120122188D02*
X138453619Y-120122188D01*
D12*
X188865214Y-52912238D02*
X190008071Y-52912238D01*
X189436642Y-54912238D02*
X189436642Y-52912238D01*
X190960452Y-53769380D02*
X190769976Y-53674142D01*
X190769976Y-53674142D02*
X190674738Y-53578904D01*
X190674738Y-53578904D02*
X190579500Y-53388428D01*
X190579500Y-53388428D02*
X190579500Y-53293190D01*
X190579500Y-53293190D02*
X190674738Y-53102714D01*
X190674738Y-53102714D02*
X190769976Y-53007476D01*
X190769976Y-53007476D02*
X190960452Y-52912238D01*
X190960452Y-52912238D02*
X191341405Y-52912238D01*
X191341405Y-52912238D02*
X191531881Y-53007476D01*
X191531881Y-53007476D02*
X191627119Y-53102714D01*
X191627119Y-53102714D02*
X191722357Y-53293190D01*
X191722357Y-53293190D02*
X191722357Y-53388428D01*
X191722357Y-53388428D02*
X191627119Y-53578904D01*
X191627119Y-53578904D02*
X191531881Y-53674142D01*
X191531881Y-53674142D02*
X191341405Y-53769380D01*
X191341405Y-53769380D02*
X190960452Y-53769380D01*
X190960452Y-53769380D02*
X190769976Y-53864619D01*
X190769976Y-53864619D02*
X190674738Y-53959857D01*
X190674738Y-53959857D02*
X190579500Y-54150333D01*
X190579500Y-54150333D02*
X190579500Y-54531285D01*
X190579500Y-54531285D02*
X190674738Y-54721761D01*
X190674738Y-54721761D02*
X190769976Y-54817000D01*
X190769976Y-54817000D02*
X190960452Y-54912238D01*
X190960452Y-54912238D02*
X191341405Y-54912238D01*
X191341405Y-54912238D02*
X191531881Y-54817000D01*
X191531881Y-54817000D02*
X191627119Y-54721761D01*
X191627119Y-54721761D02*
X191722357Y-54531285D01*
X191722357Y-54531285D02*
X191722357Y-54150333D01*
X191722357Y-54150333D02*
X191627119Y-53959857D01*
X191627119Y-53959857D02*
X191531881Y-53864619D01*
X191531881Y-53864619D02*
X191341405Y-53769380D01*
X192389024Y-52912238D02*
X193722357Y-54912238D01*
X193722357Y-52912238D02*
X192389024Y-54912238D01*
X194484262Y-54150333D02*
X196008072Y-54150333D01*
D10*
X173940136Y-135779279D02*
X173940136Y-134779279D01*
X173940136Y-134779279D02*
X174321088Y-134779279D01*
X174321088Y-134779279D02*
X174416326Y-134826898D01*
X174416326Y-134826898D02*
X174463945Y-134874517D01*
X174463945Y-134874517D02*
X174511564Y-134969755D01*
X174511564Y-134969755D02*
X174511564Y-135112612D01*
X174511564Y-135112612D02*
X174463945Y-135207850D01*
X174463945Y-135207850D02*
X174416326Y-135255469D01*
X174416326Y-135255469D02*
X174321088Y-135303088D01*
X174321088Y-135303088D02*
X173940136Y-135303088D01*
X175130612Y-134779279D02*
X175321088Y-134779279D01*
X175321088Y-134779279D02*
X175416326Y-134826898D01*
X175416326Y-134826898D02*
X175511564Y-134922136D01*
X175511564Y-134922136D02*
X175559183Y-135112612D01*
X175559183Y-135112612D02*
X175559183Y-135445945D01*
X175559183Y-135445945D02*
X175511564Y-135636421D01*
X175511564Y-135636421D02*
X175416326Y-135731660D01*
X175416326Y-135731660D02*
X175321088Y-135779279D01*
X175321088Y-135779279D02*
X175130612Y-135779279D01*
X175130612Y-135779279D02*
X175035374Y-135731660D01*
X175035374Y-135731660D02*
X174940136Y-135636421D01*
X174940136Y-135636421D02*
X174892517Y-135445945D01*
X174892517Y-135445945D02*
X174892517Y-135112612D01*
X174892517Y-135112612D02*
X174940136Y-134922136D01*
X174940136Y-134922136D02*
X175035374Y-134826898D01*
X175035374Y-134826898D02*
X175130612Y-134779279D01*
X175892517Y-134779279D02*
X176130612Y-135779279D01*
X176130612Y-135779279D02*
X176321088Y-135064993D01*
X176321088Y-135064993D02*
X176511564Y-135779279D01*
X176511564Y-135779279D02*
X176749660Y-134779279D01*
X177130612Y-135255469D02*
X177463945Y-135255469D01*
X177606802Y-135779279D02*
X177130612Y-135779279D01*
X177130612Y-135779279D02*
X177130612Y-134779279D01*
X177130612Y-134779279D02*
X177606802Y-134779279D01*
X178606802Y-135779279D02*
X178273469Y-135303088D01*
X178035374Y-135779279D02*
X178035374Y-134779279D01*
X178035374Y-134779279D02*
X178416326Y-134779279D01*
X178416326Y-134779279D02*
X178511564Y-134826898D01*
X178511564Y-134826898D02*
X178559183Y-134874517D01*
X178559183Y-134874517D02*
X178606802Y-134969755D01*
X178606802Y-134969755D02*
X178606802Y-135112612D01*
X178606802Y-135112612D02*
X178559183Y-135207850D01*
X178559183Y-135207850D02*
X178511564Y-135255469D01*
X178511564Y-135255469D02*
X178416326Y-135303088D01*
X178416326Y-135303088D02*
X178035374Y-135303088D01*
X152829565Y-129469279D02*
X152829565Y-128469279D01*
X152829565Y-128469279D02*
X153210517Y-128469279D01*
X153210517Y-128469279D02*
X153305755Y-128516898D01*
X153305755Y-128516898D02*
X153353374Y-128564517D01*
X153353374Y-128564517D02*
X153400993Y-128659755D01*
X153400993Y-128659755D02*
X153400993Y-128802612D01*
X153400993Y-128802612D02*
X153353374Y-128897850D01*
X153353374Y-128897850D02*
X153305755Y-128945469D01*
X153305755Y-128945469D02*
X153210517Y-128993088D01*
X153210517Y-128993088D02*
X152829565Y-128993088D01*
X154305755Y-128469279D02*
X153829565Y-128469279D01*
X153829565Y-128469279D02*
X153781946Y-128945469D01*
X153781946Y-128945469D02*
X153829565Y-128897850D01*
X153829565Y-128897850D02*
X153924803Y-128850231D01*
X153924803Y-128850231D02*
X154162898Y-128850231D01*
X154162898Y-128850231D02*
X154258136Y-128897850D01*
X154258136Y-128897850D02*
X154305755Y-128945469D01*
X154305755Y-128945469D02*
X154353374Y-129040707D01*
X154353374Y-129040707D02*
X154353374Y-129278802D01*
X154353374Y-129278802D02*
X154305755Y-129374040D01*
X154305755Y-129374040D02*
X154258136Y-129421660D01*
X154258136Y-129421660D02*
X154162898Y-129469279D01*
X154162898Y-129469279D02*
X153924803Y-129469279D01*
X153924803Y-129469279D02*
X153829565Y-129421660D01*
X153829565Y-129421660D02*
X153781946Y-129374040D01*
X137518136Y-128469279D02*
X138184802Y-128469279D01*
X138184802Y-128469279D02*
X137518136Y-129469279D01*
X137518136Y-129469279D02*
X138184802Y-129469279D01*
X138518136Y-128564517D02*
X138565755Y-128516898D01*
X138565755Y-128516898D02*
X138660993Y-128469279D01*
X138660993Y-128469279D02*
X138899088Y-128469279D01*
X138899088Y-128469279D02*
X138994326Y-128516898D01*
X138994326Y-128516898D02*
X139041945Y-128564517D01*
X139041945Y-128564517D02*
X139089564Y-128659755D01*
X139089564Y-128659755D02*
X139089564Y-128754993D01*
X139089564Y-128754993D02*
X139041945Y-128897850D01*
X139041945Y-128897850D02*
X138470517Y-129469279D01*
X138470517Y-129469279D02*
X139089564Y-129469279D01*
X167998136Y-128469279D02*
X168664802Y-128469279D01*
X168664802Y-128469279D02*
X167998136Y-129469279D01*
X167998136Y-129469279D02*
X168664802Y-129469279D01*
X169188612Y-128897850D02*
X169093374Y-128850231D01*
X169093374Y-128850231D02*
X169045755Y-128802612D01*
X169045755Y-128802612D02*
X168998136Y-128707374D01*
X168998136Y-128707374D02*
X168998136Y-128659755D01*
X168998136Y-128659755D02*
X169045755Y-128564517D01*
X169045755Y-128564517D02*
X169093374Y-128516898D01*
X169093374Y-128516898D02*
X169188612Y-128469279D01*
X169188612Y-128469279D02*
X169379088Y-128469279D01*
X169379088Y-128469279D02*
X169474326Y-128516898D01*
X169474326Y-128516898D02*
X169521945Y-128564517D01*
X169521945Y-128564517D02*
X169569564Y-128659755D01*
X169569564Y-128659755D02*
X169569564Y-128707374D01*
X169569564Y-128707374D02*
X169521945Y-128802612D01*
X169521945Y-128802612D02*
X169474326Y-128850231D01*
X169474326Y-128850231D02*
X169379088Y-128897850D01*
X169379088Y-128897850D02*
X169188612Y-128897850D01*
X169188612Y-128897850D02*
X169093374Y-128945469D01*
X169093374Y-128945469D02*
X169045755Y-128993088D01*
X169045755Y-128993088D02*
X168998136Y-129088326D01*
X168998136Y-129088326D02*
X168998136Y-129278802D01*
X168998136Y-129278802D02*
X169045755Y-129374040D01*
X169045755Y-129374040D02*
X169093374Y-129421660D01*
X169093374Y-129421660D02*
X169188612Y-129469279D01*
X169188612Y-129469279D02*
X169379088Y-129469279D01*
X169379088Y-129469279D02*
X169474326Y-129421660D01*
X169474326Y-129421660D02*
X169521945Y-129374040D01*
X169521945Y-129374040D02*
X169569564Y-129278802D01*
X169569564Y-129278802D02*
X169569564Y-129088326D01*
X169569564Y-129088326D02*
X169521945Y-128993088D01*
X169521945Y-128993088D02*
X169474326Y-128945469D01*
X169474326Y-128945469D02*
X169379088Y-128897850D01*
D13*
X176983428Y-51781357D02*
X178697714Y-51781357D01*
X177840571Y-54781357D02*
X177840571Y-51781357D01*
X179554856Y-53924214D02*
X180983428Y-53924214D01*
X179269142Y-54781357D02*
X180269142Y-51781357D01*
X180269142Y-51781357D02*
X181269142Y-54781357D01*
X183983428Y-54781357D02*
X182983428Y-53352785D01*
X182269142Y-54781357D02*
X182269142Y-51781357D01*
X182269142Y-51781357D02*
X183411999Y-51781357D01*
X183411999Y-51781357D02*
X183697714Y-51924214D01*
X183697714Y-51924214D02*
X183840571Y-52067071D01*
X183840571Y-52067071D02*
X183983428Y-52352785D01*
X183983428Y-52352785D02*
X183983428Y-52781357D01*
X183983428Y-52781357D02*
X183840571Y-53067071D01*
X183840571Y-53067071D02*
X183697714Y-53209928D01*
X183697714Y-53209928D02*
X183411999Y-53352785D01*
X183411999Y-53352785D02*
X182269142Y-53352785D01*
X185126285Y-53924214D02*
X186554857Y-53924214D01*
X184840571Y-54781357D02*
X185840571Y-51781357D01*
X185840571Y-51781357D02*
X186840571Y-54781357D01*
D10*
X149361905Y-59357200D02*
X149504762Y-59404819D01*
X149504762Y-59404819D02*
X149742857Y-59404819D01*
X149742857Y-59404819D02*
X149838095Y-59357200D01*
X149838095Y-59357200D02*
X149885714Y-59309580D01*
X149885714Y-59309580D02*
X149933333Y-59214342D01*
X149933333Y-59214342D02*
X149933333Y-59119104D01*
X149933333Y-59119104D02*
X149885714Y-59023866D01*
X149885714Y-59023866D02*
X149838095Y-58976247D01*
X149838095Y-58976247D02*
X149742857Y-58928628D01*
X149742857Y-58928628D02*
X149552381Y-58881009D01*
X149552381Y-58881009D02*
X149457143Y-58833390D01*
X149457143Y-58833390D02*
X149409524Y-58785771D01*
X149409524Y-58785771D02*
X149361905Y-58690533D01*
X149361905Y-58690533D02*
X149361905Y-58595295D01*
X149361905Y-58595295D02*
X149409524Y-58500057D01*
X149409524Y-58500057D02*
X149457143Y-58452438D01*
X149457143Y-58452438D02*
X149552381Y-58404819D01*
X149552381Y-58404819D02*
X149790476Y-58404819D01*
X149790476Y-58404819D02*
X149933333Y-58452438D01*
X150361905Y-58881009D02*
X150695238Y-58881009D01*
X150838095Y-59404819D02*
X150361905Y-59404819D01*
X150361905Y-59404819D02*
X150361905Y-58404819D01*
X150361905Y-58404819D02*
X150838095Y-58404819D01*
X151266667Y-59404819D02*
X151266667Y-58404819D01*
X151266667Y-58404819D02*
X151838095Y-59404819D01*
X151838095Y-59404819D02*
X151838095Y-58404819D01*
X152838095Y-59404819D02*
X152266667Y-59404819D01*
X152552381Y-59404819D02*
X152552381Y-58404819D01*
X152552381Y-58404819D02*
X152457143Y-58547676D01*
X152457143Y-58547676D02*
X152361905Y-58642914D01*
X152361905Y-58642914D02*
X152266667Y-58690533D01*
X140105714Y-59364228D02*
X140248571Y-59411847D01*
X140248571Y-59411847D02*
X140486666Y-59411847D01*
X140486666Y-59411847D02*
X140581904Y-59364228D01*
X140581904Y-59364228D02*
X140629523Y-59316608D01*
X140629523Y-59316608D02*
X140677142Y-59221370D01*
X140677142Y-59221370D02*
X140677142Y-59126132D01*
X140677142Y-59126132D02*
X140629523Y-59030894D01*
X140629523Y-59030894D02*
X140581904Y-58983275D01*
X140581904Y-58983275D02*
X140486666Y-58935656D01*
X140486666Y-58935656D02*
X140296190Y-58888037D01*
X140296190Y-58888037D02*
X140200952Y-58840418D01*
X140200952Y-58840418D02*
X140153333Y-58792799D01*
X140153333Y-58792799D02*
X140105714Y-58697561D01*
X140105714Y-58697561D02*
X140105714Y-58602323D01*
X140105714Y-58602323D02*
X140153333Y-58507085D01*
X140153333Y-58507085D02*
X140200952Y-58459466D01*
X140200952Y-58459466D02*
X140296190Y-58411847D01*
X140296190Y-58411847D02*
X140534285Y-58411847D01*
X140534285Y-58411847D02*
X140677142Y-58459466D01*
X141105714Y-59411847D02*
X141105714Y-58411847D01*
X141105714Y-58411847D02*
X141343809Y-58411847D01*
X141343809Y-58411847D02*
X141486666Y-58459466D01*
X141486666Y-58459466D02*
X141581904Y-58554704D01*
X141581904Y-58554704D02*
X141629523Y-58649942D01*
X141629523Y-58649942D02*
X141677142Y-58840418D01*
X141677142Y-58840418D02*
X141677142Y-58983275D01*
X141677142Y-58983275D02*
X141629523Y-59173751D01*
X141629523Y-59173751D02*
X141581904Y-59268989D01*
X141581904Y-59268989D02*
X141486666Y-59364228D01*
X141486666Y-59364228D02*
X141343809Y-59411847D01*
X141343809Y-59411847D02*
X141105714Y-59411847D01*
X142058095Y-59126132D02*
X142534285Y-59126132D01*
X141962857Y-59411847D02*
X142296190Y-58411847D01*
X142296190Y-58411847D02*
X142629523Y-59411847D01*
X140677142Y-61402743D02*
X140629523Y-61355124D01*
X140629523Y-61355124D02*
X140534285Y-61212267D01*
X140534285Y-61212267D02*
X140486666Y-61117029D01*
X140486666Y-61117029D02*
X140439047Y-60974172D01*
X140439047Y-60974172D02*
X140391428Y-60736076D01*
X140391428Y-60736076D02*
X140391428Y-60545600D01*
X140391428Y-60545600D02*
X140439047Y-60307505D01*
X140439047Y-60307505D02*
X140486666Y-60164648D01*
X140486666Y-60164648D02*
X140534285Y-60069410D01*
X140534285Y-60069410D02*
X140629523Y-59926552D01*
X140629523Y-59926552D02*
X140677142Y-59878933D01*
X141391428Y-60497981D02*
X141534285Y-60545600D01*
X141534285Y-60545600D02*
X141581904Y-60593219D01*
X141581904Y-60593219D02*
X141629523Y-60688457D01*
X141629523Y-60688457D02*
X141629523Y-60831314D01*
X141629523Y-60831314D02*
X141581904Y-60926552D01*
X141581904Y-60926552D02*
X141534285Y-60974172D01*
X141534285Y-60974172D02*
X141439047Y-61021791D01*
X141439047Y-61021791D02*
X141058095Y-61021791D01*
X141058095Y-61021791D02*
X141058095Y-60021791D01*
X141058095Y-60021791D02*
X141391428Y-60021791D01*
X141391428Y-60021791D02*
X141486666Y-60069410D01*
X141486666Y-60069410D02*
X141534285Y-60117029D01*
X141534285Y-60117029D02*
X141581904Y-60212267D01*
X141581904Y-60212267D02*
X141581904Y-60307505D01*
X141581904Y-60307505D02*
X141534285Y-60402743D01*
X141534285Y-60402743D02*
X141486666Y-60450362D01*
X141486666Y-60450362D02*
X141391428Y-60497981D01*
X141391428Y-60497981D02*
X141058095Y-60497981D01*
X141962857Y-61402743D02*
X142010476Y-61355124D01*
X142010476Y-61355124D02*
X142105714Y-61212267D01*
X142105714Y-61212267D02*
X142153333Y-61117029D01*
X142153333Y-61117029D02*
X142200952Y-60974172D01*
X142200952Y-60974172D02*
X142248571Y-60736076D01*
X142248571Y-60736076D02*
X142248571Y-60545600D01*
X142248571Y-60545600D02*
X142200952Y-60307505D01*
X142200952Y-60307505D02*
X142153333Y-60164648D01*
X142153333Y-60164648D02*
X142105714Y-60069410D01*
X142105714Y-60069410D02*
X142010476Y-59926552D01*
X142010476Y-59926552D02*
X141962857Y-59878933D01*
X130398095Y-58502438D02*
X130302857Y-58454819D01*
X130302857Y-58454819D02*
X130160000Y-58454819D01*
X130160000Y-58454819D02*
X130017143Y-58502438D01*
X130017143Y-58502438D02*
X129921905Y-58597676D01*
X129921905Y-58597676D02*
X129874286Y-58692914D01*
X129874286Y-58692914D02*
X129826667Y-58883390D01*
X129826667Y-58883390D02*
X129826667Y-59026247D01*
X129826667Y-59026247D02*
X129874286Y-59216723D01*
X129874286Y-59216723D02*
X129921905Y-59311961D01*
X129921905Y-59311961D02*
X130017143Y-59407200D01*
X130017143Y-59407200D02*
X130160000Y-59454819D01*
X130160000Y-59454819D02*
X130255238Y-59454819D01*
X130255238Y-59454819D02*
X130398095Y-59407200D01*
X130398095Y-59407200D02*
X130445714Y-59359580D01*
X130445714Y-59359580D02*
X130445714Y-59026247D01*
X130445714Y-59026247D02*
X130255238Y-59026247D01*
X130874286Y-59454819D02*
X130874286Y-58454819D01*
X130874286Y-58454819D02*
X131445714Y-59454819D01*
X131445714Y-59454819D02*
X131445714Y-58454819D01*
X131921905Y-59454819D02*
X131921905Y-58454819D01*
X131921905Y-58454819D02*
X132160000Y-58454819D01*
X132160000Y-58454819D02*
X132302857Y-58502438D01*
X132302857Y-58502438D02*
X132398095Y-58597676D01*
X132398095Y-58597676D02*
X132445714Y-58692914D01*
X132445714Y-58692914D02*
X132493333Y-58883390D01*
X132493333Y-58883390D02*
X132493333Y-59026247D01*
X132493333Y-59026247D02*
X132445714Y-59216723D01*
X132445714Y-59216723D02*
X132398095Y-59311961D01*
X132398095Y-59311961D02*
X132302857Y-59407200D01*
X132302857Y-59407200D02*
X132160000Y-59454819D01*
X132160000Y-59454819D02*
X131921905Y-59454819D01*
D11*
X170619048Y-120206379D02*
X170619048Y-119206379D01*
X170619048Y-119206379D02*
X170857143Y-119206379D01*
X170857143Y-119206379D02*
X171000000Y-119253998D01*
X171000000Y-119253998D02*
X171095238Y-119349236D01*
X171095238Y-119349236D02*
X171142857Y-119444474D01*
X171142857Y-119444474D02*
X171190476Y-119634950D01*
X171190476Y-119634950D02*
X171190476Y-119777807D01*
X171190476Y-119777807D02*
X171142857Y-119968283D01*
X171142857Y-119968283D02*
X171095238Y-120063521D01*
X171095238Y-120063521D02*
X171000000Y-120158760D01*
X171000000Y-120158760D02*
X170857143Y-120206379D01*
X170857143Y-120206379D02*
X170619048Y-120206379D01*
X171809524Y-119206379D02*
X172000000Y-119206379D01*
X172000000Y-119206379D02*
X172095238Y-119253998D01*
X172095238Y-119253998D02*
X172190476Y-119349236D01*
X172190476Y-119349236D02*
X172238095Y-119539712D01*
X172238095Y-119539712D02*
X172238095Y-119873045D01*
X172238095Y-119873045D02*
X172190476Y-120063521D01*
X172190476Y-120063521D02*
X172095238Y-120158760D01*
X172095238Y-120158760D02*
X172000000Y-120206379D01*
X172000000Y-120206379D02*
X171809524Y-120206379D01*
X171809524Y-120206379D02*
X171714286Y-120158760D01*
X171714286Y-120158760D02*
X171619048Y-120063521D01*
X171619048Y-120063521D02*
X171571429Y-119873045D01*
X171571429Y-119873045D02*
X171571429Y-119539712D01*
X171571429Y-119539712D02*
X171619048Y-119349236D01*
X171619048Y-119349236D02*
X171714286Y-119253998D01*
X171714286Y-119253998D02*
X171809524Y-119206379D01*
X172571429Y-119206379D02*
X172809524Y-120206379D01*
X172809524Y-120206379D02*
X173000000Y-119492093D01*
X173000000Y-119492093D02*
X173190476Y-120206379D01*
X173190476Y-120206379D02*
X173428572Y-119206379D01*
X173809524Y-120206379D02*
X173809524Y-119206379D01*
X173809524Y-119206379D02*
X174380952Y-120206379D01*
X174380952Y-120206379D02*
X174380952Y-119206379D01*
D10*
X135430476Y-59426228D02*
X135573333Y-59473847D01*
X135573333Y-59473847D02*
X135811428Y-59473847D01*
X135811428Y-59473847D02*
X135906666Y-59426228D01*
X135906666Y-59426228D02*
X135954285Y-59378608D01*
X135954285Y-59378608D02*
X136001904Y-59283370D01*
X136001904Y-59283370D02*
X136001904Y-59188132D01*
X136001904Y-59188132D02*
X135954285Y-59092894D01*
X135954285Y-59092894D02*
X135906666Y-59045275D01*
X135906666Y-59045275D02*
X135811428Y-58997656D01*
X135811428Y-58997656D02*
X135620952Y-58950037D01*
X135620952Y-58950037D02*
X135525714Y-58902418D01*
X135525714Y-58902418D02*
X135478095Y-58854799D01*
X135478095Y-58854799D02*
X135430476Y-58759561D01*
X135430476Y-58759561D02*
X135430476Y-58664323D01*
X135430476Y-58664323D02*
X135478095Y-58569085D01*
X135478095Y-58569085D02*
X135525714Y-58521466D01*
X135525714Y-58521466D02*
X135620952Y-58473847D01*
X135620952Y-58473847D02*
X135859047Y-58473847D01*
X135859047Y-58473847D02*
X136001904Y-58521466D01*
X137001904Y-59378608D02*
X136954285Y-59426228D01*
X136954285Y-59426228D02*
X136811428Y-59473847D01*
X136811428Y-59473847D02*
X136716190Y-59473847D01*
X136716190Y-59473847D02*
X136573333Y-59426228D01*
X136573333Y-59426228D02*
X136478095Y-59330989D01*
X136478095Y-59330989D02*
X136430476Y-59235751D01*
X136430476Y-59235751D02*
X136382857Y-59045275D01*
X136382857Y-59045275D02*
X136382857Y-58902418D01*
X136382857Y-58902418D02*
X136430476Y-58711942D01*
X136430476Y-58711942D02*
X136478095Y-58616704D01*
X136478095Y-58616704D02*
X136573333Y-58521466D01*
X136573333Y-58521466D02*
X136716190Y-58473847D01*
X136716190Y-58473847D02*
X136811428Y-58473847D01*
X136811428Y-58473847D02*
X136954285Y-58521466D01*
X136954285Y-58521466D02*
X137001904Y-58569085D01*
X137906666Y-59473847D02*
X137430476Y-59473847D01*
X137430476Y-59473847D02*
X137430476Y-58473847D01*
X136049523Y-61464743D02*
X136001904Y-61417124D01*
X136001904Y-61417124D02*
X135906666Y-61274267D01*
X135906666Y-61274267D02*
X135859047Y-61179029D01*
X135859047Y-61179029D02*
X135811428Y-61036172D01*
X135811428Y-61036172D02*
X135763809Y-60798076D01*
X135763809Y-60798076D02*
X135763809Y-60607600D01*
X135763809Y-60607600D02*
X135811428Y-60369505D01*
X135811428Y-60369505D02*
X135859047Y-60226648D01*
X135859047Y-60226648D02*
X135906666Y-60131410D01*
X135906666Y-60131410D02*
X136001904Y-59988552D01*
X136001904Y-59988552D02*
X136049523Y-59940933D01*
X136382857Y-60798076D02*
X136859047Y-60798076D01*
X136287619Y-61083791D02*
X136620952Y-60083791D01*
X136620952Y-60083791D02*
X136954285Y-61083791D01*
X137192381Y-61464743D02*
X137240000Y-61417124D01*
X137240000Y-61417124D02*
X137335238Y-61274267D01*
X137335238Y-61274267D02*
X137382857Y-61179029D01*
X137382857Y-61179029D02*
X137430476Y-61036172D01*
X137430476Y-61036172D02*
X137478095Y-60798076D01*
X137478095Y-60798076D02*
X137478095Y-60607600D01*
X137478095Y-60607600D02*
X137430476Y-60369505D01*
X137430476Y-60369505D02*
X137382857Y-60226648D01*
X137382857Y-60226648D02*
X137335238Y-60131410D01*
X137335238Y-60131410D02*
X137240000Y-59988552D01*
X137240000Y-59988552D02*
X137192381Y-59940933D01*
X162918136Y-128469279D02*
X163584802Y-128469279D01*
X163584802Y-128469279D02*
X162918136Y-129469279D01*
X162918136Y-129469279D02*
X163584802Y-129469279D01*
X163870517Y-128469279D02*
X164537183Y-128469279D01*
X164537183Y-128469279D02*
X164108612Y-129469279D01*
D11*
X116325755Y-120677760D02*
X116468612Y-120725379D01*
X116468612Y-120725379D02*
X116706707Y-120725379D01*
X116706707Y-120725379D02*
X116801945Y-120677760D01*
X116801945Y-120677760D02*
X116849564Y-120630140D01*
X116849564Y-120630140D02*
X116897183Y-120534902D01*
X116897183Y-120534902D02*
X116897183Y-120439664D01*
X116897183Y-120439664D02*
X116849564Y-120344426D01*
X116849564Y-120344426D02*
X116801945Y-120296807D01*
X116801945Y-120296807D02*
X116706707Y-120249188D01*
X116706707Y-120249188D02*
X116516231Y-120201569D01*
X116516231Y-120201569D02*
X116420993Y-120153950D01*
X116420993Y-120153950D02*
X116373374Y-120106331D01*
X116373374Y-120106331D02*
X116325755Y-120011093D01*
X116325755Y-120011093D02*
X116325755Y-119915855D01*
X116325755Y-119915855D02*
X116373374Y-119820617D01*
X116373374Y-119820617D02*
X116420993Y-119772998D01*
X116420993Y-119772998D02*
X116516231Y-119725379D01*
X116516231Y-119725379D02*
X116754326Y-119725379D01*
X116754326Y-119725379D02*
X116897183Y-119772998D01*
X117325755Y-120201569D02*
X117659088Y-120201569D01*
X117801945Y-120725379D02*
X117325755Y-120725379D01*
X117325755Y-120725379D02*
X117325755Y-119725379D01*
X117325755Y-119725379D02*
X117801945Y-119725379D01*
X118087660Y-119725379D02*
X118659088Y-119725379D01*
X118373374Y-120725379D02*
X118373374Y-119725379D01*
X118849565Y-119725379D02*
X119420993Y-119725379D01*
X119135279Y-120725379D02*
X119135279Y-119725379D01*
X119754327Y-120725379D02*
X119754327Y-119725379D01*
X120230517Y-120725379D02*
X120230517Y-119725379D01*
X120230517Y-119725379D02*
X120801945Y-120725379D01*
X120801945Y-120725379D02*
X120801945Y-119725379D01*
X121801945Y-119772998D02*
X121706707Y-119725379D01*
X121706707Y-119725379D02*
X121563850Y-119725379D01*
X121563850Y-119725379D02*
X121420993Y-119772998D01*
X121420993Y-119772998D02*
X121325755Y-119868236D01*
X121325755Y-119868236D02*
X121278136Y-119963474D01*
X121278136Y-119963474D02*
X121230517Y-120153950D01*
X121230517Y-120153950D02*
X121230517Y-120296807D01*
X121230517Y-120296807D02*
X121278136Y-120487283D01*
X121278136Y-120487283D02*
X121325755Y-120582521D01*
X121325755Y-120582521D02*
X121420993Y-120677760D01*
X121420993Y-120677760D02*
X121563850Y-120725379D01*
X121563850Y-120725379D02*
X121659088Y-120725379D01*
X121659088Y-120725379D02*
X121801945Y-120677760D01*
X121801945Y-120677760D02*
X121849564Y-120630140D01*
X121849564Y-120630140D02*
X121849564Y-120296807D01*
X121849564Y-120296807D02*
X121659088Y-120296807D01*
D10*
X157838136Y-128469279D02*
X158504802Y-128469279D01*
X158504802Y-128469279D02*
X157838136Y-129469279D01*
X157838136Y-129469279D02*
X158504802Y-129469279D01*
X159314326Y-128469279D02*
X159123850Y-128469279D01*
X159123850Y-128469279D02*
X159028612Y-128516898D01*
X159028612Y-128516898D02*
X158980993Y-128564517D01*
X158980993Y-128564517D02*
X158885755Y-128707374D01*
X158885755Y-128707374D02*
X158838136Y-128897850D01*
X158838136Y-128897850D02*
X158838136Y-129278802D01*
X158838136Y-129278802D02*
X158885755Y-129374040D01*
X158885755Y-129374040D02*
X158933374Y-129421660D01*
X158933374Y-129421660D02*
X159028612Y-129469279D01*
X159028612Y-129469279D02*
X159219088Y-129469279D01*
X159219088Y-129469279D02*
X159314326Y-129421660D01*
X159314326Y-129421660D02*
X159361945Y-129374040D01*
X159361945Y-129374040D02*
X159409564Y-129278802D01*
X159409564Y-129278802D02*
X159409564Y-129040707D01*
X159409564Y-129040707D02*
X159361945Y-128945469D01*
X159361945Y-128945469D02*
X159314326Y-128897850D01*
X159314326Y-128897850D02*
X159219088Y-128850231D01*
X159219088Y-128850231D02*
X159028612Y-128850231D01*
X159028612Y-128850231D02*
X158933374Y-128897850D01*
X158933374Y-128897850D02*
X158885755Y-128945469D01*
X158885755Y-128945469D02*
X158838136Y-129040707D01*
X127429565Y-129469279D02*
X127429565Y-128469279D01*
X127429565Y-128469279D02*
X127810517Y-128469279D01*
X127810517Y-128469279D02*
X127905755Y-128516898D01*
X127905755Y-128516898D02*
X127953374Y-128564517D01*
X127953374Y-128564517D02*
X128000993Y-128659755D01*
X128000993Y-128659755D02*
X128000993Y-128802612D01*
X128000993Y-128802612D02*
X127953374Y-128897850D01*
X127953374Y-128897850D02*
X127905755Y-128945469D01*
X127905755Y-128945469D02*
X127810517Y-128993088D01*
X127810517Y-128993088D02*
X127429565Y-128993088D01*
X128381946Y-128564517D02*
X128429565Y-128516898D01*
X128429565Y-128516898D02*
X128524803Y-128469279D01*
X128524803Y-128469279D02*
X128762898Y-128469279D01*
X128762898Y-128469279D02*
X128858136Y-128516898D01*
X128858136Y-128516898D02*
X128905755Y-128564517D01*
X128905755Y-128564517D02*
X128953374Y-128659755D01*
X128953374Y-128659755D02*
X128953374Y-128754993D01*
X128953374Y-128754993D02*
X128905755Y-128897850D01*
X128905755Y-128897850D02*
X128334327Y-129469279D01*
X128334327Y-129469279D02*
X128953374Y-129469279D01*
X154361905Y-59357200D02*
X154504762Y-59404819D01*
X154504762Y-59404819D02*
X154742857Y-59404819D01*
X154742857Y-59404819D02*
X154838095Y-59357200D01*
X154838095Y-59357200D02*
X154885714Y-59309580D01*
X154885714Y-59309580D02*
X154933333Y-59214342D01*
X154933333Y-59214342D02*
X154933333Y-59119104D01*
X154933333Y-59119104D02*
X154885714Y-59023866D01*
X154885714Y-59023866D02*
X154838095Y-58976247D01*
X154838095Y-58976247D02*
X154742857Y-58928628D01*
X154742857Y-58928628D02*
X154552381Y-58881009D01*
X154552381Y-58881009D02*
X154457143Y-58833390D01*
X154457143Y-58833390D02*
X154409524Y-58785771D01*
X154409524Y-58785771D02*
X154361905Y-58690533D01*
X154361905Y-58690533D02*
X154361905Y-58595295D01*
X154361905Y-58595295D02*
X154409524Y-58500057D01*
X154409524Y-58500057D02*
X154457143Y-58452438D01*
X154457143Y-58452438D02*
X154552381Y-58404819D01*
X154552381Y-58404819D02*
X154790476Y-58404819D01*
X154790476Y-58404819D02*
X154933333Y-58452438D01*
X155361905Y-58881009D02*
X155695238Y-58881009D01*
X155838095Y-59404819D02*
X155361905Y-59404819D01*
X155361905Y-59404819D02*
X155361905Y-58404819D01*
X155361905Y-58404819D02*
X155838095Y-58404819D01*
X156266667Y-59404819D02*
X156266667Y-58404819D01*
X156266667Y-58404819D02*
X156838095Y-59404819D01*
X156838095Y-59404819D02*
X156838095Y-58404819D01*
X157266667Y-58500057D02*
X157314286Y-58452438D01*
X157314286Y-58452438D02*
X157409524Y-58404819D01*
X157409524Y-58404819D02*
X157647619Y-58404819D01*
X157647619Y-58404819D02*
X157742857Y-58452438D01*
X157742857Y-58452438D02*
X157790476Y-58500057D01*
X157790476Y-58500057D02*
X157838095Y-58595295D01*
X157838095Y-58595295D02*
X157838095Y-58690533D01*
X157838095Y-58690533D02*
X157790476Y-58833390D01*
X157790476Y-58833390D02*
X157219048Y-59404819D01*
X157219048Y-59404819D02*
X157838095Y-59404819D01*
X180999659Y-135804279D02*
X180666326Y-135328088D01*
X180428231Y-135804279D02*
X180428231Y-134804279D01*
X180428231Y-134804279D02*
X180809183Y-134804279D01*
X180809183Y-134804279D02*
X180904421Y-134851898D01*
X180904421Y-134851898D02*
X180952040Y-134899517D01*
X180952040Y-134899517D02*
X180999659Y-134994755D01*
X180999659Y-134994755D02*
X180999659Y-135137612D01*
X180999659Y-135137612D02*
X180952040Y-135232850D01*
X180952040Y-135232850D02*
X180904421Y-135280469D01*
X180904421Y-135280469D02*
X180809183Y-135328088D01*
X180809183Y-135328088D02*
X180428231Y-135328088D01*
X181428231Y-135280469D02*
X181761564Y-135280469D01*
X181904421Y-135804279D02*
X181428231Y-135804279D01*
X181428231Y-135804279D02*
X181428231Y-134804279D01*
X181428231Y-134804279D02*
X181904421Y-134804279D01*
X182285374Y-135518564D02*
X182761564Y-135518564D01*
X182190136Y-135804279D02*
X182523469Y-134804279D01*
X182523469Y-134804279D02*
X182856802Y-135804279D01*
X183190136Y-135804279D02*
X183190136Y-134804279D01*
X183190136Y-134804279D02*
X183428231Y-134804279D01*
X183428231Y-134804279D02*
X183571088Y-134851898D01*
X183571088Y-134851898D02*
X183666326Y-134947136D01*
X183666326Y-134947136D02*
X183713945Y-135042374D01*
X183713945Y-135042374D02*
X183761564Y-135232850D01*
X183761564Y-135232850D02*
X183761564Y-135375707D01*
X183761564Y-135375707D02*
X183713945Y-135566183D01*
X183713945Y-135566183D02*
X183666326Y-135661421D01*
X183666326Y-135661421D02*
X183571088Y-135756660D01*
X183571088Y-135756660D02*
X183428231Y-135804279D01*
X183428231Y-135804279D02*
X183190136Y-135804279D01*
X184380612Y-135328088D02*
X184380612Y-135804279D01*
X184047279Y-134804279D02*
X184380612Y-135328088D01*
X184380612Y-135328088D02*
X184713945Y-134804279D01*
X187861905Y-129857200D02*
X188004762Y-129904819D01*
X188004762Y-129904819D02*
X188242857Y-129904819D01*
X188242857Y-129904819D02*
X188338095Y-129857200D01*
X188338095Y-129857200D02*
X188385714Y-129809580D01*
X188385714Y-129809580D02*
X188433333Y-129714342D01*
X188433333Y-129714342D02*
X188433333Y-129619104D01*
X188433333Y-129619104D02*
X188385714Y-129523866D01*
X188385714Y-129523866D02*
X188338095Y-129476247D01*
X188338095Y-129476247D02*
X188242857Y-129428628D01*
X188242857Y-129428628D02*
X188052381Y-129381009D01*
X188052381Y-129381009D02*
X187957143Y-129333390D01*
X187957143Y-129333390D02*
X187909524Y-129285771D01*
X187909524Y-129285771D02*
X187861905Y-129190533D01*
X187861905Y-129190533D02*
X187861905Y-129095295D01*
X187861905Y-129095295D02*
X187909524Y-129000057D01*
X187909524Y-129000057D02*
X187957143Y-128952438D01*
X187957143Y-128952438D02*
X188052381Y-128904819D01*
X188052381Y-128904819D02*
X188290476Y-128904819D01*
X188290476Y-128904819D02*
X188433333Y-128952438D01*
X188861905Y-129381009D02*
X189195238Y-129381009D01*
X189338095Y-129904819D02*
X188861905Y-129904819D01*
X188861905Y-129904819D02*
X188861905Y-128904819D01*
X188861905Y-128904819D02*
X189338095Y-128904819D01*
X189766667Y-129904819D02*
X189766667Y-128904819D01*
X189766667Y-128904819D02*
X190338095Y-129904819D01*
X190338095Y-129904819D02*
X190338095Y-128904819D01*
X191242857Y-129238152D02*
X191242857Y-129904819D01*
X191004762Y-128857200D02*
X190766667Y-129571485D01*
X190766667Y-129571485D02*
X191385714Y-129571485D01*
X122349565Y-129469279D02*
X122349565Y-128469279D01*
X122349565Y-128469279D02*
X122730517Y-128469279D01*
X122730517Y-128469279D02*
X122825755Y-128516898D01*
X122825755Y-128516898D02*
X122873374Y-128564517D01*
X122873374Y-128564517D02*
X122920993Y-128659755D01*
X122920993Y-128659755D02*
X122920993Y-128802612D01*
X122920993Y-128802612D02*
X122873374Y-128897850D01*
X122873374Y-128897850D02*
X122825755Y-128945469D01*
X122825755Y-128945469D02*
X122730517Y-128993088D01*
X122730517Y-128993088D02*
X122349565Y-128993088D01*
X123873374Y-129469279D02*
X123301946Y-129469279D01*
X123587660Y-129469279D02*
X123587660Y-128469279D01*
X123587660Y-128469279D02*
X123492422Y-128612136D01*
X123492422Y-128612136D02*
X123397184Y-128707374D01*
X123397184Y-128707374D02*
X123301946Y-128754993D01*
X159411905Y-59307200D02*
X159554762Y-59354819D01*
X159554762Y-59354819D02*
X159792857Y-59354819D01*
X159792857Y-59354819D02*
X159888095Y-59307200D01*
X159888095Y-59307200D02*
X159935714Y-59259580D01*
X159935714Y-59259580D02*
X159983333Y-59164342D01*
X159983333Y-59164342D02*
X159983333Y-59069104D01*
X159983333Y-59069104D02*
X159935714Y-58973866D01*
X159935714Y-58973866D02*
X159888095Y-58926247D01*
X159888095Y-58926247D02*
X159792857Y-58878628D01*
X159792857Y-58878628D02*
X159602381Y-58831009D01*
X159602381Y-58831009D02*
X159507143Y-58783390D01*
X159507143Y-58783390D02*
X159459524Y-58735771D01*
X159459524Y-58735771D02*
X159411905Y-58640533D01*
X159411905Y-58640533D02*
X159411905Y-58545295D01*
X159411905Y-58545295D02*
X159459524Y-58450057D01*
X159459524Y-58450057D02*
X159507143Y-58402438D01*
X159507143Y-58402438D02*
X159602381Y-58354819D01*
X159602381Y-58354819D02*
X159840476Y-58354819D01*
X159840476Y-58354819D02*
X159983333Y-58402438D01*
X160411905Y-58831009D02*
X160745238Y-58831009D01*
X160888095Y-59354819D02*
X160411905Y-59354819D01*
X160411905Y-59354819D02*
X160411905Y-58354819D01*
X160411905Y-58354819D02*
X160888095Y-58354819D01*
X161316667Y-59354819D02*
X161316667Y-58354819D01*
X161316667Y-58354819D02*
X161888095Y-59354819D01*
X161888095Y-59354819D02*
X161888095Y-58354819D01*
X162269048Y-58354819D02*
X162888095Y-58354819D01*
X162888095Y-58354819D02*
X162554762Y-58735771D01*
X162554762Y-58735771D02*
X162697619Y-58735771D01*
X162697619Y-58735771D02*
X162792857Y-58783390D01*
X162792857Y-58783390D02*
X162840476Y-58831009D01*
X162840476Y-58831009D02*
X162888095Y-58926247D01*
X162888095Y-58926247D02*
X162888095Y-59164342D01*
X162888095Y-59164342D02*
X162840476Y-59259580D01*
X162840476Y-59259580D02*
X162792857Y-59307200D01*
X162792857Y-59307200D02*
X162697619Y-59354819D01*
X162697619Y-59354819D02*
X162411905Y-59354819D01*
X162411905Y-59354819D02*
X162316667Y-59307200D01*
X162316667Y-59307200D02*
X162269048Y-59259580D01*
X164411905Y-59357200D02*
X164554762Y-59404819D01*
X164554762Y-59404819D02*
X164792857Y-59404819D01*
X164792857Y-59404819D02*
X164888095Y-59357200D01*
X164888095Y-59357200D02*
X164935714Y-59309580D01*
X164935714Y-59309580D02*
X164983333Y-59214342D01*
X164983333Y-59214342D02*
X164983333Y-59119104D01*
X164983333Y-59119104D02*
X164935714Y-59023866D01*
X164935714Y-59023866D02*
X164888095Y-58976247D01*
X164888095Y-58976247D02*
X164792857Y-58928628D01*
X164792857Y-58928628D02*
X164602381Y-58881009D01*
X164602381Y-58881009D02*
X164507143Y-58833390D01*
X164507143Y-58833390D02*
X164459524Y-58785771D01*
X164459524Y-58785771D02*
X164411905Y-58690533D01*
X164411905Y-58690533D02*
X164411905Y-58595295D01*
X164411905Y-58595295D02*
X164459524Y-58500057D01*
X164459524Y-58500057D02*
X164507143Y-58452438D01*
X164507143Y-58452438D02*
X164602381Y-58404819D01*
X164602381Y-58404819D02*
X164840476Y-58404819D01*
X164840476Y-58404819D02*
X164983333Y-58452438D01*
X165411905Y-58881009D02*
X165745238Y-58881009D01*
X165888095Y-59404819D02*
X165411905Y-59404819D01*
X165411905Y-59404819D02*
X165411905Y-58404819D01*
X165411905Y-58404819D02*
X165888095Y-58404819D01*
X166316667Y-59404819D02*
X166316667Y-58404819D01*
X166316667Y-58404819D02*
X166888095Y-59404819D01*
X166888095Y-59404819D02*
X166888095Y-58404819D01*
X167792857Y-58738152D02*
X167792857Y-59404819D01*
X167554762Y-58357200D02*
X167316667Y-59071485D01*
X167316667Y-59071485D02*
X167935714Y-59071485D01*
X119190476Y-58454819D02*
X119523809Y-59454819D01*
X119523809Y-59454819D02*
X119857142Y-58454819D01*
X120761904Y-59359580D02*
X120714285Y-59407200D01*
X120714285Y-59407200D02*
X120571428Y-59454819D01*
X120571428Y-59454819D02*
X120476190Y-59454819D01*
X120476190Y-59454819D02*
X120333333Y-59407200D01*
X120333333Y-59407200D02*
X120238095Y-59311961D01*
X120238095Y-59311961D02*
X120190476Y-59216723D01*
X120190476Y-59216723D02*
X120142857Y-59026247D01*
X120142857Y-59026247D02*
X120142857Y-58883390D01*
X120142857Y-58883390D02*
X120190476Y-58692914D01*
X120190476Y-58692914D02*
X120238095Y-58597676D01*
X120238095Y-58597676D02*
X120333333Y-58502438D01*
X120333333Y-58502438D02*
X120476190Y-58454819D01*
X120476190Y-58454819D02*
X120571428Y-58454819D01*
X120571428Y-58454819D02*
X120714285Y-58502438D01*
X120714285Y-58502438D02*
X120761904Y-58550057D01*
X121761904Y-59359580D02*
X121714285Y-59407200D01*
X121714285Y-59407200D02*
X121571428Y-59454819D01*
X121571428Y-59454819D02*
X121476190Y-59454819D01*
X121476190Y-59454819D02*
X121333333Y-59407200D01*
X121333333Y-59407200D02*
X121238095Y-59311961D01*
X121238095Y-59311961D02*
X121190476Y-59216723D01*
X121190476Y-59216723D02*
X121142857Y-59026247D01*
X121142857Y-59026247D02*
X121142857Y-58883390D01*
X121142857Y-58883390D02*
X121190476Y-58692914D01*
X121190476Y-58692914D02*
X121238095Y-58597676D01*
X121238095Y-58597676D02*
X121333333Y-58502438D01*
X121333333Y-58502438D02*
X121476190Y-58454819D01*
X121476190Y-58454819D02*
X121571428Y-58454819D01*
X121571428Y-58454819D02*
X121714285Y-58502438D01*
X121714285Y-58502438D02*
X121761904Y-58550057D01*
X122714285Y-59454819D02*
X122142857Y-59454819D01*
X122428571Y-59454819D02*
X122428571Y-58454819D01*
X122428571Y-58454819D02*
X122333333Y-58597676D01*
X122333333Y-58597676D02*
X122238095Y-58692914D01*
X122238095Y-58692914D02*
X122142857Y-58740533D01*
X142598136Y-128469279D02*
X143264802Y-128469279D01*
X143264802Y-128469279D02*
X142598136Y-129469279D01*
X142598136Y-129469279D02*
X143264802Y-129469279D01*
X143550517Y-128469279D02*
X144169564Y-128469279D01*
X144169564Y-128469279D02*
X143836231Y-128850231D01*
X143836231Y-128850231D02*
X143979088Y-128850231D01*
X143979088Y-128850231D02*
X144074326Y-128897850D01*
X144074326Y-128897850D02*
X144121945Y-128945469D01*
X144121945Y-128945469D02*
X144169564Y-129040707D01*
X144169564Y-129040707D02*
X144169564Y-129278802D01*
X144169564Y-129278802D02*
X144121945Y-129374040D01*
X144121945Y-129374040D02*
X144074326Y-129421660D01*
X144074326Y-129421660D02*
X143979088Y-129469279D01*
X143979088Y-129469279D02*
X143693374Y-129469279D01*
X143693374Y-129469279D02*
X143598136Y-129421660D01*
X143598136Y-129421660D02*
X143550517Y-129374040D01*
X145614285Y-59486580D02*
X145566666Y-59534200D01*
X145566666Y-59534200D02*
X145423809Y-59581819D01*
X145423809Y-59581819D02*
X145328571Y-59581819D01*
X145328571Y-59581819D02*
X145185714Y-59534200D01*
X145185714Y-59534200D02*
X145090476Y-59438961D01*
X145090476Y-59438961D02*
X145042857Y-59343723D01*
X145042857Y-59343723D02*
X144995238Y-59153247D01*
X144995238Y-59153247D02*
X144995238Y-59010390D01*
X144995238Y-59010390D02*
X145042857Y-58819914D01*
X145042857Y-58819914D02*
X145090476Y-58724676D01*
X145090476Y-58724676D02*
X145185714Y-58629438D01*
X145185714Y-58629438D02*
X145328571Y-58581819D01*
X145328571Y-58581819D02*
X145423809Y-58581819D01*
X145423809Y-58581819D02*
X145566666Y-58629438D01*
X145566666Y-58629438D02*
X145614285Y-58677057D01*
X146233333Y-58581819D02*
X146423809Y-58581819D01*
X146423809Y-58581819D02*
X146519047Y-58629438D01*
X146519047Y-58629438D02*
X146614285Y-58724676D01*
X146614285Y-58724676D02*
X146661904Y-58915152D01*
X146661904Y-58915152D02*
X146661904Y-59248485D01*
X146661904Y-59248485D02*
X146614285Y-59438961D01*
X146614285Y-59438961D02*
X146519047Y-59534200D01*
X146519047Y-59534200D02*
X146423809Y-59581819D01*
X146423809Y-59581819D02*
X146233333Y-59581819D01*
X146233333Y-59581819D02*
X146138095Y-59534200D01*
X146138095Y-59534200D02*
X146042857Y-59438961D01*
X146042857Y-59438961D02*
X145995238Y-59248485D01*
X145995238Y-59248485D02*
X145995238Y-58915152D01*
X145995238Y-58915152D02*
X146042857Y-58724676D01*
X146042857Y-58724676D02*
X146138095Y-58629438D01*
X146138095Y-58629438D02*
X146233333Y-58581819D01*
X147090476Y-59581819D02*
X147090476Y-58581819D01*
X147090476Y-58581819D02*
X147423809Y-59296104D01*
X147423809Y-59296104D02*
X147757142Y-58581819D01*
X147757142Y-58581819D02*
X147757142Y-59581819D01*
X147678136Y-128469279D02*
X148344802Y-128469279D01*
X148344802Y-128469279D02*
X147678136Y-129469279D01*
X147678136Y-129469279D02*
X148344802Y-129469279D01*
X149154326Y-128802612D02*
X149154326Y-129469279D01*
X148916231Y-128421660D02*
X148678136Y-129135945D01*
X148678136Y-129135945D02*
X149297183Y-129135945D01*
D11*
X175485714Y-66138855D02*
X175219047Y-65757902D01*
X175028571Y-66138855D02*
X175028571Y-65338855D01*
X175028571Y-65338855D02*
X175333333Y-65338855D01*
X175333333Y-65338855D02*
X175409523Y-65376950D01*
X175409523Y-65376950D02*
X175447618Y-65415045D01*
X175447618Y-65415045D02*
X175485714Y-65491236D01*
X175485714Y-65491236D02*
X175485714Y-65605521D01*
X175485714Y-65605521D02*
X175447618Y-65681712D01*
X175447618Y-65681712D02*
X175409523Y-65719807D01*
X175409523Y-65719807D02*
X175333333Y-65757902D01*
X175333333Y-65757902D02*
X175028571Y-65757902D01*
X175752380Y-65338855D02*
X176247618Y-65338855D01*
X176247618Y-65338855D02*
X175980952Y-65643617D01*
X175980952Y-65643617D02*
X176095237Y-65643617D01*
X176095237Y-65643617D02*
X176171428Y-65681712D01*
X176171428Y-65681712D02*
X176209523Y-65719807D01*
X176209523Y-65719807D02*
X176247618Y-65795998D01*
X176247618Y-65795998D02*
X176247618Y-65986474D01*
X176247618Y-65986474D02*
X176209523Y-66062664D01*
X176209523Y-66062664D02*
X176171428Y-66100760D01*
X176171428Y-66100760D02*
X176095237Y-66138855D01*
X176095237Y-66138855D02*
X175866666Y-66138855D01*
X175866666Y-66138855D02*
X175790475Y-66100760D01*
X175790475Y-66100760D02*
X175752380Y-66062664D01*
X176628571Y-66138855D02*
X176780952Y-66138855D01*
X176780952Y-66138855D02*
X176857142Y-66100760D01*
X176857142Y-66100760D02*
X176895238Y-66062664D01*
X176895238Y-66062664D02*
X176971428Y-65948379D01*
X176971428Y-65948379D02*
X177009523Y-65795998D01*
X177009523Y-65795998D02*
X177009523Y-65491236D01*
X177009523Y-65491236D02*
X176971428Y-65415045D01*
X176971428Y-65415045D02*
X176933333Y-65376950D01*
X176933333Y-65376950D02*
X176857142Y-65338855D01*
X176857142Y-65338855D02*
X176704761Y-65338855D01*
X176704761Y-65338855D02*
X176628571Y-65376950D01*
X176628571Y-65376950D02*
X176590476Y-65415045D01*
X176590476Y-65415045D02*
X176552380Y-65491236D01*
X176552380Y-65491236D02*
X176552380Y-65681712D01*
X176552380Y-65681712D02*
X176590476Y-65757902D01*
X176590476Y-65757902D02*
X176628571Y-65795998D01*
X176628571Y-65795998D02*
X176704761Y-65834093D01*
X176704761Y-65834093D02*
X176857142Y-65834093D01*
X176857142Y-65834093D02*
X176933333Y-65795998D01*
X176933333Y-65795998D02*
X176971428Y-65757902D01*
X176971428Y-65757902D02*
X177009523Y-65681712D01*
D10*
X151904819Y-95142857D02*
X151428628Y-95476190D01*
X151904819Y-95714285D02*
X150904819Y-95714285D01*
X150904819Y-95714285D02*
X150904819Y-95333333D01*
X150904819Y-95333333D02*
X150952438Y-95238095D01*
X150952438Y-95238095D02*
X151000057Y-95190476D01*
X151000057Y-95190476D02*
X151095295Y-95142857D01*
X151095295Y-95142857D02*
X151238152Y-95142857D01*
X151238152Y-95142857D02*
X151333390Y-95190476D01*
X151333390Y-95190476D02*
X151381009Y-95238095D01*
X151381009Y-95238095D02*
X151428628Y-95333333D01*
X151428628Y-95333333D02*
X151428628Y-95714285D01*
X151000057Y-94761904D02*
X150952438Y-94714285D01*
X150952438Y-94714285D02*
X150904819Y-94619047D01*
X150904819Y-94619047D02*
X150904819Y-94380952D01*
X150904819Y-94380952D02*
X150952438Y-94285714D01*
X150952438Y-94285714D02*
X151000057Y-94238095D01*
X151000057Y-94238095D02*
X151095295Y-94190476D01*
X151095295Y-94190476D02*
X151190533Y-94190476D01*
X151190533Y-94190476D02*
X151333390Y-94238095D01*
X151333390Y-94238095D02*
X151904819Y-94809523D01*
X151904819Y-94809523D02*
X151904819Y-94190476D01*
X150904819Y-93333333D02*
X150904819Y-93523809D01*
X150904819Y-93523809D02*
X150952438Y-93619047D01*
X150952438Y-93619047D02*
X151000057Y-93666666D01*
X151000057Y-93666666D02*
X151142914Y-93761904D01*
X151142914Y-93761904D02*
X151333390Y-93809523D01*
X151333390Y-93809523D02*
X151714342Y-93809523D01*
X151714342Y-93809523D02*
X151809580Y-93761904D01*
X151809580Y-93761904D02*
X151857200Y-93714285D01*
X151857200Y-93714285D02*
X151904819Y-93619047D01*
X151904819Y-93619047D02*
X151904819Y-93428571D01*
X151904819Y-93428571D02*
X151857200Y-93333333D01*
X151857200Y-93333333D02*
X151809580Y-93285714D01*
X151809580Y-93285714D02*
X151714342Y-93238095D01*
X151714342Y-93238095D02*
X151476247Y-93238095D01*
X151476247Y-93238095D02*
X151381009Y-93285714D01*
X151381009Y-93285714D02*
X151333390Y-93333333D01*
X151333390Y-93333333D02*
X151285771Y-93428571D01*
X151285771Y-93428571D02*
X151285771Y-93619047D01*
X151285771Y-93619047D02*
X151333390Y-93714285D01*
X151333390Y-93714285D02*
X151381009Y-93761904D01*
X151381009Y-93761904D02*
X151476247Y-93809523D01*
X153807142Y-70479819D02*
X153473809Y-70003628D01*
X153235714Y-70479819D02*
X153235714Y-69479819D01*
X153235714Y-69479819D02*
X153616666Y-69479819D01*
X153616666Y-69479819D02*
X153711904Y-69527438D01*
X153711904Y-69527438D02*
X153759523Y-69575057D01*
X153759523Y-69575057D02*
X153807142Y-69670295D01*
X153807142Y-69670295D02*
X153807142Y-69813152D01*
X153807142Y-69813152D02*
X153759523Y-69908390D01*
X153759523Y-69908390D02*
X153711904Y-69956009D01*
X153711904Y-69956009D02*
X153616666Y-70003628D01*
X153616666Y-70003628D02*
X153235714Y-70003628D01*
X154140476Y-69479819D02*
X154759523Y-69479819D01*
X154759523Y-69479819D02*
X154426190Y-69860771D01*
X154426190Y-69860771D02*
X154569047Y-69860771D01*
X154569047Y-69860771D02*
X154664285Y-69908390D01*
X154664285Y-69908390D02*
X154711904Y-69956009D01*
X154711904Y-69956009D02*
X154759523Y-70051247D01*
X154759523Y-70051247D02*
X154759523Y-70289342D01*
X154759523Y-70289342D02*
X154711904Y-70384580D01*
X154711904Y-70384580D02*
X154664285Y-70432200D01*
X154664285Y-70432200D02*
X154569047Y-70479819D01*
X154569047Y-70479819D02*
X154283333Y-70479819D01*
X154283333Y-70479819D02*
X154188095Y-70432200D01*
X154188095Y-70432200D02*
X154140476Y-70384580D01*
X155616666Y-69479819D02*
X155426190Y-69479819D01*
X155426190Y-69479819D02*
X155330952Y-69527438D01*
X155330952Y-69527438D02*
X155283333Y-69575057D01*
X155283333Y-69575057D02*
X155188095Y-69717914D01*
X155188095Y-69717914D02*
X155140476Y-69908390D01*
X155140476Y-69908390D02*
X155140476Y-70289342D01*
X155140476Y-70289342D02*
X155188095Y-70384580D01*
X155188095Y-70384580D02*
X155235714Y-70432200D01*
X155235714Y-70432200D02*
X155330952Y-70479819D01*
X155330952Y-70479819D02*
X155521428Y-70479819D01*
X155521428Y-70479819D02*
X155616666Y-70432200D01*
X155616666Y-70432200D02*
X155664285Y-70384580D01*
X155664285Y-70384580D02*
X155711904Y-70289342D01*
X155711904Y-70289342D02*
X155711904Y-70051247D01*
X155711904Y-70051247D02*
X155664285Y-69956009D01*
X155664285Y-69956009D02*
X155616666Y-69908390D01*
X155616666Y-69908390D02*
X155521428Y-69860771D01*
X155521428Y-69860771D02*
X155330952Y-69860771D01*
X155330952Y-69860771D02*
X155235714Y-69908390D01*
X155235714Y-69908390D02*
X155188095Y-69956009D01*
X155188095Y-69956009D02*
X155140476Y-70051247D01*
X193204819Y-66192857D02*
X192728628Y-66526190D01*
X193204819Y-66764285D02*
X192204819Y-66764285D01*
X192204819Y-66764285D02*
X192204819Y-66383333D01*
X192204819Y-66383333D02*
X192252438Y-66288095D01*
X192252438Y-66288095D02*
X192300057Y-66240476D01*
X192300057Y-66240476D02*
X192395295Y-66192857D01*
X192395295Y-66192857D02*
X192538152Y-66192857D01*
X192538152Y-66192857D02*
X192633390Y-66240476D01*
X192633390Y-66240476D02*
X192681009Y-66288095D01*
X192681009Y-66288095D02*
X192728628Y-66383333D01*
X192728628Y-66383333D02*
X192728628Y-66764285D01*
X192204819Y-65859523D02*
X192204819Y-65240476D01*
X192204819Y-65240476D02*
X192585771Y-65573809D01*
X192585771Y-65573809D02*
X192585771Y-65430952D01*
X192585771Y-65430952D02*
X192633390Y-65335714D01*
X192633390Y-65335714D02*
X192681009Y-65288095D01*
X192681009Y-65288095D02*
X192776247Y-65240476D01*
X192776247Y-65240476D02*
X193014342Y-65240476D01*
X193014342Y-65240476D02*
X193109580Y-65288095D01*
X193109580Y-65288095D02*
X193157200Y-65335714D01*
X193157200Y-65335714D02*
X193204819Y-65430952D01*
X193204819Y-65430952D02*
X193204819Y-65716666D01*
X193204819Y-65716666D02*
X193157200Y-65811904D01*
X193157200Y-65811904D02*
X193109580Y-65859523D01*
X192204819Y-64907142D02*
X192204819Y-64288095D01*
X192204819Y-64288095D02*
X192585771Y-64621428D01*
X192585771Y-64621428D02*
X192585771Y-64478571D01*
X192585771Y-64478571D02*
X192633390Y-64383333D01*
X192633390Y-64383333D02*
X192681009Y-64335714D01*
X192681009Y-64335714D02*
X192776247Y-64288095D01*
X192776247Y-64288095D02*
X193014342Y-64288095D01*
X193014342Y-64288095D02*
X193109580Y-64335714D01*
X193109580Y-64335714D02*
X193157200Y-64383333D01*
X193157200Y-64383333D02*
X193204819Y-64478571D01*
X193204819Y-64478571D02*
X193204819Y-64764285D01*
X193204819Y-64764285D02*
X193157200Y-64859523D01*
X193157200Y-64859523D02*
X193109580Y-64907142D01*
X94009819Y-76651904D02*
X94819342Y-76651904D01*
X94819342Y-76651904D02*
X94914580Y-76604285D01*
X94914580Y-76604285D02*
X94962200Y-76556666D01*
X94962200Y-76556666D02*
X95009819Y-76461428D01*
X95009819Y-76461428D02*
X95009819Y-76270952D01*
X95009819Y-76270952D02*
X94962200Y-76175714D01*
X94962200Y-76175714D02*
X94914580Y-76128095D01*
X94914580Y-76128095D02*
X94819342Y-76080476D01*
X94819342Y-76080476D02*
X94009819Y-76080476D01*
X95009819Y-75080476D02*
X95009819Y-75651904D01*
X95009819Y-75366190D02*
X94009819Y-75366190D01*
X94009819Y-75366190D02*
X94152676Y-75461428D01*
X94152676Y-75461428D02*
X94247914Y-75556666D01*
X94247914Y-75556666D02*
X94295533Y-75651904D01*
X136404819Y-70872619D02*
X135928628Y-71205952D01*
X136404819Y-71444047D02*
X135404819Y-71444047D01*
X135404819Y-71444047D02*
X135404819Y-71063095D01*
X135404819Y-71063095D02*
X135452438Y-70967857D01*
X135452438Y-70967857D02*
X135500057Y-70920238D01*
X135500057Y-70920238D02*
X135595295Y-70872619D01*
X135595295Y-70872619D02*
X135738152Y-70872619D01*
X135738152Y-70872619D02*
X135833390Y-70920238D01*
X135833390Y-70920238D02*
X135881009Y-70967857D01*
X135881009Y-70967857D02*
X135928628Y-71063095D01*
X135928628Y-71063095D02*
X135928628Y-71444047D01*
X135404819Y-70586904D02*
X135404819Y-70015476D01*
X136404819Y-70301190D02*
X135404819Y-70301190D01*
X136404819Y-69158333D02*
X136404819Y-69729761D01*
X136404819Y-69444047D02*
X135404819Y-69444047D01*
X135404819Y-69444047D02*
X135547676Y-69539285D01*
X135547676Y-69539285D02*
X135642914Y-69634523D01*
X135642914Y-69634523D02*
X135690533Y-69729761D01*
X180666666Y-67874819D02*
X180666666Y-68589104D01*
X180666666Y-68589104D02*
X180619047Y-68731961D01*
X180619047Y-68731961D02*
X180523809Y-68827200D01*
X180523809Y-68827200D02*
X180380952Y-68874819D01*
X180380952Y-68874819D02*
X180285714Y-68874819D01*
X181095238Y-67970057D02*
X181142857Y-67922438D01*
X181142857Y-67922438D02*
X181238095Y-67874819D01*
X181238095Y-67874819D02*
X181476190Y-67874819D01*
X181476190Y-67874819D02*
X181571428Y-67922438D01*
X181571428Y-67922438D02*
X181619047Y-67970057D01*
X181619047Y-67970057D02*
X181666666Y-68065295D01*
X181666666Y-68065295D02*
X181666666Y-68160533D01*
X181666666Y-68160533D02*
X181619047Y-68303390D01*
X181619047Y-68303390D02*
X181047619Y-68874819D01*
X181047619Y-68874819D02*
X181666666Y-68874819D01*
X174419047Y-131154819D02*
X174419047Y-130154819D01*
X174419047Y-130154819D02*
X174657142Y-130154819D01*
X174657142Y-130154819D02*
X174799999Y-130202438D01*
X174799999Y-130202438D02*
X174895237Y-130297676D01*
X174895237Y-130297676D02*
X174942856Y-130392914D01*
X174942856Y-130392914D02*
X174990475Y-130583390D01*
X174990475Y-130583390D02*
X174990475Y-130726247D01*
X174990475Y-130726247D02*
X174942856Y-130916723D01*
X174942856Y-130916723D02*
X174895237Y-131011961D01*
X174895237Y-131011961D02*
X174799999Y-131107200D01*
X174799999Y-131107200D02*
X174657142Y-131154819D01*
X174657142Y-131154819D02*
X174419047Y-131154819D01*
X175561904Y-131154819D02*
X175466666Y-131107200D01*
X175466666Y-131107200D02*
X175419047Y-131011961D01*
X175419047Y-131011961D02*
X175419047Y-130154819D01*
X176323809Y-131107200D02*
X176228571Y-131154819D01*
X176228571Y-131154819D02*
X176038095Y-131154819D01*
X176038095Y-131154819D02*
X175942857Y-131107200D01*
X175942857Y-131107200D02*
X175895238Y-131011961D01*
X175895238Y-131011961D02*
X175895238Y-130631009D01*
X175895238Y-130631009D02*
X175942857Y-130535771D01*
X175942857Y-130535771D02*
X176038095Y-130488152D01*
X176038095Y-130488152D02*
X176228571Y-130488152D01*
X176228571Y-130488152D02*
X176323809Y-130535771D01*
X176323809Y-130535771D02*
X176371428Y-130631009D01*
X176371428Y-130631009D02*
X176371428Y-130726247D01*
X176371428Y-130726247D02*
X175895238Y-130821485D01*
X177228571Y-131154819D02*
X177228571Y-130154819D01*
X177228571Y-131107200D02*
X177133333Y-131154819D01*
X177133333Y-131154819D02*
X176942857Y-131154819D01*
X176942857Y-131154819D02*
X176847619Y-131107200D01*
X176847619Y-131107200D02*
X176800000Y-131059580D01*
X176800000Y-131059580D02*
X176752381Y-130964342D01*
X176752381Y-130964342D02*
X176752381Y-130678628D01*
X176752381Y-130678628D02*
X176800000Y-130583390D01*
X176800000Y-130583390D02*
X176847619Y-130535771D01*
X176847619Y-130535771D02*
X176942857Y-130488152D01*
X176942857Y-130488152D02*
X177133333Y-130488152D01*
X177133333Y-130488152D02*
X177228571Y-130535771D01*
X178228571Y-131154819D02*
X177657143Y-131154819D01*
X177942857Y-131154819D02*
X177942857Y-130154819D01*
X177942857Y-130154819D02*
X177847619Y-130297676D01*
X177847619Y-130297676D02*
X177752381Y-130392914D01*
X177752381Y-130392914D02*
X177657143Y-130440533D01*
X196404819Y-66192857D02*
X195928628Y-66526190D01*
X196404819Y-66764285D02*
X195404819Y-66764285D01*
X195404819Y-66764285D02*
X195404819Y-66383333D01*
X195404819Y-66383333D02*
X195452438Y-66288095D01*
X195452438Y-66288095D02*
X195500057Y-66240476D01*
X195500057Y-66240476D02*
X195595295Y-66192857D01*
X195595295Y-66192857D02*
X195738152Y-66192857D01*
X195738152Y-66192857D02*
X195833390Y-66240476D01*
X195833390Y-66240476D02*
X195881009Y-66288095D01*
X195881009Y-66288095D02*
X195928628Y-66383333D01*
X195928628Y-66383333D02*
X195928628Y-66764285D01*
X195404819Y-65859523D02*
X195404819Y-65240476D01*
X195404819Y-65240476D02*
X195785771Y-65573809D01*
X195785771Y-65573809D02*
X195785771Y-65430952D01*
X195785771Y-65430952D02*
X195833390Y-65335714D01*
X195833390Y-65335714D02*
X195881009Y-65288095D01*
X195881009Y-65288095D02*
X195976247Y-65240476D01*
X195976247Y-65240476D02*
X196214342Y-65240476D01*
X196214342Y-65240476D02*
X196309580Y-65288095D01*
X196309580Y-65288095D02*
X196357200Y-65335714D01*
X196357200Y-65335714D02*
X196404819Y-65430952D01*
X196404819Y-65430952D02*
X196404819Y-65716666D01*
X196404819Y-65716666D02*
X196357200Y-65811904D01*
X196357200Y-65811904D02*
X196309580Y-65859523D01*
X195738152Y-64383333D02*
X196404819Y-64383333D01*
X195357200Y-64621428D02*
X196071485Y-64859523D01*
X196071485Y-64859523D02*
X196071485Y-64240476D01*
X163454819Y-95142857D02*
X162978628Y-95476190D01*
X163454819Y-95714285D02*
X162454819Y-95714285D01*
X162454819Y-95714285D02*
X162454819Y-95333333D01*
X162454819Y-95333333D02*
X162502438Y-95238095D01*
X162502438Y-95238095D02*
X162550057Y-95190476D01*
X162550057Y-95190476D02*
X162645295Y-95142857D01*
X162645295Y-95142857D02*
X162788152Y-95142857D01*
X162788152Y-95142857D02*
X162883390Y-95190476D01*
X162883390Y-95190476D02*
X162931009Y-95238095D01*
X162931009Y-95238095D02*
X162978628Y-95333333D01*
X162978628Y-95333333D02*
X162978628Y-95714285D01*
X162550057Y-94761904D02*
X162502438Y-94714285D01*
X162502438Y-94714285D02*
X162454819Y-94619047D01*
X162454819Y-94619047D02*
X162454819Y-94380952D01*
X162454819Y-94380952D02*
X162502438Y-94285714D01*
X162502438Y-94285714D02*
X162550057Y-94238095D01*
X162550057Y-94238095D02*
X162645295Y-94190476D01*
X162645295Y-94190476D02*
X162740533Y-94190476D01*
X162740533Y-94190476D02*
X162883390Y-94238095D01*
X162883390Y-94238095D02*
X163454819Y-94809523D01*
X163454819Y-94809523D02*
X163454819Y-94190476D01*
X162883390Y-93619047D02*
X162835771Y-93714285D01*
X162835771Y-93714285D02*
X162788152Y-93761904D01*
X162788152Y-93761904D02*
X162692914Y-93809523D01*
X162692914Y-93809523D02*
X162645295Y-93809523D01*
X162645295Y-93809523D02*
X162550057Y-93761904D01*
X162550057Y-93761904D02*
X162502438Y-93714285D01*
X162502438Y-93714285D02*
X162454819Y-93619047D01*
X162454819Y-93619047D02*
X162454819Y-93428571D01*
X162454819Y-93428571D02*
X162502438Y-93333333D01*
X162502438Y-93333333D02*
X162550057Y-93285714D01*
X162550057Y-93285714D02*
X162645295Y-93238095D01*
X162645295Y-93238095D02*
X162692914Y-93238095D01*
X162692914Y-93238095D02*
X162788152Y-93285714D01*
X162788152Y-93285714D02*
X162835771Y-93333333D01*
X162835771Y-93333333D02*
X162883390Y-93428571D01*
X162883390Y-93428571D02*
X162883390Y-93619047D01*
X162883390Y-93619047D02*
X162931009Y-93714285D01*
X162931009Y-93714285D02*
X162978628Y-93761904D01*
X162978628Y-93761904D02*
X163073866Y-93809523D01*
X163073866Y-93809523D02*
X163264342Y-93809523D01*
X163264342Y-93809523D02*
X163359580Y-93761904D01*
X163359580Y-93761904D02*
X163407200Y-93714285D01*
X163407200Y-93714285D02*
X163454819Y-93619047D01*
X163454819Y-93619047D02*
X163454819Y-93428571D01*
X163454819Y-93428571D02*
X163407200Y-93333333D01*
X163407200Y-93333333D02*
X163359580Y-93285714D01*
X163359580Y-93285714D02*
X163264342Y-93238095D01*
X163264342Y-93238095D02*
X163073866Y-93238095D01*
X163073866Y-93238095D02*
X162978628Y-93285714D01*
X162978628Y-93285714D02*
X162931009Y-93333333D01*
X162931009Y-93333333D02*
X162883390Y-93428571D01*
X180809523Y-127104819D02*
X180476190Y-126628628D01*
X180238095Y-127104819D02*
X180238095Y-126104819D01*
X180238095Y-126104819D02*
X180619047Y-126104819D01*
X180619047Y-126104819D02*
X180714285Y-126152438D01*
X180714285Y-126152438D02*
X180761904Y-126200057D01*
X180761904Y-126200057D02*
X180809523Y-126295295D01*
X180809523Y-126295295D02*
X180809523Y-126438152D01*
X180809523Y-126438152D02*
X180761904Y-126533390D01*
X180761904Y-126533390D02*
X180714285Y-126581009D01*
X180714285Y-126581009D02*
X180619047Y-126628628D01*
X180619047Y-126628628D02*
X180238095Y-126628628D01*
X181000000Y-127200057D02*
X181761904Y-127200057D01*
X182142857Y-127104819D02*
X182047619Y-127057200D01*
X182047619Y-127057200D02*
X182000000Y-126961961D01*
X182000000Y-126961961D02*
X182000000Y-126104819D01*
X182904762Y-127057200D02*
X182809524Y-127104819D01*
X182809524Y-127104819D02*
X182619048Y-127104819D01*
X182619048Y-127104819D02*
X182523810Y-127057200D01*
X182523810Y-127057200D02*
X182476191Y-126961961D01*
X182476191Y-126961961D02*
X182476191Y-126581009D01*
X182476191Y-126581009D02*
X182523810Y-126485771D01*
X182523810Y-126485771D02*
X182619048Y-126438152D01*
X182619048Y-126438152D02*
X182809524Y-126438152D01*
X182809524Y-126438152D02*
X182904762Y-126485771D01*
X182904762Y-126485771D02*
X182952381Y-126581009D01*
X182952381Y-126581009D02*
X182952381Y-126676247D01*
X182952381Y-126676247D02*
X182476191Y-126771485D01*
X183809524Y-127104819D02*
X183809524Y-126104819D01*
X183809524Y-127057200D02*
X183714286Y-127104819D01*
X183714286Y-127104819D02*
X183523810Y-127104819D01*
X183523810Y-127104819D02*
X183428572Y-127057200D01*
X183428572Y-127057200D02*
X183380953Y-127009580D01*
X183380953Y-127009580D02*
X183333334Y-126914342D01*
X183333334Y-126914342D02*
X183333334Y-126628628D01*
X183333334Y-126628628D02*
X183380953Y-126533390D01*
X183380953Y-126533390D02*
X183428572Y-126485771D01*
X183428572Y-126485771D02*
X183523810Y-126438152D01*
X183523810Y-126438152D02*
X183714286Y-126438152D01*
X183714286Y-126438152D02*
X183809524Y-126485771D01*
X184238096Y-126200057D02*
X184285715Y-126152438D01*
X184285715Y-126152438D02*
X184380953Y-126104819D01*
X184380953Y-126104819D02*
X184619048Y-126104819D01*
X184619048Y-126104819D02*
X184714286Y-126152438D01*
X184714286Y-126152438D02*
X184761905Y-126200057D01*
X184761905Y-126200057D02*
X184809524Y-126295295D01*
X184809524Y-126295295D02*
X184809524Y-126390533D01*
X184809524Y-126390533D02*
X184761905Y-126533390D01*
X184761905Y-126533390D02*
X184190477Y-127104819D01*
X184190477Y-127104819D02*
X184809524Y-127104819D01*
X147782142Y-70679819D02*
X147448809Y-70203628D01*
X147210714Y-70679819D02*
X147210714Y-69679819D01*
X147210714Y-69679819D02*
X147591666Y-69679819D01*
X147591666Y-69679819D02*
X147686904Y-69727438D01*
X147686904Y-69727438D02*
X147734523Y-69775057D01*
X147734523Y-69775057D02*
X147782142Y-69870295D01*
X147782142Y-69870295D02*
X147782142Y-70013152D01*
X147782142Y-70013152D02*
X147734523Y-70108390D01*
X147734523Y-70108390D02*
X147686904Y-70156009D01*
X147686904Y-70156009D02*
X147591666Y-70203628D01*
X147591666Y-70203628D02*
X147210714Y-70203628D01*
X148115476Y-69679819D02*
X148734523Y-69679819D01*
X148734523Y-69679819D02*
X148401190Y-70060771D01*
X148401190Y-70060771D02*
X148544047Y-70060771D01*
X148544047Y-70060771D02*
X148639285Y-70108390D01*
X148639285Y-70108390D02*
X148686904Y-70156009D01*
X148686904Y-70156009D02*
X148734523Y-70251247D01*
X148734523Y-70251247D02*
X148734523Y-70489342D01*
X148734523Y-70489342D02*
X148686904Y-70584580D01*
X148686904Y-70584580D02*
X148639285Y-70632200D01*
X148639285Y-70632200D02*
X148544047Y-70679819D01*
X148544047Y-70679819D02*
X148258333Y-70679819D01*
X148258333Y-70679819D02*
X148163095Y-70632200D01*
X148163095Y-70632200D02*
X148115476Y-70584580D01*
X149639285Y-69679819D02*
X149163095Y-69679819D01*
X149163095Y-69679819D02*
X149115476Y-70156009D01*
X149115476Y-70156009D02*
X149163095Y-70108390D01*
X149163095Y-70108390D02*
X149258333Y-70060771D01*
X149258333Y-70060771D02*
X149496428Y-70060771D01*
X149496428Y-70060771D02*
X149591666Y-70108390D01*
X149591666Y-70108390D02*
X149639285Y-70156009D01*
X149639285Y-70156009D02*
X149686904Y-70251247D01*
X149686904Y-70251247D02*
X149686904Y-70489342D01*
X149686904Y-70489342D02*
X149639285Y-70584580D01*
X149639285Y-70584580D02*
X149591666Y-70632200D01*
X149591666Y-70632200D02*
X149496428Y-70679819D01*
X149496428Y-70679819D02*
X149258333Y-70679819D01*
X149258333Y-70679819D02*
X149163095Y-70632200D01*
X149163095Y-70632200D02*
X149115476Y-70584580D01*
X171665755Y-110949660D02*
X171808612Y-110997279D01*
X171808612Y-110997279D02*
X172046707Y-110997279D01*
X172046707Y-110997279D02*
X172141945Y-110949660D01*
X172141945Y-110949660D02*
X172189564Y-110902040D01*
X172189564Y-110902040D02*
X172237183Y-110806802D01*
X172237183Y-110806802D02*
X172237183Y-110711564D01*
X172237183Y-110711564D02*
X172189564Y-110616326D01*
X172189564Y-110616326D02*
X172141945Y-110568707D01*
X172141945Y-110568707D02*
X172046707Y-110521088D01*
X172046707Y-110521088D02*
X171856231Y-110473469D01*
X171856231Y-110473469D02*
X171760993Y-110425850D01*
X171760993Y-110425850D02*
X171713374Y-110378231D01*
X171713374Y-110378231D02*
X171665755Y-110282993D01*
X171665755Y-110282993D02*
X171665755Y-110187755D01*
X171665755Y-110187755D02*
X171713374Y-110092517D01*
X171713374Y-110092517D02*
X171760993Y-110044898D01*
X171760993Y-110044898D02*
X171856231Y-109997279D01*
X171856231Y-109997279D02*
X172094326Y-109997279D01*
X172094326Y-109997279D02*
X172237183Y-110044898D01*
X173094326Y-110330612D02*
X173094326Y-110997279D01*
X172856231Y-109949660D02*
X172618136Y-110663945D01*
X172618136Y-110663945D02*
X173237183Y-110663945D01*
X127354819Y-82467857D02*
X126878628Y-82801190D01*
X127354819Y-83039285D02*
X126354819Y-83039285D01*
X126354819Y-83039285D02*
X126354819Y-82658333D01*
X126354819Y-82658333D02*
X126402438Y-82563095D01*
X126402438Y-82563095D02*
X126450057Y-82515476D01*
X126450057Y-82515476D02*
X126545295Y-82467857D01*
X126545295Y-82467857D02*
X126688152Y-82467857D01*
X126688152Y-82467857D02*
X126783390Y-82515476D01*
X126783390Y-82515476D02*
X126831009Y-82563095D01*
X126831009Y-82563095D02*
X126878628Y-82658333D01*
X126878628Y-82658333D02*
X126878628Y-83039285D01*
X126450057Y-82086904D02*
X126402438Y-82039285D01*
X126402438Y-82039285D02*
X126354819Y-81944047D01*
X126354819Y-81944047D02*
X126354819Y-81705952D01*
X126354819Y-81705952D02*
X126402438Y-81610714D01*
X126402438Y-81610714D02*
X126450057Y-81563095D01*
X126450057Y-81563095D02*
X126545295Y-81515476D01*
X126545295Y-81515476D02*
X126640533Y-81515476D01*
X126640533Y-81515476D02*
X126783390Y-81563095D01*
X126783390Y-81563095D02*
X127354819Y-82134523D01*
X127354819Y-82134523D02*
X127354819Y-81515476D01*
X127354819Y-80563095D02*
X127354819Y-81134523D01*
X127354819Y-80848809D02*
X126354819Y-80848809D01*
X126354819Y-80848809D02*
X126497676Y-80944047D01*
X126497676Y-80944047D02*
X126592914Y-81039285D01*
X126592914Y-81039285D02*
X126640533Y-81134523D01*
X186904819Y-66117857D02*
X186428628Y-66451190D01*
X186904819Y-66689285D02*
X185904819Y-66689285D01*
X185904819Y-66689285D02*
X185904819Y-66308333D01*
X185904819Y-66308333D02*
X185952438Y-66213095D01*
X185952438Y-66213095D02*
X186000057Y-66165476D01*
X186000057Y-66165476D02*
X186095295Y-66117857D01*
X186095295Y-66117857D02*
X186238152Y-66117857D01*
X186238152Y-66117857D02*
X186333390Y-66165476D01*
X186333390Y-66165476D02*
X186381009Y-66213095D01*
X186381009Y-66213095D02*
X186428628Y-66308333D01*
X186428628Y-66308333D02*
X186428628Y-66689285D01*
X185904819Y-65784523D02*
X185904819Y-65165476D01*
X185904819Y-65165476D02*
X186285771Y-65498809D01*
X186285771Y-65498809D02*
X186285771Y-65355952D01*
X186285771Y-65355952D02*
X186333390Y-65260714D01*
X186333390Y-65260714D02*
X186381009Y-65213095D01*
X186381009Y-65213095D02*
X186476247Y-65165476D01*
X186476247Y-65165476D02*
X186714342Y-65165476D01*
X186714342Y-65165476D02*
X186809580Y-65213095D01*
X186809580Y-65213095D02*
X186857200Y-65260714D01*
X186857200Y-65260714D02*
X186904819Y-65355952D01*
X186904819Y-65355952D02*
X186904819Y-65641666D01*
X186904819Y-65641666D02*
X186857200Y-65736904D01*
X186857200Y-65736904D02*
X186809580Y-65784523D01*
X186904819Y-64213095D02*
X186904819Y-64784523D01*
X186904819Y-64498809D02*
X185904819Y-64498809D01*
X185904819Y-64498809D02*
X186047676Y-64594047D01*
X186047676Y-64594047D02*
X186142914Y-64689285D01*
X186142914Y-64689285D02*
X186190533Y-64784523D01*
X155954819Y-95142857D02*
X155478628Y-95476190D01*
X155954819Y-95714285D02*
X154954819Y-95714285D01*
X154954819Y-95714285D02*
X154954819Y-95333333D01*
X154954819Y-95333333D02*
X155002438Y-95238095D01*
X155002438Y-95238095D02*
X155050057Y-95190476D01*
X155050057Y-95190476D02*
X155145295Y-95142857D01*
X155145295Y-95142857D02*
X155288152Y-95142857D01*
X155288152Y-95142857D02*
X155383390Y-95190476D01*
X155383390Y-95190476D02*
X155431009Y-95238095D01*
X155431009Y-95238095D02*
X155478628Y-95333333D01*
X155478628Y-95333333D02*
X155478628Y-95714285D01*
X155050057Y-94761904D02*
X155002438Y-94714285D01*
X155002438Y-94714285D02*
X154954819Y-94619047D01*
X154954819Y-94619047D02*
X154954819Y-94380952D01*
X154954819Y-94380952D02*
X155002438Y-94285714D01*
X155002438Y-94285714D02*
X155050057Y-94238095D01*
X155050057Y-94238095D02*
X155145295Y-94190476D01*
X155145295Y-94190476D02*
X155240533Y-94190476D01*
X155240533Y-94190476D02*
X155383390Y-94238095D01*
X155383390Y-94238095D02*
X155954819Y-94809523D01*
X155954819Y-94809523D02*
X155954819Y-94190476D01*
X154954819Y-93857142D02*
X154954819Y-93190476D01*
X154954819Y-93190476D02*
X155954819Y-93619047D01*
X134006309Y-88598628D02*
X134006309Y-89074819D01*
X133672976Y-88074819D02*
X134006309Y-88598628D01*
X134006309Y-88598628D02*
X134339642Y-88074819D01*
X135196785Y-89074819D02*
X134625357Y-89074819D01*
X134911071Y-89074819D02*
X134911071Y-88074819D01*
X134911071Y-88074819D02*
X134815833Y-88217676D01*
X134815833Y-88217676D02*
X134720595Y-88312914D01*
X134720595Y-88312914D02*
X134625357Y-88360533D01*
X132804819Y-70860119D02*
X132328628Y-71193452D01*
X132804819Y-71431547D02*
X131804819Y-71431547D01*
X131804819Y-71431547D02*
X131804819Y-71050595D01*
X131804819Y-71050595D02*
X131852438Y-70955357D01*
X131852438Y-70955357D02*
X131900057Y-70907738D01*
X131900057Y-70907738D02*
X131995295Y-70860119D01*
X131995295Y-70860119D02*
X132138152Y-70860119D01*
X132138152Y-70860119D02*
X132233390Y-70907738D01*
X132233390Y-70907738D02*
X132281009Y-70955357D01*
X132281009Y-70955357D02*
X132328628Y-71050595D01*
X132328628Y-71050595D02*
X132328628Y-71431547D01*
X131804819Y-70574404D02*
X131804819Y-70002976D01*
X132804819Y-70288690D02*
X131804819Y-70288690D01*
X131900057Y-69717261D02*
X131852438Y-69669642D01*
X131852438Y-69669642D02*
X131804819Y-69574404D01*
X131804819Y-69574404D02*
X131804819Y-69336309D01*
X131804819Y-69336309D02*
X131852438Y-69241071D01*
X131852438Y-69241071D02*
X131900057Y-69193452D01*
X131900057Y-69193452D02*
X131995295Y-69145833D01*
X131995295Y-69145833D02*
X132090533Y-69145833D01*
X132090533Y-69145833D02*
X132233390Y-69193452D01*
X132233390Y-69193452D02*
X132804819Y-69764880D01*
X132804819Y-69764880D02*
X132804819Y-69145833D01*
X175169642Y-107254819D02*
X174836309Y-106778628D01*
X174598214Y-107254819D02*
X174598214Y-106254819D01*
X174598214Y-106254819D02*
X174979166Y-106254819D01*
X174979166Y-106254819D02*
X175074404Y-106302438D01*
X175074404Y-106302438D02*
X175122023Y-106350057D01*
X175122023Y-106350057D02*
X175169642Y-106445295D01*
X175169642Y-106445295D02*
X175169642Y-106588152D01*
X175169642Y-106588152D02*
X175122023Y-106683390D01*
X175122023Y-106683390D02*
X175074404Y-106731009D01*
X175074404Y-106731009D02*
X174979166Y-106778628D01*
X174979166Y-106778628D02*
X174598214Y-106778628D01*
X175550595Y-106350057D02*
X175598214Y-106302438D01*
X175598214Y-106302438D02*
X175693452Y-106254819D01*
X175693452Y-106254819D02*
X175931547Y-106254819D01*
X175931547Y-106254819D02*
X176026785Y-106302438D01*
X176026785Y-106302438D02*
X176074404Y-106350057D01*
X176074404Y-106350057D02*
X176122023Y-106445295D01*
X176122023Y-106445295D02*
X176122023Y-106540533D01*
X176122023Y-106540533D02*
X176074404Y-106683390D01*
X176074404Y-106683390D02*
X175502976Y-107254819D01*
X175502976Y-107254819D02*
X176122023Y-107254819D01*
X176741071Y-106254819D02*
X176836309Y-106254819D01*
X176836309Y-106254819D02*
X176931547Y-106302438D01*
X176931547Y-106302438D02*
X176979166Y-106350057D01*
X176979166Y-106350057D02*
X177026785Y-106445295D01*
X177026785Y-106445295D02*
X177074404Y-106635771D01*
X177074404Y-106635771D02*
X177074404Y-106873866D01*
X177074404Y-106873866D02*
X177026785Y-107064342D01*
X177026785Y-107064342D02*
X176979166Y-107159580D01*
X176979166Y-107159580D02*
X176931547Y-107207200D01*
X176931547Y-107207200D02*
X176836309Y-107254819D01*
X176836309Y-107254819D02*
X176741071Y-107254819D01*
X176741071Y-107254819D02*
X176645833Y-107207200D01*
X176645833Y-107207200D02*
X176598214Y-107159580D01*
X176598214Y-107159580D02*
X176550595Y-107064342D01*
X176550595Y-107064342D02*
X176502976Y-106873866D01*
X176502976Y-106873866D02*
X176502976Y-106635771D01*
X176502976Y-106635771D02*
X176550595Y-106445295D01*
X176550595Y-106445295D02*
X176598214Y-106350057D01*
X176598214Y-106350057D02*
X176645833Y-106302438D01*
X176645833Y-106302438D02*
X176741071Y-106254819D01*
X190029819Y-66142857D02*
X189553628Y-66476190D01*
X190029819Y-66714285D02*
X189029819Y-66714285D01*
X189029819Y-66714285D02*
X189029819Y-66333333D01*
X189029819Y-66333333D02*
X189077438Y-66238095D01*
X189077438Y-66238095D02*
X189125057Y-66190476D01*
X189125057Y-66190476D02*
X189220295Y-66142857D01*
X189220295Y-66142857D02*
X189363152Y-66142857D01*
X189363152Y-66142857D02*
X189458390Y-66190476D01*
X189458390Y-66190476D02*
X189506009Y-66238095D01*
X189506009Y-66238095D02*
X189553628Y-66333333D01*
X189553628Y-66333333D02*
X189553628Y-66714285D01*
X189029819Y-65809523D02*
X189029819Y-65190476D01*
X189029819Y-65190476D02*
X189410771Y-65523809D01*
X189410771Y-65523809D02*
X189410771Y-65380952D01*
X189410771Y-65380952D02*
X189458390Y-65285714D01*
X189458390Y-65285714D02*
X189506009Y-65238095D01*
X189506009Y-65238095D02*
X189601247Y-65190476D01*
X189601247Y-65190476D02*
X189839342Y-65190476D01*
X189839342Y-65190476D02*
X189934580Y-65238095D01*
X189934580Y-65238095D02*
X189982200Y-65285714D01*
X189982200Y-65285714D02*
X190029819Y-65380952D01*
X190029819Y-65380952D02*
X190029819Y-65666666D01*
X190029819Y-65666666D02*
X189982200Y-65761904D01*
X189982200Y-65761904D02*
X189934580Y-65809523D01*
X189125057Y-64809523D02*
X189077438Y-64761904D01*
X189077438Y-64761904D02*
X189029819Y-64666666D01*
X189029819Y-64666666D02*
X189029819Y-64428571D01*
X189029819Y-64428571D02*
X189077438Y-64333333D01*
X189077438Y-64333333D02*
X189125057Y-64285714D01*
X189125057Y-64285714D02*
X189220295Y-64238095D01*
X189220295Y-64238095D02*
X189315533Y-64238095D01*
X189315533Y-64238095D02*
X189458390Y-64285714D01*
X189458390Y-64285714D02*
X190029819Y-64857142D01*
X190029819Y-64857142D02*
X190029819Y-64238095D01*
X190949880Y-93054819D02*
X190616547Y-92578628D01*
X190378452Y-93054819D02*
X190378452Y-92054819D01*
X190378452Y-92054819D02*
X190759404Y-92054819D01*
X190759404Y-92054819D02*
X190854642Y-92102438D01*
X190854642Y-92102438D02*
X190902261Y-92150057D01*
X190902261Y-92150057D02*
X190949880Y-92245295D01*
X190949880Y-92245295D02*
X190949880Y-92388152D01*
X190949880Y-92388152D02*
X190902261Y-92483390D01*
X190902261Y-92483390D02*
X190854642Y-92531009D01*
X190854642Y-92531009D02*
X190759404Y-92578628D01*
X190759404Y-92578628D02*
X190378452Y-92578628D01*
X191759404Y-93007200D02*
X191664166Y-93054819D01*
X191664166Y-93054819D02*
X191473690Y-93054819D01*
X191473690Y-93054819D02*
X191378452Y-93007200D01*
X191378452Y-93007200D02*
X191330833Y-92911961D01*
X191330833Y-92911961D02*
X191330833Y-92531009D01*
X191330833Y-92531009D02*
X191378452Y-92435771D01*
X191378452Y-92435771D02*
X191473690Y-92388152D01*
X191473690Y-92388152D02*
X191664166Y-92388152D01*
X191664166Y-92388152D02*
X191759404Y-92435771D01*
X191759404Y-92435771D02*
X191807023Y-92531009D01*
X191807023Y-92531009D02*
X191807023Y-92626247D01*
X191807023Y-92626247D02*
X191330833Y-92721485D01*
X192235595Y-92388152D02*
X192235595Y-93054819D01*
X192235595Y-92483390D02*
X192283214Y-92435771D01*
X192283214Y-92435771D02*
X192378452Y-92388152D01*
X192378452Y-92388152D02*
X192521309Y-92388152D01*
X192521309Y-92388152D02*
X192616547Y-92435771D01*
X192616547Y-92435771D02*
X192664166Y-92531009D01*
X192664166Y-92531009D02*
X192664166Y-93054819D01*
X193664166Y-93054819D02*
X193092738Y-93054819D01*
X193378452Y-93054819D02*
X193378452Y-92054819D01*
X193378452Y-92054819D02*
X193283214Y-92197676D01*
X193283214Y-92197676D02*
X193187976Y-92292914D01*
X193187976Y-92292914D02*
X193092738Y-92340533D01*
X171041666Y-50879819D02*
X171041666Y-51594104D01*
X171041666Y-51594104D02*
X170994047Y-51736961D01*
X170994047Y-51736961D02*
X170898809Y-51832200D01*
X170898809Y-51832200D02*
X170755952Y-51879819D01*
X170755952Y-51879819D02*
X170660714Y-51879819D01*
X171946428Y-51213152D02*
X171946428Y-51879819D01*
X171708333Y-50832200D02*
X171470238Y-51546485D01*
X171470238Y-51546485D02*
X172089285Y-51546485D01*
X162923019Y-79345180D02*
X162923019Y-79154704D01*
X162923019Y-79154704D02*
X162970638Y-79059466D01*
X162970638Y-79059466D02*
X163065876Y-78964228D01*
X163065876Y-78964228D02*
X163256352Y-78916609D01*
X163256352Y-78916609D02*
X163589685Y-78916609D01*
X163589685Y-78916609D02*
X163780161Y-78964228D01*
X163780161Y-78964228D02*
X163875400Y-79059466D01*
X163875400Y-79059466D02*
X163923019Y-79154704D01*
X163923019Y-79154704D02*
X163923019Y-79345180D01*
X163923019Y-79345180D02*
X163875400Y-79440418D01*
X163875400Y-79440418D02*
X163780161Y-79535656D01*
X163780161Y-79535656D02*
X163589685Y-79583275D01*
X163589685Y-79583275D02*
X163256352Y-79583275D01*
X163256352Y-79583275D02*
X163065876Y-79535656D01*
X163065876Y-79535656D02*
X162970638Y-79440418D01*
X162970638Y-79440418D02*
X162923019Y-79345180D01*
X163923019Y-78488037D02*
X162923019Y-78488037D01*
X162923019Y-78488037D02*
X162923019Y-78107085D01*
X162923019Y-78107085D02*
X162970638Y-78011847D01*
X162970638Y-78011847D02*
X163018257Y-77964228D01*
X163018257Y-77964228D02*
X163113495Y-77916609D01*
X163113495Y-77916609D02*
X163256352Y-77916609D01*
X163256352Y-77916609D02*
X163351590Y-77964228D01*
X163351590Y-77964228D02*
X163399209Y-78011847D01*
X163399209Y-78011847D02*
X163446828Y-78107085D01*
X163446828Y-78107085D02*
X163446828Y-78488037D01*
X162923019Y-77630894D02*
X162923019Y-77059466D01*
X163923019Y-77345180D02*
X162923019Y-77345180D01*
X162923019Y-76535656D02*
X162923019Y-76345180D01*
X162923019Y-76345180D02*
X162970638Y-76249942D01*
X162970638Y-76249942D02*
X163065876Y-76154704D01*
X163065876Y-76154704D02*
X163256352Y-76107085D01*
X163256352Y-76107085D02*
X163589685Y-76107085D01*
X163589685Y-76107085D02*
X163780161Y-76154704D01*
X163780161Y-76154704D02*
X163875400Y-76249942D01*
X163875400Y-76249942D02*
X163923019Y-76345180D01*
X163923019Y-76345180D02*
X163923019Y-76535656D01*
X163923019Y-76535656D02*
X163875400Y-76630894D01*
X163875400Y-76630894D02*
X163780161Y-76726132D01*
X163780161Y-76726132D02*
X163589685Y-76773751D01*
X163589685Y-76773751D02*
X163256352Y-76773751D01*
X163256352Y-76773751D02*
X163065876Y-76726132D01*
X163065876Y-76726132D02*
X162970638Y-76630894D01*
X162970638Y-76630894D02*
X162923019Y-76535656D01*
X163923019Y-75154704D02*
X163923019Y-75726132D01*
X163923019Y-75440418D02*
X162923019Y-75440418D01*
X162923019Y-75440418D02*
X163065876Y-75535656D01*
X163065876Y-75535656D02*
X163161114Y-75630894D01*
X163161114Y-75630894D02*
X163208733Y-75726132D01*
X163923019Y-74202323D02*
X163923019Y-74773751D01*
X163923019Y-74488037D02*
X162923019Y-74488037D01*
X162923019Y-74488037D02*
X163065876Y-74583275D01*
X163065876Y-74583275D02*
X163161114Y-74678513D01*
X163161114Y-74678513D02*
X163208733Y-74773751D01*
D11*
X87526667Y-114917664D02*
X87488571Y-114955760D01*
X87488571Y-114955760D02*
X87374286Y-114993855D01*
X87374286Y-114993855D02*
X87298095Y-114993855D01*
X87298095Y-114993855D02*
X87183809Y-114955760D01*
X87183809Y-114955760D02*
X87107619Y-114879569D01*
X87107619Y-114879569D02*
X87069524Y-114803379D01*
X87069524Y-114803379D02*
X87031428Y-114650998D01*
X87031428Y-114650998D02*
X87031428Y-114536712D01*
X87031428Y-114536712D02*
X87069524Y-114384331D01*
X87069524Y-114384331D02*
X87107619Y-114308140D01*
X87107619Y-114308140D02*
X87183809Y-114231950D01*
X87183809Y-114231950D02*
X87298095Y-114193855D01*
X87298095Y-114193855D02*
X87374286Y-114193855D01*
X87374286Y-114193855D02*
X87488571Y-114231950D01*
X87488571Y-114231950D02*
X87526667Y-114270045D01*
X88212381Y-114460521D02*
X88212381Y-114993855D01*
X88021905Y-114155760D02*
X87831428Y-114727188D01*
X87831428Y-114727188D02*
X88326667Y-114727188D01*
D10*
X174609523Y-127104819D02*
X174276190Y-126628628D01*
X174038095Y-127104819D02*
X174038095Y-126104819D01*
X174038095Y-126104819D02*
X174419047Y-126104819D01*
X174419047Y-126104819D02*
X174514285Y-126152438D01*
X174514285Y-126152438D02*
X174561904Y-126200057D01*
X174561904Y-126200057D02*
X174609523Y-126295295D01*
X174609523Y-126295295D02*
X174609523Y-126438152D01*
X174609523Y-126438152D02*
X174561904Y-126533390D01*
X174561904Y-126533390D02*
X174514285Y-126581009D01*
X174514285Y-126581009D02*
X174419047Y-126628628D01*
X174419047Y-126628628D02*
X174038095Y-126628628D01*
X174800000Y-127200057D02*
X175561904Y-127200057D01*
X175942857Y-127104819D02*
X175847619Y-127057200D01*
X175847619Y-127057200D02*
X175800000Y-126961961D01*
X175800000Y-126961961D02*
X175800000Y-126104819D01*
X176704762Y-127057200D02*
X176609524Y-127104819D01*
X176609524Y-127104819D02*
X176419048Y-127104819D01*
X176419048Y-127104819D02*
X176323810Y-127057200D01*
X176323810Y-127057200D02*
X176276191Y-126961961D01*
X176276191Y-126961961D02*
X176276191Y-126581009D01*
X176276191Y-126581009D02*
X176323810Y-126485771D01*
X176323810Y-126485771D02*
X176419048Y-126438152D01*
X176419048Y-126438152D02*
X176609524Y-126438152D01*
X176609524Y-126438152D02*
X176704762Y-126485771D01*
X176704762Y-126485771D02*
X176752381Y-126581009D01*
X176752381Y-126581009D02*
X176752381Y-126676247D01*
X176752381Y-126676247D02*
X176276191Y-126771485D01*
X177609524Y-127104819D02*
X177609524Y-126104819D01*
X177609524Y-127057200D02*
X177514286Y-127104819D01*
X177514286Y-127104819D02*
X177323810Y-127104819D01*
X177323810Y-127104819D02*
X177228572Y-127057200D01*
X177228572Y-127057200D02*
X177180953Y-127009580D01*
X177180953Y-127009580D02*
X177133334Y-126914342D01*
X177133334Y-126914342D02*
X177133334Y-126628628D01*
X177133334Y-126628628D02*
X177180953Y-126533390D01*
X177180953Y-126533390D02*
X177228572Y-126485771D01*
X177228572Y-126485771D02*
X177323810Y-126438152D01*
X177323810Y-126438152D02*
X177514286Y-126438152D01*
X177514286Y-126438152D02*
X177609524Y-126485771D01*
X178609524Y-127104819D02*
X178038096Y-127104819D01*
X178323810Y-127104819D02*
X178323810Y-126104819D01*
X178323810Y-126104819D02*
X178228572Y-126247676D01*
X178228572Y-126247676D02*
X178133334Y-126342914D01*
X178133334Y-126342914D02*
X178038096Y-126390533D01*
X201031009Y-112710714D02*
X201078628Y-112567857D01*
X201078628Y-112567857D02*
X201126247Y-112520238D01*
X201126247Y-112520238D02*
X201221485Y-112472619D01*
X201221485Y-112472619D02*
X201364342Y-112472619D01*
X201364342Y-112472619D02*
X201459580Y-112520238D01*
X201459580Y-112520238D02*
X201507200Y-112567857D01*
X201507200Y-112567857D02*
X201554819Y-112663095D01*
X201554819Y-112663095D02*
X201554819Y-113044047D01*
X201554819Y-113044047D02*
X200554819Y-113044047D01*
X200554819Y-113044047D02*
X200554819Y-112710714D01*
X200554819Y-112710714D02*
X200602438Y-112615476D01*
X200602438Y-112615476D02*
X200650057Y-112567857D01*
X200650057Y-112567857D02*
X200745295Y-112520238D01*
X200745295Y-112520238D02*
X200840533Y-112520238D01*
X200840533Y-112520238D02*
X200935771Y-112567857D01*
X200935771Y-112567857D02*
X200983390Y-112615476D01*
X200983390Y-112615476D02*
X201031009Y-112710714D01*
X201031009Y-112710714D02*
X201031009Y-113044047D01*
X200554819Y-112186904D02*
X200554819Y-111615476D01*
X201554819Y-111901190D02*
X200554819Y-111901190D01*
X201554819Y-110758333D02*
X201554819Y-111329761D01*
X201554819Y-111044047D02*
X200554819Y-111044047D01*
X200554819Y-111044047D02*
X200697676Y-111139285D01*
X200697676Y-111139285D02*
X200792914Y-111234523D01*
X200792914Y-111234523D02*
X200840533Y-111329761D01*
X90933333Y-102059580D02*
X90885714Y-102107200D01*
X90885714Y-102107200D02*
X90742857Y-102154819D01*
X90742857Y-102154819D02*
X90647619Y-102154819D01*
X90647619Y-102154819D02*
X90504762Y-102107200D01*
X90504762Y-102107200D02*
X90409524Y-102011961D01*
X90409524Y-102011961D02*
X90361905Y-101916723D01*
X90361905Y-101916723D02*
X90314286Y-101726247D01*
X90314286Y-101726247D02*
X90314286Y-101583390D01*
X90314286Y-101583390D02*
X90361905Y-101392914D01*
X90361905Y-101392914D02*
X90409524Y-101297676D01*
X90409524Y-101297676D02*
X90504762Y-101202438D01*
X90504762Y-101202438D02*
X90647619Y-101154819D01*
X90647619Y-101154819D02*
X90742857Y-101154819D01*
X90742857Y-101154819D02*
X90885714Y-101202438D01*
X90885714Y-101202438D02*
X90933333Y-101250057D01*
X91885714Y-102154819D02*
X91314286Y-102154819D01*
X91600000Y-102154819D02*
X91600000Y-101154819D01*
X91600000Y-101154819D02*
X91504762Y-101297676D01*
X91504762Y-101297676D02*
X91409524Y-101392914D01*
X91409524Y-101392914D02*
X91314286Y-101440533D01*
X193103571Y-59904819D02*
X192770238Y-59428628D01*
X192532143Y-59904819D02*
X192532143Y-58904819D01*
X192532143Y-58904819D02*
X192913095Y-58904819D01*
X192913095Y-58904819D02*
X193008333Y-58952438D01*
X193008333Y-58952438D02*
X193055952Y-59000057D01*
X193055952Y-59000057D02*
X193103571Y-59095295D01*
X193103571Y-59095295D02*
X193103571Y-59238152D01*
X193103571Y-59238152D02*
X193055952Y-59333390D01*
X193055952Y-59333390D02*
X193008333Y-59381009D01*
X193008333Y-59381009D02*
X192913095Y-59428628D01*
X192913095Y-59428628D02*
X192532143Y-59428628D01*
X193532143Y-59904819D02*
X193532143Y-58904819D01*
X193532143Y-59285771D02*
X193627381Y-59238152D01*
X193627381Y-59238152D02*
X193817857Y-59238152D01*
X193817857Y-59238152D02*
X193913095Y-59285771D01*
X193913095Y-59285771D02*
X193960714Y-59333390D01*
X193960714Y-59333390D02*
X194008333Y-59428628D01*
X194008333Y-59428628D02*
X194008333Y-59714342D01*
X194008333Y-59714342D02*
X193960714Y-59809580D01*
X193960714Y-59809580D02*
X193913095Y-59857200D01*
X193913095Y-59857200D02*
X193817857Y-59904819D01*
X193817857Y-59904819D02*
X193627381Y-59904819D01*
X193627381Y-59904819D02*
X193532143Y-59857200D01*
X194579762Y-59904819D02*
X194484524Y-59857200D01*
X194484524Y-59857200D02*
X194436905Y-59809580D01*
X194436905Y-59809580D02*
X194389286Y-59714342D01*
X194389286Y-59714342D02*
X194389286Y-59428628D01*
X194389286Y-59428628D02*
X194436905Y-59333390D01*
X194436905Y-59333390D02*
X194484524Y-59285771D01*
X194484524Y-59285771D02*
X194579762Y-59238152D01*
X194579762Y-59238152D02*
X194722619Y-59238152D01*
X194722619Y-59238152D02*
X194817857Y-59285771D01*
X194817857Y-59285771D02*
X194865476Y-59333390D01*
X194865476Y-59333390D02*
X194913095Y-59428628D01*
X194913095Y-59428628D02*
X194913095Y-59714342D01*
X194913095Y-59714342D02*
X194865476Y-59809580D01*
X194865476Y-59809580D02*
X194817857Y-59857200D01*
X194817857Y-59857200D02*
X194722619Y-59904819D01*
X194722619Y-59904819D02*
X194579762Y-59904819D01*
X195865476Y-59904819D02*
X195294048Y-59904819D01*
X195579762Y-59904819D02*
X195579762Y-58904819D01*
X195579762Y-58904819D02*
X195484524Y-59047676D01*
X195484524Y-59047676D02*
X195389286Y-59142914D01*
X195389286Y-59142914D02*
X195294048Y-59190533D01*
X123063333Y-62169580D02*
X123015714Y-62217200D01*
X123015714Y-62217200D02*
X122872857Y-62264819D01*
X122872857Y-62264819D02*
X122777619Y-62264819D01*
X122777619Y-62264819D02*
X122634762Y-62217200D01*
X122634762Y-62217200D02*
X122539524Y-62121961D01*
X122539524Y-62121961D02*
X122491905Y-62026723D01*
X122491905Y-62026723D02*
X122444286Y-61836247D01*
X122444286Y-61836247D02*
X122444286Y-61693390D01*
X122444286Y-61693390D02*
X122491905Y-61502914D01*
X122491905Y-61502914D02*
X122539524Y-61407676D01*
X122539524Y-61407676D02*
X122634762Y-61312438D01*
X122634762Y-61312438D02*
X122777619Y-61264819D01*
X122777619Y-61264819D02*
X122872857Y-61264819D01*
X122872857Y-61264819D02*
X123015714Y-61312438D01*
X123015714Y-61312438D02*
X123063333Y-61360057D01*
X123968095Y-61264819D02*
X123491905Y-61264819D01*
X123491905Y-61264819D02*
X123444286Y-61741009D01*
X123444286Y-61741009D02*
X123491905Y-61693390D01*
X123491905Y-61693390D02*
X123587143Y-61645771D01*
X123587143Y-61645771D02*
X123825238Y-61645771D01*
X123825238Y-61645771D02*
X123920476Y-61693390D01*
X123920476Y-61693390D02*
X123968095Y-61741009D01*
X123968095Y-61741009D02*
X124015714Y-61836247D01*
X124015714Y-61836247D02*
X124015714Y-62074342D01*
X124015714Y-62074342D02*
X123968095Y-62169580D01*
X123968095Y-62169580D02*
X123920476Y-62217200D01*
X123920476Y-62217200D02*
X123825238Y-62264819D01*
X123825238Y-62264819D02*
X123587143Y-62264819D01*
X123587143Y-62264819D02*
X123491905Y-62217200D01*
X123491905Y-62217200D02*
X123444286Y-62169580D01*
X122973333Y-69209580D02*
X122925714Y-69257200D01*
X122925714Y-69257200D02*
X122782857Y-69304819D01*
X122782857Y-69304819D02*
X122687619Y-69304819D01*
X122687619Y-69304819D02*
X122544762Y-69257200D01*
X122544762Y-69257200D02*
X122449524Y-69161961D01*
X122449524Y-69161961D02*
X122401905Y-69066723D01*
X122401905Y-69066723D02*
X122354286Y-68876247D01*
X122354286Y-68876247D02*
X122354286Y-68733390D01*
X122354286Y-68733390D02*
X122401905Y-68542914D01*
X122401905Y-68542914D02*
X122449524Y-68447676D01*
X122449524Y-68447676D02*
X122544762Y-68352438D01*
X122544762Y-68352438D02*
X122687619Y-68304819D01*
X122687619Y-68304819D02*
X122782857Y-68304819D01*
X122782857Y-68304819D02*
X122925714Y-68352438D01*
X122925714Y-68352438D02*
X122973333Y-68400057D01*
X123830476Y-68638152D02*
X123830476Y-69304819D01*
X123592381Y-68257200D02*
X123354286Y-68971485D01*
X123354286Y-68971485D02*
X123973333Y-68971485D01*
X142042261Y-63004819D02*
X141708928Y-62528628D01*
X141470833Y-63004819D02*
X141470833Y-62004819D01*
X141470833Y-62004819D02*
X141851785Y-62004819D01*
X141851785Y-62004819D02*
X141947023Y-62052438D01*
X141947023Y-62052438D02*
X141994642Y-62100057D01*
X141994642Y-62100057D02*
X142042261Y-62195295D01*
X142042261Y-62195295D02*
X142042261Y-62338152D01*
X142042261Y-62338152D02*
X141994642Y-62433390D01*
X141994642Y-62433390D02*
X141947023Y-62481009D01*
X141947023Y-62481009D02*
X141851785Y-62528628D01*
X141851785Y-62528628D02*
X141470833Y-62528628D01*
X142804166Y-62481009D02*
X142470833Y-62481009D01*
X142470833Y-63004819D02*
X142470833Y-62004819D01*
X142470833Y-62004819D02*
X142947023Y-62004819D01*
X143280357Y-62100057D02*
X143327976Y-62052438D01*
X143327976Y-62052438D02*
X143423214Y-62004819D01*
X143423214Y-62004819D02*
X143661309Y-62004819D01*
X143661309Y-62004819D02*
X143756547Y-62052438D01*
X143756547Y-62052438D02*
X143804166Y-62100057D01*
X143804166Y-62100057D02*
X143851785Y-62195295D01*
X143851785Y-62195295D02*
X143851785Y-62290533D01*
X143851785Y-62290533D02*
X143804166Y-62433390D01*
X143804166Y-62433390D02*
X143232738Y-63004819D01*
X143232738Y-63004819D02*
X143851785Y-63004819D01*
D11*
X90844464Y-86764532D02*
X90882560Y-86802628D01*
X90882560Y-86802628D02*
X90920655Y-86916913D01*
X90920655Y-86916913D02*
X90920655Y-86993104D01*
X90920655Y-86993104D02*
X90882560Y-87107390D01*
X90882560Y-87107390D02*
X90806369Y-87183580D01*
X90806369Y-87183580D02*
X90730179Y-87221675D01*
X90730179Y-87221675D02*
X90577798Y-87259771D01*
X90577798Y-87259771D02*
X90463512Y-87259771D01*
X90463512Y-87259771D02*
X90311131Y-87221675D01*
X90311131Y-87221675D02*
X90234940Y-87183580D01*
X90234940Y-87183580D02*
X90158750Y-87107390D01*
X90158750Y-87107390D02*
X90120655Y-86993104D01*
X90120655Y-86993104D02*
X90120655Y-86916913D01*
X90120655Y-86916913D02*
X90158750Y-86802628D01*
X90158750Y-86802628D02*
X90196845Y-86764532D01*
X90120655Y-86040723D02*
X90120655Y-86421675D01*
X90120655Y-86421675D02*
X90501607Y-86459771D01*
X90501607Y-86459771D02*
X90463512Y-86421675D01*
X90463512Y-86421675D02*
X90425417Y-86345485D01*
X90425417Y-86345485D02*
X90425417Y-86155009D01*
X90425417Y-86155009D02*
X90463512Y-86078818D01*
X90463512Y-86078818D02*
X90501607Y-86040723D01*
X90501607Y-86040723D02*
X90577798Y-86002628D01*
X90577798Y-86002628D02*
X90768274Y-86002628D01*
X90768274Y-86002628D02*
X90844464Y-86040723D01*
X90844464Y-86040723D02*
X90882560Y-86078818D01*
X90882560Y-86078818D02*
X90920655Y-86155009D01*
X90920655Y-86155009D02*
X90920655Y-86345485D01*
X90920655Y-86345485D02*
X90882560Y-86421675D01*
X90882560Y-86421675D02*
X90844464Y-86459771D01*
D10*
X145724326Y-126777279D02*
X145724326Y-127491564D01*
X145724326Y-127491564D02*
X145676707Y-127634421D01*
X145676707Y-127634421D02*
X145581469Y-127729660D01*
X145581469Y-127729660D02*
X145438612Y-127777279D01*
X145438612Y-127777279D02*
X145343374Y-127777279D01*
X146724326Y-127777279D02*
X146152898Y-127777279D01*
X146438612Y-127777279D02*
X146438612Y-126777279D01*
X146438612Y-126777279D02*
X146343374Y-126920136D01*
X146343374Y-126920136D02*
X146248136Y-127015374D01*
X146248136Y-127015374D02*
X146152898Y-127062993D01*
X160528571Y-64079819D02*
X160195238Y-63603628D01*
X159957143Y-64079819D02*
X159957143Y-63079819D01*
X159957143Y-63079819D02*
X160338095Y-63079819D01*
X160338095Y-63079819D02*
X160433333Y-63127438D01*
X160433333Y-63127438D02*
X160480952Y-63175057D01*
X160480952Y-63175057D02*
X160528571Y-63270295D01*
X160528571Y-63270295D02*
X160528571Y-63413152D01*
X160528571Y-63413152D02*
X160480952Y-63508390D01*
X160480952Y-63508390D02*
X160433333Y-63556009D01*
X160433333Y-63556009D02*
X160338095Y-63603628D01*
X160338095Y-63603628D02*
X159957143Y-63603628D01*
X161433333Y-64079819D02*
X160957143Y-64079819D01*
X160957143Y-64079819D02*
X160957143Y-63079819D01*
X161719048Y-63175057D02*
X161766667Y-63127438D01*
X161766667Y-63127438D02*
X161861905Y-63079819D01*
X161861905Y-63079819D02*
X162100000Y-63079819D01*
X162100000Y-63079819D02*
X162195238Y-63127438D01*
X162195238Y-63127438D02*
X162242857Y-63175057D01*
X162242857Y-63175057D02*
X162290476Y-63270295D01*
X162290476Y-63270295D02*
X162290476Y-63365533D01*
X162290476Y-63365533D02*
X162242857Y-63508390D01*
X162242857Y-63508390D02*
X161671429Y-64079819D01*
X161671429Y-64079819D02*
X162290476Y-64079819D01*
X160032142Y-70604819D02*
X159698809Y-70128628D01*
X159460714Y-70604819D02*
X159460714Y-69604819D01*
X159460714Y-69604819D02*
X159841666Y-69604819D01*
X159841666Y-69604819D02*
X159936904Y-69652438D01*
X159936904Y-69652438D02*
X159984523Y-69700057D01*
X159984523Y-69700057D02*
X160032142Y-69795295D01*
X160032142Y-69795295D02*
X160032142Y-69938152D01*
X160032142Y-69938152D02*
X159984523Y-70033390D01*
X159984523Y-70033390D02*
X159936904Y-70081009D01*
X159936904Y-70081009D02*
X159841666Y-70128628D01*
X159841666Y-70128628D02*
X159460714Y-70128628D01*
X160365476Y-69604819D02*
X160984523Y-69604819D01*
X160984523Y-69604819D02*
X160651190Y-69985771D01*
X160651190Y-69985771D02*
X160794047Y-69985771D01*
X160794047Y-69985771D02*
X160889285Y-70033390D01*
X160889285Y-70033390D02*
X160936904Y-70081009D01*
X160936904Y-70081009D02*
X160984523Y-70176247D01*
X160984523Y-70176247D02*
X160984523Y-70414342D01*
X160984523Y-70414342D02*
X160936904Y-70509580D01*
X160936904Y-70509580D02*
X160889285Y-70557200D01*
X160889285Y-70557200D02*
X160794047Y-70604819D01*
X160794047Y-70604819D02*
X160508333Y-70604819D01*
X160508333Y-70604819D02*
X160413095Y-70557200D01*
X160413095Y-70557200D02*
X160365476Y-70509580D01*
X161317857Y-69604819D02*
X161984523Y-69604819D01*
X161984523Y-69604819D02*
X161555952Y-70604819D01*
X144964219Y-79370180D02*
X144964219Y-79179704D01*
X144964219Y-79179704D02*
X145011838Y-79084466D01*
X145011838Y-79084466D02*
X145107076Y-78989228D01*
X145107076Y-78989228D02*
X145297552Y-78941609D01*
X145297552Y-78941609D02*
X145630885Y-78941609D01*
X145630885Y-78941609D02*
X145821361Y-78989228D01*
X145821361Y-78989228D02*
X145916600Y-79084466D01*
X145916600Y-79084466D02*
X145964219Y-79179704D01*
X145964219Y-79179704D02*
X145964219Y-79370180D01*
X145964219Y-79370180D02*
X145916600Y-79465418D01*
X145916600Y-79465418D02*
X145821361Y-79560656D01*
X145821361Y-79560656D02*
X145630885Y-79608275D01*
X145630885Y-79608275D02*
X145297552Y-79608275D01*
X145297552Y-79608275D02*
X145107076Y-79560656D01*
X145107076Y-79560656D02*
X145011838Y-79465418D01*
X145011838Y-79465418D02*
X144964219Y-79370180D01*
X145964219Y-78513037D02*
X144964219Y-78513037D01*
X144964219Y-78513037D02*
X144964219Y-78132085D01*
X144964219Y-78132085D02*
X145011838Y-78036847D01*
X145011838Y-78036847D02*
X145059457Y-77989228D01*
X145059457Y-77989228D02*
X145154695Y-77941609D01*
X145154695Y-77941609D02*
X145297552Y-77941609D01*
X145297552Y-77941609D02*
X145392790Y-77989228D01*
X145392790Y-77989228D02*
X145440409Y-78036847D01*
X145440409Y-78036847D02*
X145488028Y-78132085D01*
X145488028Y-78132085D02*
X145488028Y-78513037D01*
X144964219Y-77655894D02*
X144964219Y-77084466D01*
X145964219Y-77370180D02*
X144964219Y-77370180D01*
X144964219Y-76560656D02*
X144964219Y-76370180D01*
X144964219Y-76370180D02*
X145011838Y-76274942D01*
X145011838Y-76274942D02*
X145107076Y-76179704D01*
X145107076Y-76179704D02*
X145297552Y-76132085D01*
X145297552Y-76132085D02*
X145630885Y-76132085D01*
X145630885Y-76132085D02*
X145821361Y-76179704D01*
X145821361Y-76179704D02*
X145916600Y-76274942D01*
X145916600Y-76274942D02*
X145964219Y-76370180D01*
X145964219Y-76370180D02*
X145964219Y-76560656D01*
X145964219Y-76560656D02*
X145916600Y-76655894D01*
X145916600Y-76655894D02*
X145821361Y-76751132D01*
X145821361Y-76751132D02*
X145630885Y-76798751D01*
X145630885Y-76798751D02*
X145297552Y-76798751D01*
X145297552Y-76798751D02*
X145107076Y-76751132D01*
X145107076Y-76751132D02*
X145011838Y-76655894D01*
X145011838Y-76655894D02*
X144964219Y-76560656D01*
X145964219Y-75179704D02*
X145964219Y-75751132D01*
X145964219Y-75465418D02*
X144964219Y-75465418D01*
X144964219Y-75465418D02*
X145107076Y-75560656D01*
X145107076Y-75560656D02*
X145202314Y-75655894D01*
X145202314Y-75655894D02*
X145249933Y-75751132D01*
X145297552Y-74322561D02*
X145964219Y-74322561D01*
X144916600Y-74560656D02*
X145630885Y-74798751D01*
X145630885Y-74798751D02*
X145630885Y-74179704D01*
X178004819Y-96055357D02*
X177528628Y-96388690D01*
X178004819Y-96626785D02*
X177004819Y-96626785D01*
X177004819Y-96626785D02*
X177004819Y-96245833D01*
X177004819Y-96245833D02*
X177052438Y-96150595D01*
X177052438Y-96150595D02*
X177100057Y-96102976D01*
X177100057Y-96102976D02*
X177195295Y-96055357D01*
X177195295Y-96055357D02*
X177338152Y-96055357D01*
X177338152Y-96055357D02*
X177433390Y-96102976D01*
X177433390Y-96102976D02*
X177481009Y-96150595D01*
X177481009Y-96150595D02*
X177528628Y-96245833D01*
X177528628Y-96245833D02*
X177528628Y-96626785D01*
X177004819Y-95722023D02*
X177004819Y-95102976D01*
X177004819Y-95102976D02*
X177385771Y-95436309D01*
X177385771Y-95436309D02*
X177385771Y-95293452D01*
X177385771Y-95293452D02*
X177433390Y-95198214D01*
X177433390Y-95198214D02*
X177481009Y-95150595D01*
X177481009Y-95150595D02*
X177576247Y-95102976D01*
X177576247Y-95102976D02*
X177814342Y-95102976D01*
X177814342Y-95102976D02*
X177909580Y-95150595D01*
X177909580Y-95150595D02*
X177957200Y-95198214D01*
X177957200Y-95198214D02*
X178004819Y-95293452D01*
X178004819Y-95293452D02*
X178004819Y-95579166D01*
X178004819Y-95579166D02*
X177957200Y-95674404D01*
X177957200Y-95674404D02*
X177909580Y-95722023D01*
X177004819Y-94483928D02*
X177004819Y-94388690D01*
X177004819Y-94388690D02*
X177052438Y-94293452D01*
X177052438Y-94293452D02*
X177100057Y-94245833D01*
X177100057Y-94245833D02*
X177195295Y-94198214D01*
X177195295Y-94198214D02*
X177385771Y-94150595D01*
X177385771Y-94150595D02*
X177623866Y-94150595D01*
X177623866Y-94150595D02*
X177814342Y-94198214D01*
X177814342Y-94198214D02*
X177909580Y-94245833D01*
X177909580Y-94245833D02*
X177957200Y-94293452D01*
X177957200Y-94293452D02*
X178004819Y-94388690D01*
X178004819Y-94388690D02*
X178004819Y-94483928D01*
X178004819Y-94483928D02*
X177957200Y-94579166D01*
X177957200Y-94579166D02*
X177909580Y-94626785D01*
X177909580Y-94626785D02*
X177814342Y-94674404D01*
X177814342Y-94674404D02*
X177623866Y-94722023D01*
X177623866Y-94722023D02*
X177385771Y-94722023D01*
X177385771Y-94722023D02*
X177195295Y-94674404D01*
X177195295Y-94674404D02*
X177100057Y-94626785D01*
X177100057Y-94626785D02*
X177052438Y-94579166D01*
X177052438Y-94579166D02*
X177004819Y-94483928D01*
X165757142Y-70554819D02*
X165423809Y-70078628D01*
X165185714Y-70554819D02*
X165185714Y-69554819D01*
X165185714Y-69554819D02*
X165566666Y-69554819D01*
X165566666Y-69554819D02*
X165661904Y-69602438D01*
X165661904Y-69602438D02*
X165709523Y-69650057D01*
X165709523Y-69650057D02*
X165757142Y-69745295D01*
X165757142Y-69745295D02*
X165757142Y-69888152D01*
X165757142Y-69888152D02*
X165709523Y-69983390D01*
X165709523Y-69983390D02*
X165661904Y-70031009D01*
X165661904Y-70031009D02*
X165566666Y-70078628D01*
X165566666Y-70078628D02*
X165185714Y-70078628D01*
X166090476Y-69554819D02*
X166709523Y-69554819D01*
X166709523Y-69554819D02*
X166376190Y-69935771D01*
X166376190Y-69935771D02*
X166519047Y-69935771D01*
X166519047Y-69935771D02*
X166614285Y-69983390D01*
X166614285Y-69983390D02*
X166661904Y-70031009D01*
X166661904Y-70031009D02*
X166709523Y-70126247D01*
X166709523Y-70126247D02*
X166709523Y-70364342D01*
X166709523Y-70364342D02*
X166661904Y-70459580D01*
X166661904Y-70459580D02*
X166614285Y-70507200D01*
X166614285Y-70507200D02*
X166519047Y-70554819D01*
X166519047Y-70554819D02*
X166233333Y-70554819D01*
X166233333Y-70554819D02*
X166138095Y-70507200D01*
X166138095Y-70507200D02*
X166090476Y-70459580D01*
X167280952Y-69983390D02*
X167185714Y-69935771D01*
X167185714Y-69935771D02*
X167138095Y-69888152D01*
X167138095Y-69888152D02*
X167090476Y-69792914D01*
X167090476Y-69792914D02*
X167090476Y-69745295D01*
X167090476Y-69745295D02*
X167138095Y-69650057D01*
X167138095Y-69650057D02*
X167185714Y-69602438D01*
X167185714Y-69602438D02*
X167280952Y-69554819D01*
X167280952Y-69554819D02*
X167471428Y-69554819D01*
X167471428Y-69554819D02*
X167566666Y-69602438D01*
X167566666Y-69602438D02*
X167614285Y-69650057D01*
X167614285Y-69650057D02*
X167661904Y-69745295D01*
X167661904Y-69745295D02*
X167661904Y-69792914D01*
X167661904Y-69792914D02*
X167614285Y-69888152D01*
X167614285Y-69888152D02*
X167566666Y-69935771D01*
X167566666Y-69935771D02*
X167471428Y-69983390D01*
X167471428Y-69983390D02*
X167280952Y-69983390D01*
X167280952Y-69983390D02*
X167185714Y-70031009D01*
X167185714Y-70031009D02*
X167138095Y-70078628D01*
X167138095Y-70078628D02*
X167090476Y-70173866D01*
X167090476Y-70173866D02*
X167090476Y-70364342D01*
X167090476Y-70364342D02*
X167138095Y-70459580D01*
X167138095Y-70459580D02*
X167185714Y-70507200D01*
X167185714Y-70507200D02*
X167280952Y-70554819D01*
X167280952Y-70554819D02*
X167471428Y-70554819D01*
X167471428Y-70554819D02*
X167566666Y-70507200D01*
X167566666Y-70507200D02*
X167614285Y-70459580D01*
X167614285Y-70459580D02*
X167661904Y-70364342D01*
X167661904Y-70364342D02*
X167661904Y-70173866D01*
X167661904Y-70173866D02*
X167614285Y-70078628D01*
X167614285Y-70078628D02*
X167566666Y-70031009D01*
X167566666Y-70031009D02*
X167471428Y-69983390D01*
X150378571Y-63829819D02*
X150045238Y-63353628D01*
X149807143Y-63829819D02*
X149807143Y-62829819D01*
X149807143Y-62829819D02*
X150188095Y-62829819D01*
X150188095Y-62829819D02*
X150283333Y-62877438D01*
X150283333Y-62877438D02*
X150330952Y-62925057D01*
X150330952Y-62925057D02*
X150378571Y-63020295D01*
X150378571Y-63020295D02*
X150378571Y-63163152D01*
X150378571Y-63163152D02*
X150330952Y-63258390D01*
X150330952Y-63258390D02*
X150283333Y-63306009D01*
X150283333Y-63306009D02*
X150188095Y-63353628D01*
X150188095Y-63353628D02*
X149807143Y-63353628D01*
X151283333Y-63829819D02*
X150807143Y-63829819D01*
X150807143Y-63829819D02*
X150807143Y-62829819D01*
X152045238Y-63163152D02*
X152045238Y-63829819D01*
X151807143Y-62782200D02*
X151569048Y-63496485D01*
X151569048Y-63496485D02*
X152188095Y-63496485D01*
X151034219Y-79295180D02*
X151034219Y-79104704D01*
X151034219Y-79104704D02*
X151081838Y-79009466D01*
X151081838Y-79009466D02*
X151177076Y-78914228D01*
X151177076Y-78914228D02*
X151367552Y-78866609D01*
X151367552Y-78866609D02*
X151700885Y-78866609D01*
X151700885Y-78866609D02*
X151891361Y-78914228D01*
X151891361Y-78914228D02*
X151986600Y-79009466D01*
X151986600Y-79009466D02*
X152034219Y-79104704D01*
X152034219Y-79104704D02*
X152034219Y-79295180D01*
X152034219Y-79295180D02*
X151986600Y-79390418D01*
X151986600Y-79390418D02*
X151891361Y-79485656D01*
X151891361Y-79485656D02*
X151700885Y-79533275D01*
X151700885Y-79533275D02*
X151367552Y-79533275D01*
X151367552Y-79533275D02*
X151177076Y-79485656D01*
X151177076Y-79485656D02*
X151081838Y-79390418D01*
X151081838Y-79390418D02*
X151034219Y-79295180D01*
X152034219Y-78438037D02*
X151034219Y-78438037D01*
X151034219Y-78438037D02*
X151034219Y-78057085D01*
X151034219Y-78057085D02*
X151081838Y-77961847D01*
X151081838Y-77961847D02*
X151129457Y-77914228D01*
X151129457Y-77914228D02*
X151224695Y-77866609D01*
X151224695Y-77866609D02*
X151367552Y-77866609D01*
X151367552Y-77866609D02*
X151462790Y-77914228D01*
X151462790Y-77914228D02*
X151510409Y-77961847D01*
X151510409Y-77961847D02*
X151558028Y-78057085D01*
X151558028Y-78057085D02*
X151558028Y-78438037D01*
X151034219Y-77580894D02*
X151034219Y-77009466D01*
X152034219Y-77295180D02*
X151034219Y-77295180D01*
X151034219Y-76485656D02*
X151034219Y-76295180D01*
X151034219Y-76295180D02*
X151081838Y-76199942D01*
X151081838Y-76199942D02*
X151177076Y-76104704D01*
X151177076Y-76104704D02*
X151367552Y-76057085D01*
X151367552Y-76057085D02*
X151700885Y-76057085D01*
X151700885Y-76057085D02*
X151891361Y-76104704D01*
X151891361Y-76104704D02*
X151986600Y-76199942D01*
X151986600Y-76199942D02*
X152034219Y-76295180D01*
X152034219Y-76295180D02*
X152034219Y-76485656D01*
X152034219Y-76485656D02*
X151986600Y-76580894D01*
X151986600Y-76580894D02*
X151891361Y-76676132D01*
X151891361Y-76676132D02*
X151700885Y-76723751D01*
X151700885Y-76723751D02*
X151367552Y-76723751D01*
X151367552Y-76723751D02*
X151177076Y-76676132D01*
X151177076Y-76676132D02*
X151081838Y-76580894D01*
X151081838Y-76580894D02*
X151034219Y-76485656D01*
X152034219Y-75104704D02*
X152034219Y-75676132D01*
X152034219Y-75390418D02*
X151034219Y-75390418D01*
X151034219Y-75390418D02*
X151177076Y-75485656D01*
X151177076Y-75485656D02*
X151272314Y-75580894D01*
X151272314Y-75580894D02*
X151319933Y-75676132D01*
X151034219Y-74771370D02*
X151034219Y-74152323D01*
X151034219Y-74152323D02*
X151415171Y-74485656D01*
X151415171Y-74485656D02*
X151415171Y-74342799D01*
X151415171Y-74342799D02*
X151462790Y-74247561D01*
X151462790Y-74247561D02*
X151510409Y-74199942D01*
X151510409Y-74199942D02*
X151605647Y-74152323D01*
X151605647Y-74152323D02*
X151843742Y-74152323D01*
X151843742Y-74152323D02*
X151938980Y-74199942D01*
X151938980Y-74199942D02*
X151986600Y-74247561D01*
X151986600Y-74247561D02*
X152034219Y-74342799D01*
X152034219Y-74342799D02*
X152034219Y-74628513D01*
X152034219Y-74628513D02*
X151986600Y-74723751D01*
X151986600Y-74723751D02*
X151938980Y-74771370D01*
X167684642Y-107684819D02*
X167351309Y-107208628D01*
X167113214Y-107684819D02*
X167113214Y-106684819D01*
X167113214Y-106684819D02*
X167494166Y-106684819D01*
X167494166Y-106684819D02*
X167589404Y-106732438D01*
X167589404Y-106732438D02*
X167637023Y-106780057D01*
X167637023Y-106780057D02*
X167684642Y-106875295D01*
X167684642Y-106875295D02*
X167684642Y-107018152D01*
X167684642Y-107018152D02*
X167637023Y-107113390D01*
X167637023Y-107113390D02*
X167589404Y-107161009D01*
X167589404Y-107161009D02*
X167494166Y-107208628D01*
X167494166Y-107208628D02*
X167113214Y-107208628D01*
X168637023Y-107684819D02*
X168065595Y-107684819D01*
X168351309Y-107684819D02*
X168351309Y-106684819D01*
X168351309Y-106684819D02*
X168256071Y-106827676D01*
X168256071Y-106827676D02*
X168160833Y-106922914D01*
X168160833Y-106922914D02*
X168065595Y-106970533D01*
X169113214Y-107684819D02*
X169303690Y-107684819D01*
X169303690Y-107684819D02*
X169398928Y-107637200D01*
X169398928Y-107637200D02*
X169446547Y-107589580D01*
X169446547Y-107589580D02*
X169541785Y-107446723D01*
X169541785Y-107446723D02*
X169589404Y-107256247D01*
X169589404Y-107256247D02*
X169589404Y-106875295D01*
X169589404Y-106875295D02*
X169541785Y-106780057D01*
X169541785Y-106780057D02*
X169494166Y-106732438D01*
X169494166Y-106732438D02*
X169398928Y-106684819D01*
X169398928Y-106684819D02*
X169208452Y-106684819D01*
X169208452Y-106684819D02*
X169113214Y-106732438D01*
X169113214Y-106732438D02*
X169065595Y-106780057D01*
X169065595Y-106780057D02*
X169017976Y-106875295D01*
X169017976Y-106875295D02*
X169017976Y-107113390D01*
X169017976Y-107113390D02*
X169065595Y-107208628D01*
X169065595Y-107208628D02*
X169113214Y-107256247D01*
X169113214Y-107256247D02*
X169208452Y-107303866D01*
X169208452Y-107303866D02*
X169398928Y-107303866D01*
X169398928Y-107303866D02*
X169494166Y-107256247D01*
X169494166Y-107256247D02*
X169541785Y-107208628D01*
X169541785Y-107208628D02*
X169589404Y-107113390D01*
X107249580Y-69966666D02*
X107297200Y-70014285D01*
X107297200Y-70014285D02*
X107344819Y-70157142D01*
X107344819Y-70157142D02*
X107344819Y-70252380D01*
X107344819Y-70252380D02*
X107297200Y-70395237D01*
X107297200Y-70395237D02*
X107201961Y-70490475D01*
X107201961Y-70490475D02*
X107106723Y-70538094D01*
X107106723Y-70538094D02*
X106916247Y-70585713D01*
X106916247Y-70585713D02*
X106773390Y-70585713D01*
X106773390Y-70585713D02*
X106582914Y-70538094D01*
X106582914Y-70538094D02*
X106487676Y-70490475D01*
X106487676Y-70490475D02*
X106392438Y-70395237D01*
X106392438Y-70395237D02*
X106344819Y-70252380D01*
X106344819Y-70252380D02*
X106344819Y-70157142D01*
X106344819Y-70157142D02*
X106392438Y-70014285D01*
X106392438Y-70014285D02*
X106440057Y-69966666D01*
X106440057Y-69585713D02*
X106392438Y-69538094D01*
X106392438Y-69538094D02*
X106344819Y-69442856D01*
X106344819Y-69442856D02*
X106344819Y-69204761D01*
X106344819Y-69204761D02*
X106392438Y-69109523D01*
X106392438Y-69109523D02*
X106440057Y-69061904D01*
X106440057Y-69061904D02*
X106535295Y-69014285D01*
X106535295Y-69014285D02*
X106630533Y-69014285D01*
X106630533Y-69014285D02*
X106773390Y-69061904D01*
X106773390Y-69061904D02*
X107344819Y-69633332D01*
X107344819Y-69633332D02*
X107344819Y-69014285D01*
X156959219Y-79370180D02*
X156959219Y-79179704D01*
X156959219Y-79179704D02*
X157006838Y-79084466D01*
X157006838Y-79084466D02*
X157102076Y-78989228D01*
X157102076Y-78989228D02*
X157292552Y-78941609D01*
X157292552Y-78941609D02*
X157625885Y-78941609D01*
X157625885Y-78941609D02*
X157816361Y-78989228D01*
X157816361Y-78989228D02*
X157911600Y-79084466D01*
X157911600Y-79084466D02*
X157959219Y-79179704D01*
X157959219Y-79179704D02*
X157959219Y-79370180D01*
X157959219Y-79370180D02*
X157911600Y-79465418D01*
X157911600Y-79465418D02*
X157816361Y-79560656D01*
X157816361Y-79560656D02*
X157625885Y-79608275D01*
X157625885Y-79608275D02*
X157292552Y-79608275D01*
X157292552Y-79608275D02*
X157102076Y-79560656D01*
X157102076Y-79560656D02*
X157006838Y-79465418D01*
X157006838Y-79465418D02*
X156959219Y-79370180D01*
X157959219Y-78513037D02*
X156959219Y-78513037D01*
X156959219Y-78513037D02*
X156959219Y-78132085D01*
X156959219Y-78132085D02*
X157006838Y-78036847D01*
X157006838Y-78036847D02*
X157054457Y-77989228D01*
X157054457Y-77989228D02*
X157149695Y-77941609D01*
X157149695Y-77941609D02*
X157292552Y-77941609D01*
X157292552Y-77941609D02*
X157387790Y-77989228D01*
X157387790Y-77989228D02*
X157435409Y-78036847D01*
X157435409Y-78036847D02*
X157483028Y-78132085D01*
X157483028Y-78132085D02*
X157483028Y-78513037D01*
X156959219Y-77655894D02*
X156959219Y-77084466D01*
X157959219Y-77370180D02*
X156959219Y-77370180D01*
X156959219Y-76560656D02*
X156959219Y-76370180D01*
X156959219Y-76370180D02*
X157006838Y-76274942D01*
X157006838Y-76274942D02*
X157102076Y-76179704D01*
X157102076Y-76179704D02*
X157292552Y-76132085D01*
X157292552Y-76132085D02*
X157625885Y-76132085D01*
X157625885Y-76132085D02*
X157816361Y-76179704D01*
X157816361Y-76179704D02*
X157911600Y-76274942D01*
X157911600Y-76274942D02*
X157959219Y-76370180D01*
X157959219Y-76370180D02*
X157959219Y-76560656D01*
X157959219Y-76560656D02*
X157911600Y-76655894D01*
X157911600Y-76655894D02*
X157816361Y-76751132D01*
X157816361Y-76751132D02*
X157625885Y-76798751D01*
X157625885Y-76798751D02*
X157292552Y-76798751D01*
X157292552Y-76798751D02*
X157102076Y-76751132D01*
X157102076Y-76751132D02*
X157006838Y-76655894D01*
X157006838Y-76655894D02*
X156959219Y-76560656D01*
X157959219Y-75179704D02*
X157959219Y-75751132D01*
X157959219Y-75465418D02*
X156959219Y-75465418D01*
X156959219Y-75465418D02*
X157102076Y-75560656D01*
X157102076Y-75560656D02*
X157197314Y-75655894D01*
X157197314Y-75655894D02*
X157244933Y-75751132D01*
X157054457Y-74798751D02*
X157006838Y-74751132D01*
X157006838Y-74751132D02*
X156959219Y-74655894D01*
X156959219Y-74655894D02*
X156959219Y-74417799D01*
X156959219Y-74417799D02*
X157006838Y-74322561D01*
X157006838Y-74322561D02*
X157054457Y-74274942D01*
X157054457Y-74274942D02*
X157149695Y-74227323D01*
X157149695Y-74227323D02*
X157244933Y-74227323D01*
X157244933Y-74227323D02*
X157387790Y-74274942D01*
X157387790Y-74274942D02*
X157959219Y-74846370D01*
X157959219Y-74846370D02*
X157959219Y-74227323D01*
X129399819Y-77986904D02*
X130209342Y-77986904D01*
X130209342Y-77986904D02*
X130304580Y-77939285D01*
X130304580Y-77939285D02*
X130352200Y-77891666D01*
X130352200Y-77891666D02*
X130399819Y-77796428D01*
X130399819Y-77796428D02*
X130399819Y-77605952D01*
X130399819Y-77605952D02*
X130352200Y-77510714D01*
X130352200Y-77510714D02*
X130304580Y-77463095D01*
X130304580Y-77463095D02*
X130209342Y-77415476D01*
X130209342Y-77415476D02*
X129399819Y-77415476D01*
X129733152Y-76510714D02*
X130399819Y-76510714D01*
X129352200Y-76748809D02*
X130066485Y-76986904D01*
X130066485Y-76986904D02*
X130066485Y-76367857D01*
X154928571Y-64104819D02*
X154595238Y-63628628D01*
X154357143Y-64104819D02*
X154357143Y-63104819D01*
X154357143Y-63104819D02*
X154738095Y-63104819D01*
X154738095Y-63104819D02*
X154833333Y-63152438D01*
X154833333Y-63152438D02*
X154880952Y-63200057D01*
X154880952Y-63200057D02*
X154928571Y-63295295D01*
X154928571Y-63295295D02*
X154928571Y-63438152D01*
X154928571Y-63438152D02*
X154880952Y-63533390D01*
X154880952Y-63533390D02*
X154833333Y-63581009D01*
X154833333Y-63581009D02*
X154738095Y-63628628D01*
X154738095Y-63628628D02*
X154357143Y-63628628D01*
X155833333Y-64104819D02*
X155357143Y-64104819D01*
X155357143Y-64104819D02*
X155357143Y-63104819D01*
X156071429Y-63104819D02*
X156690476Y-63104819D01*
X156690476Y-63104819D02*
X156357143Y-63485771D01*
X156357143Y-63485771D02*
X156500000Y-63485771D01*
X156500000Y-63485771D02*
X156595238Y-63533390D01*
X156595238Y-63533390D02*
X156642857Y-63581009D01*
X156642857Y-63581009D02*
X156690476Y-63676247D01*
X156690476Y-63676247D02*
X156690476Y-63914342D01*
X156690476Y-63914342D02*
X156642857Y-64009580D01*
X156642857Y-64009580D02*
X156595238Y-64057200D01*
X156595238Y-64057200D02*
X156500000Y-64104819D01*
X156500000Y-64104819D02*
X156214286Y-64104819D01*
X156214286Y-64104819D02*
X156119048Y-64057200D01*
X156119048Y-64057200D02*
X156071429Y-64009580D01*
X115163333Y-64729580D02*
X115115714Y-64777200D01*
X115115714Y-64777200D02*
X114972857Y-64824819D01*
X114972857Y-64824819D02*
X114877619Y-64824819D01*
X114877619Y-64824819D02*
X114734762Y-64777200D01*
X114734762Y-64777200D02*
X114639524Y-64681961D01*
X114639524Y-64681961D02*
X114591905Y-64586723D01*
X114591905Y-64586723D02*
X114544286Y-64396247D01*
X114544286Y-64396247D02*
X114544286Y-64253390D01*
X114544286Y-64253390D02*
X114591905Y-64062914D01*
X114591905Y-64062914D02*
X114639524Y-63967676D01*
X114639524Y-63967676D02*
X114734762Y-63872438D01*
X114734762Y-63872438D02*
X114877619Y-63824819D01*
X114877619Y-63824819D02*
X114972857Y-63824819D01*
X114972857Y-63824819D02*
X115115714Y-63872438D01*
X115115714Y-63872438D02*
X115163333Y-63920057D01*
X115496667Y-63824819D02*
X116115714Y-63824819D01*
X116115714Y-63824819D02*
X115782381Y-64205771D01*
X115782381Y-64205771D02*
X115925238Y-64205771D01*
X115925238Y-64205771D02*
X116020476Y-64253390D01*
X116020476Y-64253390D02*
X116068095Y-64301009D01*
X116068095Y-64301009D02*
X116115714Y-64396247D01*
X116115714Y-64396247D02*
X116115714Y-64634342D01*
X116115714Y-64634342D02*
X116068095Y-64729580D01*
X116068095Y-64729580D02*
X116020476Y-64777200D01*
X116020476Y-64777200D02*
X115925238Y-64824819D01*
X115925238Y-64824819D02*
X115639524Y-64824819D01*
X115639524Y-64824819D02*
X115544286Y-64777200D01*
X115544286Y-64777200D02*
X115496667Y-64729580D01*
X193508333Y-62864580D02*
X193460714Y-62912200D01*
X193460714Y-62912200D02*
X193317857Y-62959819D01*
X193317857Y-62959819D02*
X193222619Y-62959819D01*
X193222619Y-62959819D02*
X193079762Y-62912200D01*
X193079762Y-62912200D02*
X192984524Y-62816961D01*
X192984524Y-62816961D02*
X192936905Y-62721723D01*
X192936905Y-62721723D02*
X192889286Y-62531247D01*
X192889286Y-62531247D02*
X192889286Y-62388390D01*
X192889286Y-62388390D02*
X192936905Y-62197914D01*
X192936905Y-62197914D02*
X192984524Y-62102676D01*
X192984524Y-62102676D02*
X193079762Y-62007438D01*
X193079762Y-62007438D02*
X193222619Y-61959819D01*
X193222619Y-61959819D02*
X193317857Y-61959819D01*
X193317857Y-61959819D02*
X193460714Y-62007438D01*
X193460714Y-62007438D02*
X193508333Y-62055057D01*
X194508333Y-62959819D02*
X194175000Y-62483628D01*
X193936905Y-62959819D02*
X193936905Y-61959819D01*
X193936905Y-61959819D02*
X194317857Y-61959819D01*
X194317857Y-61959819D02*
X194413095Y-62007438D01*
X194413095Y-62007438D02*
X194460714Y-62055057D01*
X194460714Y-62055057D02*
X194508333Y-62150295D01*
X194508333Y-62150295D02*
X194508333Y-62293152D01*
X194508333Y-62293152D02*
X194460714Y-62388390D01*
X194460714Y-62388390D02*
X194413095Y-62436009D01*
X194413095Y-62436009D02*
X194317857Y-62483628D01*
X194317857Y-62483628D02*
X193936905Y-62483628D01*
X195460714Y-62959819D02*
X194889286Y-62959819D01*
X195175000Y-62959819D02*
X195175000Y-61959819D01*
X195175000Y-61959819D02*
X195079762Y-62102676D01*
X195079762Y-62102676D02*
X194984524Y-62197914D01*
X194984524Y-62197914D02*
X194889286Y-62245533D01*
X87493333Y-102209580D02*
X87445714Y-102257200D01*
X87445714Y-102257200D02*
X87302857Y-102304819D01*
X87302857Y-102304819D02*
X87207619Y-102304819D01*
X87207619Y-102304819D02*
X87064762Y-102257200D01*
X87064762Y-102257200D02*
X86969524Y-102161961D01*
X86969524Y-102161961D02*
X86921905Y-102066723D01*
X86921905Y-102066723D02*
X86874286Y-101876247D01*
X86874286Y-101876247D02*
X86874286Y-101733390D01*
X86874286Y-101733390D02*
X86921905Y-101542914D01*
X86921905Y-101542914D02*
X86969524Y-101447676D01*
X86969524Y-101447676D02*
X87064762Y-101352438D01*
X87064762Y-101352438D02*
X87207619Y-101304819D01*
X87207619Y-101304819D02*
X87302857Y-101304819D01*
X87302857Y-101304819D02*
X87445714Y-101352438D01*
X87445714Y-101352438D02*
X87493333Y-101400057D01*
X87874286Y-101400057D02*
X87921905Y-101352438D01*
X87921905Y-101352438D02*
X88017143Y-101304819D01*
X88017143Y-101304819D02*
X88255238Y-101304819D01*
X88255238Y-101304819D02*
X88350476Y-101352438D01*
X88350476Y-101352438D02*
X88398095Y-101400057D01*
X88398095Y-101400057D02*
X88445714Y-101495295D01*
X88445714Y-101495295D02*
X88445714Y-101590533D01*
X88445714Y-101590533D02*
X88398095Y-101733390D01*
X88398095Y-101733390D02*
X87826667Y-102304819D01*
X87826667Y-102304819D02*
X88445714Y-102304819D01*
X170804819Y-95142857D02*
X170328628Y-95476190D01*
X170804819Y-95714285D02*
X169804819Y-95714285D01*
X169804819Y-95714285D02*
X169804819Y-95333333D01*
X169804819Y-95333333D02*
X169852438Y-95238095D01*
X169852438Y-95238095D02*
X169900057Y-95190476D01*
X169900057Y-95190476D02*
X169995295Y-95142857D01*
X169995295Y-95142857D02*
X170138152Y-95142857D01*
X170138152Y-95142857D02*
X170233390Y-95190476D01*
X170233390Y-95190476D02*
X170281009Y-95238095D01*
X170281009Y-95238095D02*
X170328628Y-95333333D01*
X170328628Y-95333333D02*
X170328628Y-95714285D01*
X169900057Y-94761904D02*
X169852438Y-94714285D01*
X169852438Y-94714285D02*
X169804819Y-94619047D01*
X169804819Y-94619047D02*
X169804819Y-94380952D01*
X169804819Y-94380952D02*
X169852438Y-94285714D01*
X169852438Y-94285714D02*
X169900057Y-94238095D01*
X169900057Y-94238095D02*
X169995295Y-94190476D01*
X169995295Y-94190476D02*
X170090533Y-94190476D01*
X170090533Y-94190476D02*
X170233390Y-94238095D01*
X170233390Y-94238095D02*
X170804819Y-94809523D01*
X170804819Y-94809523D02*
X170804819Y-94190476D01*
X170804819Y-93714285D02*
X170804819Y-93523809D01*
X170804819Y-93523809D02*
X170757200Y-93428571D01*
X170757200Y-93428571D02*
X170709580Y-93380952D01*
X170709580Y-93380952D02*
X170566723Y-93285714D01*
X170566723Y-93285714D02*
X170376247Y-93238095D01*
X170376247Y-93238095D02*
X169995295Y-93238095D01*
X169995295Y-93238095D02*
X169900057Y-93285714D01*
X169900057Y-93285714D02*
X169852438Y-93333333D01*
X169852438Y-93333333D02*
X169804819Y-93428571D01*
X169804819Y-93428571D02*
X169804819Y-93619047D01*
X169804819Y-93619047D02*
X169852438Y-93714285D01*
X169852438Y-93714285D02*
X169900057Y-93761904D01*
X169900057Y-93761904D02*
X169995295Y-93809523D01*
X169995295Y-93809523D02*
X170233390Y-93809523D01*
X170233390Y-93809523D02*
X170328628Y-93761904D01*
X170328628Y-93761904D02*
X170376247Y-93714285D01*
X170376247Y-93714285D02*
X170423866Y-93619047D01*
X170423866Y-93619047D02*
X170423866Y-93428571D01*
X170423866Y-93428571D02*
X170376247Y-93333333D01*
X170376247Y-93333333D02*
X170328628Y-93285714D01*
X170328628Y-93285714D02*
X170233390Y-93238095D01*
X122953333Y-66179580D02*
X122905714Y-66227200D01*
X122905714Y-66227200D02*
X122762857Y-66274819D01*
X122762857Y-66274819D02*
X122667619Y-66274819D01*
X122667619Y-66274819D02*
X122524762Y-66227200D01*
X122524762Y-66227200D02*
X122429524Y-66131961D01*
X122429524Y-66131961D02*
X122381905Y-66036723D01*
X122381905Y-66036723D02*
X122334286Y-65846247D01*
X122334286Y-65846247D02*
X122334286Y-65703390D01*
X122334286Y-65703390D02*
X122381905Y-65512914D01*
X122381905Y-65512914D02*
X122429524Y-65417676D01*
X122429524Y-65417676D02*
X122524762Y-65322438D01*
X122524762Y-65322438D02*
X122667619Y-65274819D01*
X122667619Y-65274819D02*
X122762857Y-65274819D01*
X122762857Y-65274819D02*
X122905714Y-65322438D01*
X122905714Y-65322438D02*
X122953333Y-65370057D01*
X123286667Y-65274819D02*
X123905714Y-65274819D01*
X123905714Y-65274819D02*
X123572381Y-65655771D01*
X123572381Y-65655771D02*
X123715238Y-65655771D01*
X123715238Y-65655771D02*
X123810476Y-65703390D01*
X123810476Y-65703390D02*
X123858095Y-65751009D01*
X123858095Y-65751009D02*
X123905714Y-65846247D01*
X123905714Y-65846247D02*
X123905714Y-66084342D01*
X123905714Y-66084342D02*
X123858095Y-66179580D01*
X123858095Y-66179580D02*
X123810476Y-66227200D01*
X123810476Y-66227200D02*
X123715238Y-66274819D01*
X123715238Y-66274819D02*
X123429524Y-66274819D01*
X123429524Y-66274819D02*
X123334286Y-66227200D01*
X123334286Y-66227200D02*
X123286667Y-66179580D01*
X135742261Y-63154819D02*
X135408928Y-62678628D01*
X135170833Y-63154819D02*
X135170833Y-62154819D01*
X135170833Y-62154819D02*
X135551785Y-62154819D01*
X135551785Y-62154819D02*
X135647023Y-62202438D01*
X135647023Y-62202438D02*
X135694642Y-62250057D01*
X135694642Y-62250057D02*
X135742261Y-62345295D01*
X135742261Y-62345295D02*
X135742261Y-62488152D01*
X135742261Y-62488152D02*
X135694642Y-62583390D01*
X135694642Y-62583390D02*
X135647023Y-62631009D01*
X135647023Y-62631009D02*
X135551785Y-62678628D01*
X135551785Y-62678628D02*
X135170833Y-62678628D01*
X136504166Y-62631009D02*
X136170833Y-62631009D01*
X136170833Y-63154819D02*
X136170833Y-62154819D01*
X136170833Y-62154819D02*
X136647023Y-62154819D01*
X137551785Y-63154819D02*
X136980357Y-63154819D01*
X137266071Y-63154819D02*
X137266071Y-62154819D01*
X137266071Y-62154819D02*
X137170833Y-62297676D01*
X137170833Y-62297676D02*
X137075595Y-62392914D01*
X137075595Y-62392914D02*
X136980357Y-62440533D01*
D11*
%TO.C,LED5*%
X142400000Y-127410000D02*
X145085000Y-127410000D01*
X145085000Y-125490000D02*
X142400000Y-125490000D01*
X145085000Y-127410000D02*
X145085000Y-125490000D01*
%TO.C,Q2*%
X116740000Y-125687500D02*
X116740000Y-125037500D01*
X116740000Y-125687500D02*
X116740000Y-126337500D01*
X119860000Y-125687500D02*
X119860000Y-124012500D01*
X119860000Y-125687500D02*
X119860000Y-126337500D01*
%TO.C,S2*%
X133367660Y-114042460D02*
X133367660Y-115542460D01*
X134617660Y-118042460D02*
X139117660Y-118042460D01*
X139117660Y-111542460D02*
X134617660Y-111542460D01*
X140367660Y-115542460D02*
X140367660Y-114042460D01*
%TO.C,R23*%
X126365000Y-94222936D02*
X126365000Y-94677064D01*
X127835000Y-94222936D02*
X127835000Y-94677064D01*
%TO.C,R39*%
X177940000Y-65385436D02*
X177940000Y-65839564D01*
X179410000Y-65385436D02*
X179410000Y-65839564D01*
%TO.C,R26*%
X149065000Y-94272936D02*
X149065000Y-94727064D01*
X150535000Y-94272936D02*
X150535000Y-94727064D01*
%TO.C,R17*%
X153487064Y-105375000D02*
X153032936Y-105375000D01*
X153487064Y-106845000D02*
X153032936Y-106845000D01*
%TO.C,R7*%
X153322936Y-123265000D02*
X153777064Y-123265000D01*
X153322936Y-124735000D02*
X153777064Y-124735000D01*
%TO.C,LED12*%
X159440000Y-60465000D02*
X159440000Y-62385000D01*
X159440000Y-62385000D02*
X162125000Y-62385000D01*
X162125000Y-60465000D02*
X159440000Y-60465000D01*
%TO.C,R36*%
X154222936Y-67240000D02*
X154677064Y-67240000D01*
X154222936Y-68710000D02*
X154677064Y-68710000D01*
%TO.C,D3*%
X103000000Y-114035000D02*
X106885000Y-114035000D01*
X106885000Y-111765000D02*
X103000000Y-111765000D01*
X106885000Y-114035000D02*
X106885000Y-111765000D01*
%TO.C,R9*%
X163610436Y-123015000D02*
X164064564Y-123015000D01*
X163610436Y-124485000D02*
X164064564Y-124485000D01*
%TO.C,Q5*%
X144490000Y-112437500D02*
X144490000Y-111787500D01*
X144490000Y-112437500D02*
X144490000Y-113087500D01*
X147610000Y-112437500D02*
X147610000Y-110762500D01*
X147610000Y-112437500D02*
X147610000Y-113087500D01*
%TO.C,R1*%
X122860436Y-123265000D02*
X123314564Y-123265000D01*
X122860436Y-124735000D02*
X123314564Y-124735000D01*
%TO.C,Q9*%
X178490000Y-112687500D02*
X178490000Y-112037500D01*
X178490000Y-112687500D02*
X178490000Y-113337500D01*
X181610000Y-112687500D02*
X181610000Y-111012500D01*
X181610000Y-112687500D02*
X181610000Y-113337500D01*
%TO.C,R33*%
X193665000Y-65777064D02*
X193665000Y-65322936D01*
X195135000Y-65777064D02*
X195135000Y-65322936D01*
%TO.C,Q1*%
X112240000Y-125687500D02*
X112240000Y-125037500D01*
X112240000Y-125687500D02*
X112240000Y-126337500D01*
X115360000Y-125687500D02*
X115360000Y-124012500D01*
X115360000Y-125687500D02*
X115360000Y-126337500D01*
%TO.C,OPTO10*%
X173820000Y-91350000D02*
X177920000Y-91350000D01*
X173820000Y-103350000D02*
X173820000Y-91350000D01*
X177920000Y-91350000D02*
X177920000Y-103350000D01*
X177920000Y-103350000D02*
X173820000Y-103350000D01*
%TO.C,D4*%
X103000000Y-117135000D02*
X106885000Y-117135000D01*
X106885000Y-114865000D02*
X103000000Y-114865000D01*
X106885000Y-117135000D02*
X106885000Y-114865000D01*
%TO.C,OPTO9*%
X166320000Y-91350000D02*
X170420000Y-91350000D01*
X166320000Y-103350000D02*
X166320000Y-91350000D01*
X170420000Y-91350000D02*
X170420000Y-103350000D01*
X170420000Y-103350000D02*
X166320000Y-103350000D01*
%TO.C,OPTO5*%
X136220000Y-91250000D02*
X140320000Y-91250000D01*
X136220000Y-103250000D02*
X136220000Y-91250000D01*
X140320000Y-91250000D02*
X140320000Y-103250000D01*
X140320000Y-103250000D02*
X136220000Y-103250000D01*
%TO.C,Q4*%
X126490000Y-116937500D02*
X126490000Y-116287500D01*
X126490000Y-116937500D02*
X126490000Y-117587500D01*
X129610000Y-116937500D02*
X129610000Y-115262500D01*
X129610000Y-116937500D02*
X129610000Y-117587500D01*
%TO.C,U1*%
X88355000Y-66990000D02*
X88355000Y-84690000D01*
X88355000Y-84690000D02*
X88355000Y-84790000D01*
X88955000Y-66990000D02*
X88355000Y-66990000D01*
X88955000Y-84790000D02*
X88355000Y-84790000D01*
X97855000Y-66990000D02*
X91255000Y-66990000D01*
X97855000Y-84790000D02*
X91255000Y-84790000D01*
X100655000Y-66990000D02*
X100155000Y-66990000D01*
X100655000Y-66990000D02*
X100655000Y-84690000D01*
X100655000Y-84690000D02*
X100655000Y-84790000D01*
X100655000Y-84790000D02*
X100155000Y-84790000D01*
%TO.C,Q10*%
X178490000Y-117437500D02*
X178490000Y-116787500D01*
X178490000Y-117437500D02*
X178490000Y-118087500D01*
X181610000Y-117437500D02*
X181610000Y-115762500D01*
X181610000Y-117437500D02*
X181610000Y-118087500D01*
%TO.C,RT1*%
X136865000Y-70552064D02*
X136865000Y-70097936D01*
X138335000Y-70552064D02*
X138335000Y-70097936D01*
%TO.C,D10*%
X103000000Y-135635000D02*
X106885000Y-135635000D01*
X106885000Y-133365000D02*
X103000000Y-133365000D01*
X106885000Y-135635000D02*
X106885000Y-133365000D01*
%TO.C,D1*%
X103000000Y-107835000D02*
X106885000Y-107835000D01*
X106885000Y-105565000D02*
X103000000Y-105565000D01*
X106885000Y-107835000D02*
X106885000Y-105565000D01*
%TO.C,J2*%
X179450000Y-69720000D02*
X179450000Y-71220000D01*
X179450000Y-88120000D02*
X179450000Y-86620000D01*
X179450000Y-88120000D02*
X180450000Y-88120000D01*
X180450000Y-69720000D02*
X179450000Y-69720000D01*
X198500000Y-69720000D02*
X198500000Y-69320000D01*
X198500000Y-69720000D02*
X205300000Y-69720000D01*
X205300000Y-69720000D02*
X205300000Y-88120000D01*
X205300000Y-88120000D02*
X199100000Y-88120000D01*
%TO.C,Dled1*%
X174615000Y-131390000D02*
X174615000Y-133310000D01*
X174615000Y-133310000D02*
X177300000Y-133310000D01*
X177300000Y-131390000D02*
X174615000Y-131390000D01*
%TO.C,R25*%
X141315000Y-94727064D02*
X141315000Y-94272936D01*
X142785000Y-94727064D02*
X142785000Y-94272936D01*
%TO.C,R14*%
X133815000Y-100477064D02*
X133815000Y-100022936D01*
X135285000Y-100477064D02*
X135285000Y-100022936D01*
%TO.C,OPTO3*%
X121220000Y-91300000D02*
X125320000Y-91300000D01*
X121220000Y-103300000D02*
X121220000Y-91300000D01*
X125320000Y-91300000D02*
X125320000Y-103300000D01*
X125320000Y-103300000D02*
X121220000Y-103300000D01*
%TO.C,R34*%
X196865000Y-65777064D02*
X196865000Y-65322936D01*
X198335000Y-65777064D02*
X198335000Y-65322936D01*
%TO.C,R28*%
X163915000Y-94727064D02*
X163915000Y-94272936D01*
X165385000Y-94727064D02*
X165385000Y-94272936D01*
%TO.C,R_led2*%
X182272936Y-127565000D02*
X182727064Y-127565000D01*
X182272936Y-129035000D02*
X182727064Y-129035000D01*
%TO.C,OPTO7*%
X151220000Y-91225000D02*
X155320000Y-91225000D01*
X151220000Y-103225000D02*
X151220000Y-91225000D01*
X155320000Y-91225000D02*
X155320000Y-103225000D01*
X155320000Y-103225000D02*
X151220000Y-103225000D01*
%TO.C,OPTO2*%
X113750000Y-91300000D02*
X117850000Y-91300000D01*
X113750000Y-103300000D02*
X113750000Y-91300000D01*
X117850000Y-91300000D02*
X117850000Y-103300000D01*
X117850000Y-103300000D02*
X113750000Y-103300000D01*
%TO.C,R35*%
X148197936Y-67240000D02*
X148652064Y-67240000D01*
X148197936Y-68710000D02*
X148652064Y-68710000D01*
%TO.C,Q7*%
X161990000Y-111937500D02*
X161990000Y-111287500D01*
X161990000Y-111937500D02*
X161990000Y-112587500D01*
X165110000Y-111937500D02*
X165110000Y-110262500D01*
X165110000Y-111937500D02*
X165110000Y-112587500D01*
%TO.C,S4*%
X168927660Y-114042460D02*
X168927660Y-115542460D01*
X170177660Y-118042460D02*
X174677660Y-118042460D01*
X174677660Y-111542460D02*
X170177660Y-111542460D01*
X175927660Y-115542460D02*
X175927660Y-114042460D01*
%TO.C,R21*%
X126265000Y-84685436D02*
X126265000Y-85139564D01*
X127735000Y-84685436D02*
X127735000Y-85139564D01*
%TO.C,R31*%
X187365000Y-65702064D02*
X187365000Y-65247936D01*
X188835000Y-65702064D02*
X188835000Y-65247936D01*
%TO.C,R2*%
X127360436Y-123265000D02*
X127814564Y-123265000D01*
X127360436Y-124735000D02*
X127814564Y-124735000D01*
%TO.C,R27*%
X156415000Y-94727064D02*
X156415000Y-94272936D01*
X157885000Y-94727064D02*
X157885000Y-94272936D01*
%TO.C,Y1*%
X132850000Y-84410000D02*
X132040000Y-84410000D01*
X132850000Y-86950000D02*
X132040000Y-86950000D01*
X134220000Y-85080000D02*
X132850000Y-84410000D01*
X134220000Y-86280000D02*
X132850000Y-86950000D01*
X134220000Y-87440000D02*
X145240000Y-87440000D01*
X145240000Y-83920000D01*
X134220000Y-83920000D01*
X134220000Y-87440000D01*
%TO.C,J3*%
X112065845Y-74937645D02*
X112065845Y-67257645D01*
X114725845Y-67257645D02*
X112065845Y-67257645D01*
X114725845Y-74937645D02*
X112065845Y-74937645D01*
X114725845Y-74937645D02*
X114725845Y-67257645D01*
X114725845Y-76207645D02*
X114725845Y-77537645D01*
X114725845Y-77537645D02*
X113395845Y-77537645D01*
%TO.C,LED1*%
X122062500Y-127460000D02*
X124747500Y-127460000D01*
X124747500Y-125540000D02*
X122062500Y-125540000D01*
X124747500Y-127460000D02*
X124747500Y-125540000D01*
%TO.C,LED7*%
X152550000Y-127460000D02*
X155235000Y-127460000D01*
X155235000Y-125540000D02*
X152550000Y-125540000D01*
X155235000Y-127460000D02*
X155235000Y-125540000D01*
%TO.C,RT2*%
X133265000Y-70539564D02*
X133265000Y-70085436D01*
X134735000Y-70539564D02*
X134735000Y-70085436D01*
%TO.C,OPTO6*%
X143720000Y-91250000D02*
X147820000Y-91250000D01*
X143720000Y-103250000D02*
X143720000Y-91250000D01*
X147820000Y-91250000D02*
X147820000Y-103250000D01*
X147820000Y-103250000D02*
X143720000Y-103250000D01*
%TO.C,LED13*%
X154377500Y-60440000D02*
X154377500Y-62360000D01*
X154377500Y-62360000D02*
X157062500Y-62360000D01*
X157062500Y-60440000D02*
X154377500Y-60440000D01*
%TO.C,S3*%
X151147660Y-114042460D02*
X151147660Y-115542460D01*
X152397660Y-118042460D02*
X156897660Y-118042460D01*
X156897660Y-111542460D02*
X152397660Y-111542460D01*
X158147660Y-115542460D02*
X158147660Y-114042460D01*
%TO.C,LED14*%
X149465000Y-60440000D02*
X149465000Y-62360000D01*
X149465000Y-62360000D02*
X152150000Y-62360000D01*
X152150000Y-60440000D02*
X149465000Y-60440000D01*
%TO.C,R20*%
X176039564Y-104415000D02*
X175585436Y-104415000D01*
X176039564Y-105885000D02*
X175585436Y-105885000D01*
%TO.C,R8*%
X158360436Y-123015000D02*
X158814564Y-123015000D01*
X158360436Y-124485000D02*
X158814564Y-124485000D01*
%TO.C,R32*%
X190490000Y-65727064D02*
X190490000Y-65272936D01*
X191960000Y-65727064D02*
X191960000Y-65272936D01*
%TO.C,R24*%
X133815000Y-94677064D02*
X133815000Y-94222936D01*
X135285000Y-94677064D02*
X135285000Y-94222936D01*
%TO.C,D7*%
X103000000Y-126335000D02*
X106885000Y-126335000D01*
X106885000Y-124065000D02*
X103000000Y-124065000D01*
X106885000Y-126335000D02*
X106885000Y-124065000D01*
%TO.C,Ren1*%
X192224564Y-94525000D02*
X191770436Y-94525000D01*
X192224564Y-95995000D02*
X191770436Y-95995000D01*
%TO.C,J4*%
X118480000Y-51580000D02*
X165800000Y-51580000D01*
X118480000Y-59620000D02*
X118480000Y-51580000D01*
X119288000Y-55000000D02*
X118480000Y-55000000D01*
X119288000Y-56000000D02*
X118480000Y-56000000D01*
X120557000Y-53700000D02*
X118480000Y-53700000D01*
X124288000Y-55000000D02*
X122912000Y-55000000D01*
X124288000Y-56000000D02*
X122912000Y-56000000D01*
X125557000Y-53700000D02*
X121643000Y-53700000D01*
X129288000Y-55000000D02*
X127912000Y-55000000D01*
X129288000Y-56000000D02*
X127912000Y-56000000D01*
X130557000Y-53700000D02*
X126643000Y-53700000D01*
X134288000Y-55000000D02*
X132912000Y-55000000D01*
X134288000Y-56000000D02*
X132912000Y-56000000D01*
X135557000Y-53700000D02*
X131643000Y-53700000D01*
X139288000Y-55000000D02*
X137912000Y-55000000D01*
X139288000Y-56000000D02*
X137912000Y-56000000D01*
X140557000Y-53700000D02*
X136643000Y-53700000D01*
X144288000Y-55000000D02*
X142912000Y-55000000D01*
X144288000Y-56000000D02*
X142912000Y-56000000D01*
X145557000Y-53700000D02*
X141643000Y-53700000D01*
X149288000Y-55000000D02*
X147912000Y-55000000D01*
X149288000Y-56000000D02*
X147912000Y-56000000D01*
X150557000Y-53700000D02*
X146643000Y-53700000D01*
X154288000Y-55000000D02*
X152912000Y-55000000D01*
X154288000Y-56000000D02*
X152912000Y-56000000D01*
X155557000Y-53700000D02*
X151643000Y-53700000D01*
X159288000Y-55000000D02*
X157912000Y-55000000D01*
X159288000Y-56000000D02*
X157912000Y-56000000D01*
X160557000Y-53700000D02*
X156643000Y-53700000D01*
X164220000Y-53700000D02*
X161643000Y-53700000D01*
X164220000Y-55000000D02*
X162912000Y-55000000D01*
X164220000Y-56000000D02*
X162912000Y-56000000D01*
X166400000Y-51580000D02*
X169220000Y-51580000D01*
X169220000Y-51580000D02*
X169220000Y-59620000D01*
X169220000Y-53700000D02*
X167980000Y-53700000D01*
X169220000Y-55000000D02*
X167980000Y-55000000D01*
X169220000Y-56000000D02*
X167980000Y-56000000D01*
X169220000Y-59620000D02*
X118480000Y-59620000D01*
X166100000Y-51580000D02*
X165660000Y-50970000D01*
X166540000Y-50970000D01*
X166100000Y-51580000D01*
G36*
X166100000Y-51580000D02*
G01*
X165660000Y-50970000D01*
X166540000Y-50970000D01*
X166100000Y-51580000D01*
G37*
%TO.C,D9*%
X103000000Y-132535000D02*
X106885000Y-132535000D01*
X106885000Y-130265000D02*
X103000000Y-130265000D01*
X106885000Y-132535000D02*
X106885000Y-130265000D01*
%TO.C,OPTO11*%
X164313800Y-71350000D02*
X168413800Y-71350000D01*
X164313800Y-83350000D02*
X164313800Y-71350000D01*
X168413800Y-71350000D02*
X168413800Y-83350000D01*
X168413800Y-83350000D02*
X164313800Y-83350000D01*
%TO.C,Q3*%
X126490000Y-112187500D02*
X126490000Y-111537500D01*
X126490000Y-112187500D02*
X126490000Y-112837500D01*
X129610000Y-112187500D02*
X129610000Y-110512500D01*
X129610000Y-112187500D02*
X129610000Y-112837500D01*
%TO.C,C4*%
X87911252Y-111805000D02*
X87388748Y-111805000D01*
X87911252Y-113275000D02*
X87388748Y-113275000D01*
%TO.C,R_led1*%
X176072936Y-127565000D02*
X176527064Y-127565000D01*
X176072936Y-129035000D02*
X176527064Y-129035000D01*
%TO.C,Dled2*%
X180777500Y-131440000D02*
X180777500Y-133360000D01*
X180777500Y-133360000D02*
X183462500Y-133360000D01*
X183462500Y-131440000D02*
X180777500Y-131440000D01*
%TO.C,RL1*%
X166377064Y-64540000D02*
X165922936Y-64540000D01*
X166377064Y-66010000D02*
X165922936Y-66010000D01*
%TO.C,BT1*%
X190500000Y-107225000D02*
X192400000Y-107225000D01*
X190700000Y-107025000D02*
X192350000Y-105375000D01*
X192350000Y-118475000D02*
X190700000Y-116825000D01*
X197950000Y-105375000D02*
X199300000Y-106525000D01*
X197950000Y-118475000D02*
X199300000Y-117325000D01*
X200300000Y-107225000D02*
X198400000Y-107225000D01*
X199300000Y-106525000D02*
G75*
G02*
X199796459Y-109423306I-1800000J-1800000D01*
G01*
X199797607Y-114429098D02*
G75*
G02*
X199300000Y-117325000I-2297607J-1095902D01*
G01*
%TO.C,LED9*%
X162727660Y-127434460D02*
X165412660Y-127434460D01*
X165412660Y-125514460D02*
X162727660Y-125514460D01*
X165412660Y-127434460D02*
X165412660Y-125514460D01*
%TO.C,C1*%
X87019000Y-96983000D02*
X87019000Y-95917000D01*
X87059000Y-97218000D02*
X87059000Y-95682000D01*
X87099000Y-97398000D02*
X87099000Y-95502000D01*
X87139000Y-97548000D02*
X87139000Y-95352000D01*
X87179000Y-97679000D02*
X87179000Y-95221000D01*
X87219000Y-97796000D02*
X87219000Y-95104000D01*
X87259000Y-97903000D02*
X87259000Y-94997000D01*
X87299000Y-98002000D02*
X87299000Y-94898000D01*
X87339000Y-98095000D02*
X87339000Y-94805000D01*
X87379000Y-98181000D02*
X87379000Y-94719000D01*
X87419000Y-98263000D02*
X87419000Y-94637000D01*
X87459000Y-98340000D02*
X87459000Y-94560000D01*
X87499000Y-98414000D02*
X87499000Y-94486000D01*
X87539000Y-98484000D02*
X87539000Y-94416000D01*
X87579000Y-95410000D02*
X87579000Y-94348000D01*
X87579000Y-98552000D02*
X87579000Y-97490000D01*
X87619000Y-95410000D02*
X87619000Y-94284000D01*
X87619000Y-98616000D02*
X87619000Y-97490000D01*
X87659000Y-95410000D02*
X87659000Y-94222000D01*
X87659000Y-98678000D02*
X87659000Y-97490000D01*
X87699000Y-95410000D02*
X87699000Y-94163000D01*
X87699000Y-98737000D02*
X87699000Y-97490000D01*
X87739000Y-95410000D02*
X87739000Y-94105000D01*
X87739000Y-98795000D02*
X87739000Y-97490000D01*
X87779000Y-95410000D02*
X87779000Y-94050000D01*
X87779000Y-98850000D02*
X87779000Y-97490000D01*
X87819000Y-95410000D02*
X87819000Y-93996000D01*
X87819000Y-98904000D02*
X87819000Y-97490000D01*
X87859000Y-95410000D02*
X87859000Y-93945000D01*
X87859000Y-98955000D02*
X87859000Y-97490000D01*
X87899000Y-95410000D02*
X87899000Y-93894000D01*
X87899000Y-99006000D02*
X87899000Y-97490000D01*
X87939000Y-95410000D02*
X87939000Y-93846000D01*
X87939000Y-99054000D02*
X87939000Y-97490000D01*
X87979000Y-95410000D02*
X87979000Y-93799000D01*
X87979000Y-99101000D02*
X87979000Y-97490000D01*
X88019000Y-95410000D02*
X88019000Y-93753000D01*
X88019000Y-99147000D02*
X88019000Y-97490000D01*
X88059000Y-95410000D02*
X88059000Y-93709000D01*
X88059000Y-99191000D02*
X88059000Y-97490000D01*
X88099000Y-95410000D02*
X88099000Y-93666000D01*
X88099000Y-99234000D02*
X88099000Y-97490000D01*
X88139000Y-95410000D02*
X88139000Y-93624000D01*
X88139000Y-99276000D02*
X88139000Y-97490000D01*
X88179000Y-95410000D02*
X88179000Y-93583000D01*
X88179000Y-99317000D02*
X88179000Y-97490000D01*
X88219000Y-95410000D02*
X88219000Y-93543000D01*
X88219000Y-99357000D02*
X88219000Y-97490000D01*
X88259000Y-95410000D02*
X88259000Y-93505000D01*
X88259000Y-99395000D02*
X88259000Y-97490000D01*
X88299000Y-95410000D02*
X88299000Y-93467000D01*
X88299000Y-99433000D02*
X88299000Y-97490000D01*
X88339000Y-95410000D02*
X88339000Y-93431000D01*
X88339000Y-99469000D02*
X88339000Y-97490000D01*
X88379000Y-95410000D02*
X88379000Y-93395000D01*
X88379000Y-99505000D02*
X88379000Y-97490000D01*
X88419000Y-95410000D02*
X88419000Y-93360000D01*
X88419000Y-99540000D02*
X88419000Y-97490000D01*
X88459000Y-95410000D02*
X88459000Y-93326000D01*
X88459000Y-99574000D02*
X88459000Y-97490000D01*
X88499000Y-95410000D02*
X88499000Y-93294000D01*
X88499000Y-99606000D02*
X88499000Y-97490000D01*
X88539000Y-95410000D02*
X88539000Y-93261000D01*
X88539000Y-99639000D02*
X88539000Y-97490000D01*
X88579000Y-95410000D02*
X88579000Y-93230000D01*
X88579000Y-99670000D02*
X88579000Y-97490000D01*
X88619000Y-95410000D02*
X88619000Y-93200000D01*
X88619000Y-99700000D02*
X88619000Y-97490000D01*
X88659000Y-95410000D02*
X88659000Y-93170000D01*
X88659000Y-99730000D02*
X88659000Y-97490000D01*
X88699000Y-95410000D02*
X88699000Y-93141000D01*
X88699000Y-99759000D02*
X88699000Y-97490000D01*
X88739000Y-95410000D02*
X88739000Y-93112000D01*
X88739000Y-99788000D02*
X88739000Y-97490000D01*
X88779000Y-95410000D02*
X88779000Y-93085000D01*
X88779000Y-99815000D02*
X88779000Y-97490000D01*
X88819000Y-95410000D02*
X88819000Y-93058000D01*
X88819000Y-99842000D02*
X88819000Y-97490000D01*
X88859000Y-95410000D02*
X88859000Y-93032000D01*
X88859000Y-99868000D02*
X88859000Y-97490000D01*
X88899000Y-95410000D02*
X88899000Y-93006000D01*
X88899000Y-99894000D02*
X88899000Y-97490000D01*
X88939000Y-95410000D02*
X88939000Y-92981000D01*
X88939000Y-99919000D02*
X88939000Y-97490000D01*
X88979000Y-95410000D02*
X88979000Y-92957000D01*
X88979000Y-99943000D02*
X88979000Y-97490000D01*
X89019000Y-95410000D02*
X89019000Y-92933000D01*
X89019000Y-99967000D02*
X89019000Y-97490000D01*
X89059000Y-95410000D02*
X89059000Y-92910000D01*
X89059000Y-99990000D02*
X89059000Y-97490000D01*
X89099000Y-95410000D02*
X89099000Y-92888000D01*
X89099000Y-100012000D02*
X89099000Y-97490000D01*
X89139000Y-95410000D02*
X89139000Y-92866000D01*
X89139000Y-100034000D02*
X89139000Y-97490000D01*
X89179000Y-95410000D02*
X89179000Y-92844000D01*
X89179000Y-100056000D02*
X89179000Y-97490000D01*
X89219000Y-95410000D02*
X89219000Y-92823000D01*
X89219000Y-100077000D02*
X89219000Y-97490000D01*
X89259000Y-95410000D02*
X89259000Y-92803000D01*
X89259000Y-100097000D02*
X89259000Y-97490000D01*
X89299000Y-95410000D02*
X89299000Y-92784000D01*
X89299000Y-100116000D02*
X89299000Y-97490000D01*
X89339000Y-95410000D02*
X89339000Y-92764000D01*
X89339000Y-100136000D02*
X89339000Y-97490000D01*
X89379000Y-95410000D02*
X89379000Y-92746000D01*
X89379000Y-100154000D02*
X89379000Y-97490000D01*
X89419000Y-95410000D02*
X89419000Y-92728000D01*
X89419000Y-100172000D02*
X89419000Y-97490000D01*
X89459000Y-95410000D02*
X89459000Y-92710000D01*
X89459000Y-100190000D02*
X89459000Y-97490000D01*
X89499000Y-95410000D02*
X89499000Y-92693000D01*
X89499000Y-100207000D02*
X89499000Y-97490000D01*
X89539000Y-95410000D02*
X89539000Y-92676000D01*
X89539000Y-100224000D02*
X89539000Y-97490000D01*
X89579000Y-95410000D02*
X89579000Y-92660000D01*
X89579000Y-100240000D02*
X89579000Y-97490000D01*
X89619000Y-95410000D02*
X89619000Y-92645000D01*
X89619000Y-100255000D02*
X89619000Y-97490000D01*
X89659000Y-100271000D02*
X89659000Y-92629000D01*
X89699000Y-100285000D02*
X89699000Y-92615000D01*
X89739000Y-100300000D02*
X89739000Y-92600000D01*
X89779000Y-100313000D02*
X89779000Y-92587000D01*
X89819000Y-100327000D02*
X89819000Y-92573000D01*
X89859000Y-100339000D02*
X89859000Y-92561000D01*
X89899000Y-100352000D02*
X89899000Y-92548000D01*
X89939000Y-100364000D02*
X89939000Y-92536000D01*
X89979000Y-100375000D02*
X89979000Y-92525000D01*
X90019000Y-100386000D02*
X90019000Y-92514000D01*
X90059000Y-100397000D02*
X90059000Y-92503000D01*
X90099000Y-100407000D02*
X90099000Y-92493000D01*
X90139000Y-100417000D02*
X90139000Y-92483000D01*
X90179000Y-100426000D02*
X90179000Y-92474000D01*
X90219000Y-100435000D02*
X90219000Y-92465000D01*
X90259000Y-100444000D02*
X90259000Y-92456000D01*
X90299000Y-100452000D02*
X90299000Y-92448000D01*
X90339000Y-100460000D02*
X90339000Y-92440000D01*
X90379000Y-100467000D02*
X90379000Y-92433000D01*
X90420000Y-100474000D02*
X90420000Y-92426000D01*
X90460000Y-100480000D02*
X90460000Y-92420000D01*
X90500000Y-100487000D02*
X90500000Y-92413000D01*
X90540000Y-100492000D02*
X90540000Y-92408000D01*
X90580000Y-100498000D02*
X90580000Y-92402000D01*
X90620000Y-100502000D02*
X90620000Y-92398000D01*
X90660000Y-100507000D02*
X90660000Y-92393000D01*
X90700000Y-100511000D02*
X90700000Y-92389000D01*
X90740000Y-100515000D02*
X90740000Y-92385000D01*
X90780000Y-100518000D02*
X90780000Y-92382000D01*
X90820000Y-100521000D02*
X90820000Y-92379000D01*
X90860000Y-100524000D02*
X90860000Y-92376000D01*
X90900000Y-100526000D02*
X90900000Y-92374000D01*
X90940000Y-100527000D02*
X90940000Y-92373000D01*
X90980000Y-100529000D02*
X90980000Y-92371000D01*
X91020000Y-100530000D02*
X91020000Y-92370000D01*
X91060000Y-100530000D02*
X91060000Y-92370000D01*
X91100000Y-100530000D02*
X91100000Y-92370000D01*
X95109698Y-99165000D02*
X95109698Y-98365000D01*
X95509698Y-98765000D02*
X94709698Y-98765000D01*
X95220000Y-96450000D02*
G75*
G02*
X86980000Y-96450000I-4120000J0D01*
G01*
X86980000Y-96450000D02*
G75*
G02*
X95220000Y-96450000I4120000J0D01*
G01*
%TO.C,D6*%
X103000000Y-123235000D02*
X106885000Y-123235000D01*
X106885000Y-120965000D02*
X103000000Y-120965000D01*
X106885000Y-123235000D02*
X106885000Y-120965000D01*
%TO.C,LED6*%
X147450000Y-127460000D02*
X150135000Y-127460000D01*
X150135000Y-125540000D02*
X147450000Y-125540000D01*
X150135000Y-127460000D02*
X150135000Y-125540000D01*
%TO.C,Q6*%
X144490000Y-117187500D02*
X144490000Y-116537500D01*
X144490000Y-117187500D02*
X144490000Y-117837500D01*
X147610000Y-117187500D02*
X147610000Y-115512500D01*
X147610000Y-117187500D02*
X147610000Y-117837500D01*
%TO.C,Rbo1*%
X194402064Y-57065000D02*
X193947936Y-57065000D01*
X194402064Y-58535000D02*
X193947936Y-58535000D01*
%TO.C,C5*%
X122968748Y-62755000D02*
X123491252Y-62755000D01*
X122968748Y-64225000D02*
X123491252Y-64225000D01*
%TO.C,C4*%
X122878748Y-69795000D02*
X123401252Y-69795000D01*
X122878748Y-71265000D02*
X123401252Y-71265000D01*
%TO.C,RF2*%
X142410436Y-63465000D02*
X142864564Y-63465000D01*
X142410436Y-64935000D02*
X142864564Y-64935000D01*
%TO.C,Q8*%
X161990000Y-116437500D02*
X161990000Y-115787500D01*
X161990000Y-116437500D02*
X161990000Y-117087500D01*
X165110000Y-116437500D02*
X165110000Y-114762500D01*
X165110000Y-116437500D02*
X165110000Y-117087500D01*
%TO.C,R13*%
X126365000Y-100477064D02*
X126365000Y-100022936D01*
X127835000Y-100477064D02*
X127835000Y-100022936D01*
%TO.C,R3*%
X132822936Y-123265000D02*
X133277064Y-123265000D01*
X132822936Y-124735000D02*
X133277064Y-124735000D01*
%TO.C,LED4*%
X137350000Y-127460000D02*
X140035000Y-127460000D01*
X140035000Y-125540000D02*
X137350000Y-125540000D01*
X140035000Y-127460000D02*
X140035000Y-125540000D01*
%TO.C,C5*%
X89863748Y-89315000D02*
X90386252Y-89315000D01*
X89863748Y-90785000D02*
X90386252Y-90785000D01*
%TO.C,J1*%
X120687660Y-128322460D02*
X171427660Y-128322460D01*
X120687660Y-131942460D02*
X121927660Y-131942460D01*
X120687660Y-132942460D02*
X121927660Y-132942460D01*
X120687660Y-134242460D02*
X121927660Y-134242460D01*
X120687660Y-136362460D02*
X120687660Y-128322460D01*
X123507660Y-136362460D02*
X120687660Y-136362460D01*
X125687660Y-131942460D02*
X126995660Y-131942460D01*
X125687660Y-132942460D02*
X126995660Y-132942460D01*
X125687660Y-134242460D02*
X128264660Y-134242460D01*
X129350660Y-134242460D02*
X133264660Y-134242460D01*
X130619660Y-131942460D02*
X131995660Y-131942460D01*
X130619660Y-132942460D02*
X131995660Y-132942460D01*
X134350660Y-134242460D02*
X138264660Y-134242460D01*
X135619660Y-131942460D02*
X136995660Y-131942460D01*
X135619660Y-132942460D02*
X136995660Y-132942460D01*
X139350660Y-134242460D02*
X143264660Y-134242460D01*
X140619660Y-131942460D02*
X141995660Y-131942460D01*
X140619660Y-132942460D02*
X141995660Y-132942460D01*
X144350660Y-134242460D02*
X148264660Y-134242460D01*
X145619660Y-131942460D02*
X146995660Y-131942460D01*
X145619660Y-132942460D02*
X146995660Y-132942460D01*
X149350660Y-134242460D02*
X153264660Y-134242460D01*
X150619660Y-131942460D02*
X151995660Y-131942460D01*
X150619660Y-132942460D02*
X151995660Y-132942460D01*
X154350660Y-134242460D02*
X158264660Y-134242460D01*
X155619660Y-131942460D02*
X156995660Y-131942460D01*
X155619660Y-132942460D02*
X156995660Y-132942460D01*
X159350660Y-134242460D02*
X163264660Y-134242460D01*
X160619660Y-131942460D02*
X161995660Y-131942460D01*
X160619660Y-132942460D02*
X161995660Y-132942460D01*
X164350660Y-134242460D02*
X168264660Y-134242460D01*
X165619660Y-131942460D02*
X166995660Y-131942460D01*
X165619660Y-132942460D02*
X166995660Y-132942460D01*
X169350660Y-134242460D02*
X171427660Y-134242460D01*
X170619660Y-131942460D02*
X171427660Y-131942460D01*
X170619660Y-132942460D02*
X171427660Y-132942460D01*
X171427660Y-128322460D02*
X171427660Y-136362460D01*
X171427660Y-136362460D02*
X124107660Y-136362460D01*
X124247660Y-136972460D02*
X123367660Y-136972460D01*
X123807660Y-136362460D01*
X124247660Y-136972460D01*
G36*
X124247660Y-136972460D02*
G01*
X123367660Y-136972460D01*
X123807660Y-136362460D01*
X124247660Y-136972460D01*
G37*
%TO.C,RL2*%
X160872936Y-64540000D02*
X161327064Y-64540000D01*
X160872936Y-66010000D02*
X161327064Y-66010000D01*
%TO.C,LED10*%
X167562500Y-127460000D02*
X170247500Y-127460000D01*
X170247500Y-125540000D02*
X167562500Y-125540000D01*
X170247500Y-127460000D02*
X170247500Y-125540000D01*
%TO.C,R4*%
X138122936Y-123265000D02*
X138577064Y-123265000D01*
X138122936Y-124735000D02*
X138577064Y-124735000D01*
%TO.C,R18*%
X160849564Y-103915000D02*
X160395436Y-103915000D01*
X160849564Y-105385000D02*
X160395436Y-105385000D01*
%TO.C,D5*%
X103000000Y-120185000D02*
X106885000Y-120185000D01*
X106885000Y-117915000D02*
X103000000Y-117915000D01*
X106885000Y-120185000D02*
X106885000Y-117915000D01*
%TO.C,R16*%
X149015000Y-100477064D02*
X149015000Y-100022936D01*
X150485000Y-100477064D02*
X150485000Y-100022936D01*
%TO.C,R37*%
X160652064Y-67340000D02*
X160197936Y-67340000D01*
X160652064Y-68810000D02*
X160197936Y-68810000D01*
%TO.C,OPTO14*%
X146355000Y-71375000D02*
X150455000Y-71375000D01*
X146355000Y-83375000D02*
X146355000Y-71375000D01*
X150455000Y-71375000D02*
X150455000Y-83375000D01*
X150455000Y-83375000D02*
X146355000Y-83375000D01*
%TO.C,S1*%
X115587660Y-114042460D02*
X115587660Y-115542460D01*
X116837660Y-118042460D02*
X121337660Y-118042460D01*
X121337660Y-111542460D02*
X116837660Y-111542460D01*
X122587660Y-115542460D02*
X122587660Y-114042460D01*
%TO.C,R30*%
X178465000Y-95639564D02*
X178465000Y-95185436D01*
X179935000Y-95639564D02*
X179935000Y-95185436D01*
%TO.C,R38*%
X166627064Y-67365000D02*
X166172936Y-67365000D01*
X166627064Y-68835000D02*
X166172936Y-68835000D01*
%TO.C,OPTO4*%
X128720000Y-91250000D02*
X132820000Y-91250000D01*
X128720000Y-103250000D02*
X128720000Y-91250000D01*
X132820000Y-91250000D02*
X132820000Y-103250000D01*
X132820000Y-103250000D02*
X128720000Y-103250000D01*
%TO.C,D2*%
X103000000Y-110935000D02*
X106885000Y-110935000D01*
X106885000Y-108665000D02*
X103000000Y-108665000D01*
X106885000Y-110935000D02*
X106885000Y-108665000D01*
%TO.C,LED11*%
X164465000Y-60340000D02*
X164465000Y-62260000D01*
X164465000Y-62260000D02*
X167150000Y-62260000D01*
X167150000Y-60340000D02*
X164465000Y-60340000D01*
%TO.C,LED8*%
X157647660Y-127434460D02*
X160332660Y-127434460D01*
X160332660Y-125514460D02*
X157647660Y-125514460D01*
X160332660Y-127434460D02*
X160332660Y-125514460D01*
%TO.C,R10*%
X168360436Y-123015000D02*
X168814564Y-123015000D01*
X168360436Y-124485000D02*
X168814564Y-124485000D01*
%TO.C,RL4*%
X150847936Y-64565000D02*
X151302064Y-64565000D01*
X150847936Y-66035000D02*
X151302064Y-66035000D01*
%TO.C,D8*%
X103000000Y-129435000D02*
X106885000Y-129435000D01*
X106885000Y-127165000D02*
X103000000Y-127165000D01*
X106885000Y-129435000D02*
X106885000Y-127165000D01*
%TO.C,OPTO13*%
X152425000Y-71300000D02*
X156525000Y-71300000D01*
X152425000Y-83300000D02*
X152425000Y-71300000D01*
X156525000Y-71300000D02*
X156525000Y-83300000D01*
X156525000Y-83300000D02*
X152425000Y-83300000D01*
%TO.C,R12*%
X118765000Y-100427064D02*
X118765000Y-99972936D01*
X120235000Y-100427064D02*
X120235000Y-99972936D01*
%TO.C,R15*%
X141265000Y-100477064D02*
X141265000Y-100022936D01*
X142735000Y-100477064D02*
X142735000Y-100022936D01*
%TO.C,R19*%
X168554564Y-104845000D02*
X168100436Y-104845000D01*
X168554564Y-106315000D02*
X168100436Y-106315000D01*
%TO.C,LED3*%
X132050000Y-127460000D02*
X134735000Y-127460000D01*
X134735000Y-125540000D02*
X132050000Y-125540000D01*
X134735000Y-127460000D02*
X134735000Y-125540000D01*
%TO.C,C2*%
X107835000Y-70061252D02*
X107835000Y-69538748D01*
X109305000Y-70061252D02*
X109305000Y-69538748D01*
%TO.C,OPTO12*%
X158350000Y-71375000D02*
X162450000Y-71375000D01*
X158350000Y-83375000D02*
X158350000Y-71375000D01*
X162450000Y-71375000D02*
X162450000Y-83375000D01*
X162450000Y-83375000D02*
X158350000Y-83375000D01*
%TO.C,U4*%
X130785000Y-77225000D02*
X130785000Y-75275000D01*
X130785000Y-77225000D02*
X130785000Y-80675000D01*
X135905000Y-77225000D02*
X135905000Y-75275000D01*
X135905000Y-77225000D02*
X135905000Y-79175000D01*
%TO.C,RL3*%
X155272936Y-64565000D02*
X155727064Y-64565000D01*
X155272936Y-66035000D02*
X155727064Y-66035000D01*
%TO.C,R5*%
X143172936Y-123265000D02*
X143627064Y-123265000D01*
X143172936Y-124735000D02*
X143627064Y-124735000D01*
%TO.C,C3*%
X115591252Y-61955000D02*
X115068748Y-61955000D01*
X115591252Y-63425000D02*
X115068748Y-63425000D01*
%TO.C,CR1*%
X194436252Y-60090000D02*
X193913748Y-60090000D01*
X194436252Y-61560000D02*
X193913748Y-61560000D01*
%TO.C,C2*%
X87398748Y-102795000D02*
X87921252Y-102795000D01*
X87398748Y-104265000D02*
X87921252Y-104265000D01*
%TO.C,OPTO8*%
X158720000Y-91225000D02*
X162820000Y-91225000D01*
X158720000Y-103225000D02*
X158720000Y-91225000D01*
X162820000Y-91225000D02*
X162820000Y-103225000D01*
X162820000Y-103225000D02*
X158720000Y-103225000D01*
%TO.C,U2*%
X89650000Y-113850000D02*
X90910000Y-113850000D01*
X89650000Y-119860000D02*
X89650000Y-113850000D01*
X96470000Y-113850000D02*
X95210000Y-113850000D01*
X96470000Y-117610000D02*
X96470000Y-113850000D01*
%TO.C,R22*%
X118765000Y-94639564D02*
X118765000Y-94185436D01*
X120235000Y-94639564D02*
X120235000Y-94185436D01*
%TO.C,R11*%
X118815000Y-85139564D02*
X118815000Y-84685436D01*
X120285000Y-85139564D02*
X120285000Y-84685436D01*
%TO.C,R29*%
X171265000Y-94727064D02*
X171265000Y-94272936D01*
X172735000Y-94727064D02*
X172735000Y-94272936D01*
%TO.C,LED2*%
X126550000Y-127460000D02*
X129235000Y-127460000D01*
X129235000Y-125540000D02*
X126550000Y-125540000D01*
X129235000Y-127460000D02*
X129235000Y-125540000D01*
%TO.C,C3*%
X122858748Y-66765000D02*
X123381252Y-66765000D01*
X122858748Y-68235000D02*
X123381252Y-68235000D01*
%TO.C,RF1*%
X136110436Y-63615000D02*
X136564564Y-63615000D01*
X136110436Y-65085000D02*
X136564564Y-65085000D01*
%TO.C,OPTO1*%
X121200000Y-75000000D02*
X125300000Y-75000000D01*
X121200000Y-87000000D02*
X121200000Y-75000000D01*
X125300000Y-75000000D02*
X125300000Y-87000000D01*
X125300000Y-87000000D02*
X121200000Y-87000000D01*
%TO.C,R6*%
X148677064Y-123265000D02*
X148222936Y-123265000D01*
X148677064Y-124735000D02*
X148222936Y-124735000D01*
%TD*%
M02*
