M48
; DRILL file {KiCad 9.0.5+1} date 2025-10-19T05:27:54+0700
; FORMAT={-:-/ absolute / metric / decimal}
; #@! TF.CreationDate,2025-10-19T05:27:54+07:00
; #@! TF.GenerationSoftware,Kicad,Pcbnew,9.0.5+1
; #@! TF.FileFunction,Plated,1,2,PTH
FMAT,2
METRIC
; #@! TA.AperFunction,Plated,PTH,ComponentDrill
T1C0.200
; #@! TA.AperFunction,Plated,PTH,ViaDrill
T2C0.300
; #@! TA.AperFunction,Plated,PTH,ViaDrill
T3C0.400
; #@! TA.AperFunction,Plated,PTH,ComponentDrill
T4C0.500
; #@! TA.AperFunction,Plated,PTH,ComponentDrill
T5C0.800
; #@! TA.AperFunction,Plated,PTH,ComponentDrill
T6C1.000
; #@! TA.AperFunction,Plated,PTH,ComponentDrill
T7C1.100
; #@! TA.AperFunction,Plated,PTH,ComponentDrill
T8C1.300
%
G90
G05
T1
X181.39Y-72.845
X181.39Y-74.245
X182.09Y-72.145
X182.09Y-73.545
X182.09Y-74.945
X182.79Y-72.845
X182.79Y-74.245
X183.49Y-72.145
X183.49Y-73.545
X183.49Y-74.945
X184.19Y-72.845
X184.19Y-74.245
T2
X100.241Y-110.991
X100.245Y-114.245
X100.248Y-104.487
X100.25Y-107.75
X100.25Y-117.5
X111.234Y-105.24
X111.25Y-125.244
X112.241Y-118.742
X112.241Y-115.997
X113.097Y-67.442
X114.291Y-84.098
X119.044Y-85.545
X119.046Y-82.796
X120.65Y-88.0
X120.968Y-69.793
X121.214Y-85.536
X123.0Y-74.75
X123.0Y-75.75
X125.75Y-86.0
X126.83Y-77.97
X127.996Y-85.993
X127.997Y-84.242
X128.0Y-86.8
X135.5Y-85.0
X135.75Y-100.75
X136.517Y-74.366
X141.005Y-73.0
X141.01Y-75.8
X141.4Y-59.325
X141.75Y-73.0
X141.75Y-75.8
X141.993Y-84.242
X142.0Y-86.45
X142.5Y-100.75
X146.15Y-61.425
X147.075Y-73.0
X147.75Y-73.0
X150.2Y-76.345
X151.56Y-57.135
X153.0Y-73.0
X153.75Y-73.0
X153.79Y-80.965
X154.54Y-75.185
X155.44Y-80.265
X156.575Y-57.45
X156.59Y-98.955
X156.6Y-93.565
X157.5Y-73.25
X157.99Y-93.565
X157.99Y-98.955
X159.21Y-80.245
X160.25Y-76.345
X160.26Y-73.935
X160.27Y-75.195
X160.93Y-91.565
X160.93Y-93.565
X164.91Y-86.365
X165.11Y-79.405
X166.5Y-77.5
X166.98Y-79.395
X166.98Y-82.255
X168.2Y-77.005
X168.749Y-82.992
X169.94Y-74.295
X170.991Y-82.741
X171.371Y-83.798
X172.01Y-86.355
X174.36Y-68.105
X174.5Y-71.0
X175.12Y-82.245
X175.13Y-81.325
X175.268Y-85.478
X175.29Y-76.125
X175.75Y-73.25
X176.25Y-80.498
X176.73Y-75.355
X177.33Y-86.415
X178.6Y-82.235
X178.75Y-79.75
X179.69Y-81.805
X180.23Y-94.365
X180.23Y-97.925
X180.45Y-80.975
X181.62Y-79.265
X182.25Y-94.395
X182.25Y-96.75
X184.23Y-77.285
X185.43Y-68.695
X185.43Y-81.625
X187.47Y-81.635
X187.97Y-64.53
X189.24Y-81.625
X189.25Y-91.385
T3
X78.5Y-55.25
X78.5Y-56.0
X78.5Y-56.75
X78.5Y-57.5
X78.5Y-58.25
X78.5Y-59.0
X79.45Y-81.835
X82.77Y-102.245
X82.8Y-101.355
X90.09Y-108.745
X90.5Y-91.0
X90.5Y-92.5
X92.0Y-91.0
X92.0Y-92.5
X92.75Y-55.25
X92.75Y-56.5
X94.0Y-55.25
X94.0Y-56.5
X95.25Y-55.25
X95.25Y-56.5
X97.5Y-72.75
X97.5Y-74.0
X98.75Y-72.75
X98.75Y-74.0
X100.0Y-72.75
X100.0Y-74.0
X101.248Y-106.24
X102.5Y-106.242
X105.745Y-118.24
X106.8Y-84.075
X109.243Y-126.992
X110.24Y-118.24
X111.239Y-126.989
X111.38Y-75.82
X111.38Y-77.07
X111.72Y-62.41
X114.922Y-75.818
X114.922Y-77.068
X118.25Y-125.225
X118.49Y-63.83
X118.8Y-110.725
X119.245Y-90.75
X119.39Y-61.865
X119.75Y-80.2
X119.75Y-100.75
X120.64Y-66.88
X122.0Y-124.5
X122.75Y-110.746
X123.244Y-120.241
X123.25Y-90.75
X123.75Y-113.675
X124.0Y-108.25
X124.325Y-65.115
X125.394Y-61.846
X126.163Y-116.074
X126.5Y-103.75
X128.0Y-103.75
X128.1Y-69.095
X128.4Y-120.125
X131.25Y-95.5
X132.25Y-82.25
X132.496Y-125.492
X132.5Y-73.5
X132.5Y-74.75
X132.5Y-76.0
X132.5Y-77.25
X133.0Y-62.5
X133.0Y-63.5
X133.0Y-64.5
X133.45Y-117.75
X134.0Y-91.75
X134.75Y-93.75
X134.97Y-88.65
X135.5Y-91.75
X135.975Y-110.915
X136.61Y-106.055
X136.75Y-78.25
X137.641Y-118.182
X137.75Y-125.5
X138.25Y-80.5
X138.9Y-115.875
X138.9Y-118.975
X140.35Y-115.875
X140.75Y-103.75
X141.44Y-53.05
X142.25Y-88.5
X142.6Y-124.375
X142.719Y-117.871
X142.75Y-115.875
X145.5Y-81.25
X145.75Y-104.75
X145.75Y-106.0
X146.45Y-53.08
X147.79Y-118.248
X148.75Y-100.75
X148.75Y-103.75
X149.958Y-88.611
X150.25Y-78.25
X151.41Y-53.08
X152.86Y-118.244
X153.85Y-107.125
X154.025Y-109.0
X154.4Y-114.715
X156.25Y-100.75
X156.5Y-53.05
X156.75Y-88.5
X158.42Y-108.985
X159.062Y-118.29
X159.43Y-114.695
X160.0Y-87.0
X161.12Y-110.595
X165.35Y-93.02
X165.75Y-126.0
X165.75Y-127.25
X165.75Y-128.5
X165.75Y-129.75
X166.25Y-55.0
X166.25Y-56.25
X168.25Y-55.0
X168.25Y-56.25
X168.53Y-118.385
X169.75Y-55.0
X169.75Y-56.25
X170.7Y-107.875
X170.7Y-112.625
X170.75Y-114.5
X171.25Y-55.0
X171.25Y-56.25
X172.05Y-89.125
X172.75Y-55.0
X172.75Y-56.25
X172.75Y-100.75
X172.75Y-103.75
X173.5Y-100.75
X173.5Y-103.75
X176.46Y-115.655
X177.75Y-100.5
X177.75Y-102.0
X177.75Y-103.5
X180.25Y-102.0
X180.25Y-114.25
X180.741Y-127.249
X180.741Y-122.246
X180.741Y-123.497
X180.741Y-124.748
X180.741Y-126.0
X181.25Y-102.0
X181.25Y-114.25
X182.25Y-102.0
X182.25Y-114.25
X183.85Y-94.4
X184.1Y-115.645
X185.5Y-94.4
X187.975Y-58.85
T4
X131.23Y-69.995
X133.77Y-69.995
T5
X81.45Y-92.575
X86.45Y-92.575
T6
X106.246Y-64.713
X106.246Y-67.253
X106.246Y-69.793
X106.246Y-72.333
T7
X108.688Y-108.667
X108.688Y-113.167
X115.188Y-108.667
X115.188Y-113.167
X126.468Y-108.667
X126.468Y-113.167
X132.968Y-108.667
X132.968Y-113.167
X144.248Y-108.667
X144.248Y-113.167
X150.748Y-108.667
X150.748Y-113.167
X162.028Y-108.667
X162.028Y-113.167
X168.528Y-108.667
X168.528Y-113.167
T8
X113.95Y-51.625
X116.241Y-128.461
X118.95Y-51.625
X121.241Y-128.461
X123.95Y-51.625
X126.241Y-128.461
X128.95Y-51.625
X131.241Y-128.461
X133.95Y-51.625
X136.241Y-128.461
X138.95Y-51.625
X141.241Y-128.461
X143.95Y-51.625
X146.241Y-128.461
X148.95Y-51.625
X151.241Y-128.461
X153.95Y-51.625
X156.241Y-128.461
X158.95Y-51.625
X161.241Y-128.461
M30
