M48
; DRILL file {KiCad 9.0.4} date 2025-10-10T10:09:52+0700
; FORMAT={-:-/ absolute / metric / decimal}
; #@! TF.CreationDate,2025-10-10T10:09:52+07:00
; #@! TF.GenerationSoftware,Kicad,Pcbnew,9.0.4
; #@! TF.FileFunction,Plated,1,2,PTH
FMAT,2
METRIC
; #@! TA.AperFunction,Plated,PTH,ComponentDrill
T1C0.200
; #@! TA.AperFunction,Plated,PTH,ViaDrill
T2C0.400
; #@! TA.AperFunction,Plated,PTH,ComponentDrill
T3C0.500
; #@! TA.AperFunction,Plated,PTH,ComponentDrill
T4C0.800
; #@! TA.AperFunction,Plated,PTH,ComponentDrill
T5C1.000
; #@! TA.AperFunction,Plated,PTH,ComponentDrill
T6C1.100
; #@! TA.AperFunction,Plated,PTH,ComponentDrill
T7C1.300
%
G90
G05
T1
X188.54Y-76.72
X188.54Y-78.12
X189.24Y-76.02
X189.24Y-77.42
X189.24Y-78.82
X189.94Y-76.72
X189.94Y-78.12
X190.64Y-76.02
X190.64Y-77.42
X190.64Y-78.82
X191.34Y-76.72
X191.34Y-78.12
T2
X86.6Y-85.71
X97.24Y-112.62
X107.45Y-109.8
X107.45Y-112.9
X107.45Y-116.0
X107.45Y-119.05
X107.45Y-122.1
X113.65Y-122.25
X117.35Y-122.25
X118.3Y-129.1
X119.25Y-119.8
X119.25Y-122.7
X120.09Y-66.03
X120.23Y-70.53
X121.05Y-106.8
X125.2Y-106.8
X125.4Y-129.1
X125.95Y-113.2
X126.54Y-65.74
X128.12Y-74.15
X129.0Y-128.48
X130.0Y-114.55
X130.9Y-117.55
X130.9Y-124.0
X131.05Y-112.05
X131.475Y-68.61
X133.98Y-81.845
X134.19Y-129.5
X134.96Y-88.73
X135.16Y-92.23
X135.55Y-119.95
X135.55Y-124.0
X135.72Y-90.62
X135.85Y-69.412
X137.18Y-88.58
X137.19Y-74.55
X137.25Y-66.77
X139.4Y-128.25
X140.6Y-121.625
X141.46Y-90.32
X141.955Y-70.895
X142.05Y-92.24
X143.125Y-111.45
X144.025Y-122.075
X144.85Y-129.4
X146.05Y-119.75
X146.05Y-122.85
X146.77Y-86.06
X147.5Y-119.75
X148.575Y-63.225
X149.375Y-121.75
X149.75Y-128.25
X149.85Y-86.85
X149.9Y-119.75
X151.65Y-67.975
X153.3Y-65.3
X153.3Y-122.125
X154.01Y-84.93
X157.15Y-91.34
X157.35Y-80.02
X157.775Y-63.25
X158.575Y-122.125
X159.45Y-106.45
X160.95Y-84.93
X161.0Y-106.925
X161.0Y-111.0
X161.08Y-79.07
X161.175Y-112.875
X162.59Y-84.34
X163.725Y-61.325
X163.75Y-96.75
X163.86Y-106.25
X164.32Y-69.65
X164.52Y-97.575
X164.775Y-121.65
X164.78Y-76.71
X165.51Y-84.49
X165.9Y-105.45
X166.1Y-112.875
X167.17Y-77.81
X167.4Y-80.22
X167.41Y-79.07
X169.475Y-109.825
X169.737Y-107.44
X172.07Y-89.6
X172.26Y-83.14
X173.07Y-82.39
X173.58Y-80.71
X174.13Y-83.26
X174.39Y-87.05
X174.4Y-108.6
X175.35Y-81.11
X175.387Y-123.5
X177.09Y-78.17
X177.85Y-108.6
X177.85Y-111.75
X177.85Y-116.5
X179.45Y-90.08
X180.68Y-91.58
X180.68Y-94.51
X181.075Y-101.75
X181.15Y-89.875
X181.51Y-71.98
X181.53Y-78.3
X181.73Y-74.94
X181.83Y-80.87
X182.03Y-82.41
X182.05Y-77.19
X182.28Y-85.2
X182.42Y-86.22
X182.425Y-89.9
X182.44Y-80.0
X183.4Y-78.99
X183.61Y-83.78
X183.625Y-120.05
X184.2Y-86.11
X184.48Y-90.29
X185.27Y-85.98
X186.18Y-83.53
X186.84Y-85.68
X187.6Y-84.85
X187.63Y-100.74
X187.63Y-104.97
X188.77Y-83.14
X188.95Y-106.95
X189.3Y-104.25
X189.34Y-81.29
X189.42Y-101.57
X190.71Y-105.07
X191.25Y-120.05
X192.66Y-85.92
X193.06Y-74.13
X193.85Y-71.925
X195.125Y-62.725
X195.125Y-68.35
X196.337Y-74.787
X196.39Y-57.81
X196.39Y-68.36
X196.65Y-95.43
T3
X131.48Y-84.41
X131.48Y-86.95
T4
X88.6Y-96.45
X93.6Y-96.45
T5
X113.396Y-68.588
X113.396Y-71.128
X113.396Y-73.668
X113.396Y-76.208
T6
X115.838Y-112.542
X115.838Y-117.042
X122.338Y-112.542
X122.338Y-117.042
X133.618Y-112.542
X133.618Y-117.042
X140.118Y-112.542
X140.118Y-117.042
X151.398Y-112.542
X151.398Y-117.042
X157.898Y-112.542
X157.898Y-117.042
X169.178Y-112.542
X169.178Y-117.042
X175.678Y-112.542
X175.678Y-117.042
T7
X121.1Y-55.5
X123.808Y-132.442
X126.1Y-55.5
X128.808Y-132.442
X131.1Y-55.5
X133.808Y-132.442
X136.1Y-55.5
X138.808Y-132.442
X141.1Y-55.5
X143.808Y-132.442
X146.1Y-55.5
X148.808Y-132.442
X151.1Y-55.5
X153.808Y-132.442
X156.1Y-55.5
X158.808Y-132.442
X161.1Y-55.5
X163.808Y-132.442
X166.1Y-55.5
X168.808Y-132.442
M30
