%TF.GenerationSoftware,KiCad,Pcbnew,9.0.5+1*%
%TF.CreationDate,2025-10-19T05:27:58+07:00*%
%TF.ProjectId,TARA_T8X,54415241-5f54-4385-982e-6b696361645f,rev?*%
%TF.SameCoordinates,Original*%
%TF.FileFunction,Soldermask,Top*%
%TF.FilePolarity,Negative*%
%FSLAX46Y46*%
G04 Gerber Fmt 4.6, Leading zero omitted, Abs format (unit mm)*
G04 Created by KiCad (PCBNEW 9.0.5+1) date 2025-10-19 05:27:58*
%MOMM*%
%LPD*%
G01*
G04 APERTURE LIST*
G04 Aperture macros list*
%AMRoundRect*
0 Rectangle with rounded corners*
0 $1 Rounding radius*
0 $2 $3 $4 $5 $6 $7 $8 $9 X,Y pos of 4 corners*
0 Add a 4 corners polygon primitive as box body*
4,1,4,$2,$3,$4,$5,$6,$7,$8,$9,$2,$3,0*
0 Add four circle primitives for the rounded corners*
1,1,$1+$1,$2,$3*
1,1,$1+$1,$4,$5*
1,1,$1+$1,$6,$7*
1,1,$1+$1,$8,$9*
0 Add four rect primitives between the rounded corners*
20,1,$1+$1,$2,$3,$4,$5,0*
20,1,$1+$1,$4,$5,$6,$7,0*
20,1,$1+$1,$6,$7,$8,$9,0*
20,1,$1+$1,$8,$9,$2,$3,0*%
G04 Aperture macros list end*
%ADD10RoundRect,0.243750X0.243750X0.456250X-0.243750X0.456250X-0.243750X-0.456250X0.243750X-0.456250X0*%
%ADD11RoundRect,0.150000X-0.150000X0.587500X-0.150000X-0.587500X0.150000X-0.587500X0.150000X0.587500X0*%
%ADD12C,2.000000*%
%ADD13RoundRect,0.250000X-0.262500X-0.450000X0.262500X-0.450000X0.262500X0.450000X-0.262500X0.450000X0*%
%ADD14RoundRect,0.250000X0.262500X0.450000X-0.262500X0.450000X-0.262500X-0.450000X0.262500X-0.450000X0*%
%ADD15RoundRect,0.243750X-0.243750X-0.456250X0.243750X-0.456250X0.243750X0.456250X-0.243750X0.456250X0*%
%ADD16RoundRect,0.250000X0.375000X0.625000X-0.375000X0.625000X-0.375000X-0.625000X0.375000X-0.625000X0*%
%ADD17RoundRect,0.250000X0.450000X-0.262500X0.450000X0.262500X-0.450000X0.262500X-0.450000X-0.262500X0*%
%ADD18R,1.400000X2.000000*%
%ADD19R,2.000000X2.000000*%
%ADD20R,0.900000X1.500000*%
%ADD21R,1.500000X0.900000*%
%ADD22C,0.500000*%
%ADD23R,3.900000X3.900000*%
%ADD24RoundRect,0.250000X-0.250000X-0.475000X0.250000X-0.475000X0.250000X0.475000X-0.250000X0.475000X0*%
%ADD25C,1.000000*%
%ADD26R,1.700000X1.700000*%
%ADD27O,1.700000X1.700000*%
%ADD28C,2.800000*%
%ADD29RoundRect,0.250000X0.250000X0.475000X-0.250000X0.475000X-0.250000X-0.475000X0.250000X-0.475000X0*%
%ADD30R,5.100000X2.500000*%
%ADD31R,1.600000X1.600000*%
%ADD32C,1.600000*%
%ADD33RoundRect,0.150000X0.150000X-0.825000X0.150000X0.825000X-0.150000X0.825000X-0.150000X-0.825000X0*%
%ADD34R,3.000000X2.290000*%
%ADD35R,1.500000X2.000000*%
%ADD36R,3.800000X2.000000*%
G04 APERTURE END LIST*
D10*
%TO.C,LED5*%
X137174187Y-122745525D03*
X135299187Y-122745525D03*
%TD*%
D11*
%TO.C,Q2*%
X112193037Y-120551282D03*
X110293037Y-120551282D03*
X111243037Y-122426282D03*
%TD*%
D12*
%TO.C,S2*%
X126467660Y-108667460D03*
X132967660Y-108667460D03*
X126467660Y-113167460D03*
X132967660Y-113167460D03*
%TD*%
D13*
%TO.C,R64*%
X126644805Y-82741381D03*
X128469805Y-82741381D03*
%TD*%
D14*
%TO.C,R23*%
X117009898Y-85539155D03*
X115184898Y-85539155D03*
%TD*%
%TO.C,R26*%
X139906418Y-85490495D03*
X138081418Y-85490495D03*
%TD*%
%TO.C,R17*%
X147022500Y-102235000D03*
X145197500Y-102235000D03*
%TD*%
D13*
%TO.C,R7*%
X145474335Y-119909637D03*
X147299335Y-119909637D03*
%TD*%
D15*
%TO.C,LED12*%
X153037500Y-57550000D03*
X154912500Y-57550000D03*
%TD*%
D13*
%TO.C,R36*%
X146387500Y-64100000D03*
X148212500Y-64100000D03*
%TD*%
D16*
%TO.C,D3*%
X98393894Y-107743676D03*
X95593894Y-107743676D03*
%TD*%
D13*
%TO.C,R9*%
X155775000Y-119875000D03*
X157600000Y-119875000D03*
%TD*%
D11*
%TO.C,Q5*%
X139850000Y-107625000D03*
X137950000Y-107625000D03*
X138900000Y-109500000D03*
%TD*%
D13*
%TO.C,R1*%
X115027041Y-119967787D03*
X116852041Y-119967787D03*
%TD*%
D11*
%TO.C,Q9*%
X173850000Y-107875000D03*
X171950000Y-107875000D03*
X172900000Y-109750000D03*
%TD*%
D17*
%TO.C,R33*%
X187245284Y-62545519D03*
X187245284Y-60720519D03*
%TD*%
D11*
%TO.C,Q1*%
X107645598Y-120494834D03*
X105745598Y-120494834D03*
X106695598Y-122369834D03*
%TD*%
D18*
%TO.C,OPTO10*%
X169983297Y-88654867D03*
X167443297Y-88654867D03*
X167443297Y-98154867D03*
X169983297Y-98154867D03*
%TD*%
D16*
%TO.C,D4*%
X98383100Y-110990841D03*
X95583100Y-110990841D03*
%TD*%
D18*
%TO.C,OPTO9*%
X162481430Y-88668765D03*
X159941430Y-88668765D03*
X159941430Y-98168765D03*
X162481430Y-98168765D03*
%TD*%
%TO.C,OPTO5*%
X132377655Y-88678882D03*
X129837655Y-88678882D03*
X129837655Y-98178882D03*
X132377655Y-98178882D03*
%TD*%
D11*
%TO.C,Q4*%
X121850000Y-112125000D03*
X119950000Y-112125000D03*
X120900000Y-114000000D03*
%TD*%
D19*
%TO.C,U1*%
X82960000Y-63125000D03*
X91850000Y-63125000D03*
X91850000Y-80905000D03*
X82960000Y-80905000D03*
%TD*%
D11*
%TO.C,Q10*%
X173850000Y-112625000D03*
X171950000Y-112625000D03*
X172900000Y-114500000D03*
%TD*%
D14*
%TO.C,RT1*%
X128331617Y-63272079D03*
X126506617Y-63272079D03*
%TD*%
D16*
%TO.C,D10*%
X98372394Y-130479873D03*
X95572394Y-130479873D03*
%TD*%
%TO.C,D1*%
X98393894Y-101248582D03*
X95593894Y-101248582D03*
%TD*%
D20*
%TO.C,J2*%
X190510000Y-66295000D03*
X189240000Y-66295000D03*
X187970000Y-66295000D03*
X186700000Y-66295000D03*
X185430000Y-66295000D03*
X184160000Y-66295000D03*
X182890000Y-66295000D03*
X181620000Y-66295000D03*
X180350000Y-66295000D03*
X179080000Y-66295000D03*
X177810000Y-66295000D03*
X176540000Y-66295000D03*
X175270000Y-66295000D03*
X174000000Y-66295000D03*
D21*
X172750000Y-68060000D03*
X172750000Y-69330000D03*
X172750000Y-70600000D03*
X172750000Y-71870000D03*
X172750000Y-73140000D03*
X172750000Y-74410000D03*
X172750000Y-75680000D03*
X172750000Y-76950000D03*
X172750000Y-78220000D03*
X172750000Y-79490000D03*
X172750000Y-80760000D03*
X172750000Y-82030000D03*
D20*
X174000000Y-83795000D03*
X175270000Y-83795000D03*
X176540000Y-83795000D03*
X177810000Y-83795000D03*
X179080000Y-83795000D03*
X180350000Y-83795000D03*
X181620000Y-83795000D03*
X182890000Y-83795000D03*
X184160000Y-83795000D03*
X185430000Y-83795000D03*
X186700000Y-83795000D03*
X187970000Y-83795000D03*
X189240000Y-83795000D03*
X190510000Y-83795000D03*
D22*
X183490000Y-72145000D03*
X182090000Y-72145000D03*
X184190000Y-72845000D03*
X182790000Y-72845000D03*
X181390000Y-72845000D03*
X183490000Y-73545000D03*
D23*
X182790000Y-73545000D03*
D22*
X182090000Y-73545000D03*
X184190000Y-74245000D03*
X182790000Y-74245000D03*
X181390000Y-74245000D03*
X183490000Y-74945000D03*
X182090000Y-74945000D03*
%TD*%
D15*
%TO.C,Dled1*%
X168212500Y-128475000D03*
X170087500Y-128475000D03*
%TD*%
D13*
%TO.C,R25*%
X130323620Y-85495804D03*
X132148620Y-85495804D03*
%TD*%
D14*
%TO.C,R14*%
X124512500Y-102200000D03*
X122687500Y-102200000D03*
%TD*%
D18*
%TO.C,OPTO3*%
X117390000Y-88675000D03*
X114850000Y-88675000D03*
X114850000Y-98175000D03*
X117390000Y-98175000D03*
%TD*%
D17*
%TO.C,R34*%
X189722974Y-62554764D03*
X189722974Y-60729764D03*
%TD*%
D13*
%TO.C,R28*%
X152580756Y-85499391D03*
X154405756Y-85499391D03*
%TD*%
%TO.C,R_led2*%
X174437500Y-124425000D03*
X176262500Y-124425000D03*
%TD*%
D18*
%TO.C,OPTO7*%
X147374239Y-88678680D03*
X144834239Y-88678680D03*
X144834239Y-98178680D03*
X147374239Y-98178680D03*
%TD*%
%TO.C,OPTO2*%
X109920000Y-88675000D03*
X107380000Y-88675000D03*
X107380000Y-98175000D03*
X109920000Y-98175000D03*
%TD*%
D13*
%TO.C,R35*%
X140362500Y-64100000D03*
X142187500Y-64100000D03*
%TD*%
D11*
%TO.C,Q7*%
X157350000Y-107125000D03*
X155450000Y-107125000D03*
X156400000Y-109000000D03*
%TD*%
D12*
%TO.C,S4*%
X162027660Y-108667460D03*
X168527660Y-108667460D03*
X162027660Y-113167460D03*
X168527660Y-113167460D03*
%TD*%
D13*
%TO.C,R21*%
X119925000Y-72750000D03*
X121750000Y-72750000D03*
%TD*%
D17*
%TO.C,R31*%
X180946475Y-62546460D03*
X180946475Y-60721460D03*
%TD*%
D24*
%TO.C,C3*%
X115047916Y-63296790D03*
X116947916Y-63296790D03*
%TD*%
D13*
%TO.C,R2*%
X119518263Y-119951350D03*
X121343263Y-119951350D03*
%TD*%
%TO.C,R27*%
X145175000Y-85500000D03*
X147000000Y-85500000D03*
%TD*%
D25*
%TO.C,Y1*%
X131230000Y-69995000D03*
X133770000Y-69995000D03*
%TD*%
D26*
%TO.C,J3*%
X106245845Y-72332645D03*
D27*
X106245845Y-69792645D03*
X106245845Y-67252645D03*
X106245845Y-64712645D03*
%TD*%
D10*
%TO.C,LED1*%
X116850000Y-122625000D03*
X114975000Y-122625000D03*
%TD*%
D13*
%TO.C,R70*%
X172835786Y-95741155D03*
X174660786Y-95741155D03*
%TD*%
%TO.C,R66*%
X145176622Y-82738221D03*
X147001622Y-82738221D03*
%TD*%
D10*
%TO.C,LED7*%
X147337500Y-122625000D03*
X145462500Y-122625000D03*
%TD*%
D14*
%TO.C,RT2*%
X122998648Y-63282128D03*
X121173648Y-63282128D03*
%TD*%
D18*
%TO.C,OPTO6*%
X139887860Y-88678245D03*
X137347860Y-88678245D03*
X137347860Y-98178245D03*
X139887860Y-98178245D03*
%TD*%
D15*
%TO.C,LED13*%
X147975000Y-57525000D03*
X149850000Y-57525000D03*
%TD*%
D12*
%TO.C,S3*%
X144247660Y-108667460D03*
X150747660Y-108667460D03*
X144247660Y-113167460D03*
X150747660Y-113167460D03*
%TD*%
D15*
%TO.C,LED14*%
X143062500Y-57525000D03*
X144937500Y-57525000D03*
%TD*%
D14*
%TO.C,R20*%
X169612500Y-102315000D03*
X167787500Y-102315000D03*
%TD*%
D13*
%TO.C,R8*%
X150525000Y-119875000D03*
X152350000Y-119875000D03*
%TD*%
D17*
%TO.C,R32*%
X184075000Y-62537500D03*
X184075000Y-60712500D03*
%TD*%
D13*
%TO.C,R24*%
X122719628Y-85535540D03*
X124544628Y-85535540D03*
%TD*%
D16*
%TO.C,D7*%
X98380047Y-120739206D03*
X95580047Y-120739206D03*
%TD*%
D14*
%TO.C,Ren1*%
X185760000Y-91385000D03*
X183935000Y-91385000D03*
%TD*%
D28*
%TO.C,J4*%
X158950000Y-51625000D03*
X153950000Y-51625000D03*
X148950000Y-51625000D03*
X143950000Y-51625000D03*
X138950000Y-51625000D03*
X133950000Y-51625000D03*
X128950000Y-51625000D03*
X123950000Y-51625000D03*
X118950000Y-51625000D03*
X113950000Y-51625000D03*
%TD*%
D16*
%TO.C,D9*%
X98376995Y-127243676D03*
X95576995Y-127243676D03*
%TD*%
D18*
%TO.C,OPTO11*%
X160483800Y-68725000D03*
X157943800Y-68725000D03*
X157943800Y-78225000D03*
X160483800Y-78225000D03*
%TD*%
D11*
%TO.C,Q3*%
X121850000Y-107375000D03*
X119950000Y-107375000D03*
X120900000Y-109250000D03*
%TD*%
D29*
%TO.C,C4*%
X187250000Y-54000000D03*
X185350000Y-54000000D03*
%TD*%
D13*
%TO.C,R_led1*%
X168237500Y-124425000D03*
X170062500Y-124425000D03*
%TD*%
D15*
%TO.C,Dled2*%
X174375000Y-128525000D03*
X176250000Y-128525000D03*
%TD*%
D14*
%TO.C,RL1*%
X159912500Y-61400000D03*
X158087500Y-61400000D03*
%TD*%
D30*
%TO.C,BT1*%
X187950000Y-115650000D03*
X187950000Y-100450000D03*
%TD*%
D10*
%TO.C,LED9*%
X157515160Y-122599460D03*
X155640160Y-122599460D03*
%TD*%
D31*
%TO.C,C1*%
X86450000Y-92575000D03*
D32*
X81450000Y-92575000D03*
%TD*%
D16*
%TO.C,D6*%
X98380047Y-117484736D03*
X95580047Y-117484736D03*
%TD*%
D10*
%TO.C,LED6*%
X142237500Y-122625000D03*
X140362500Y-122625000D03*
%TD*%
D11*
%TO.C,Q6*%
X139850000Y-112375000D03*
X137950000Y-112375000D03*
X138900000Y-114250000D03*
%TD*%
D14*
%TO.C,Rbo1*%
X182289710Y-53985451D03*
X180464710Y-53985451D03*
%TD*%
D24*
%TO.C,C5*%
X115019999Y-58725857D03*
X116919999Y-58725857D03*
%TD*%
%TO.C,C4*%
X115040000Y-66655000D03*
X116940000Y-66655000D03*
%TD*%
D13*
%TO.C,RF2*%
X126514014Y-59669124D03*
X128339014Y-59669124D03*
%TD*%
D11*
%TO.C,Q8*%
X157350000Y-111625000D03*
X155450000Y-111625000D03*
X156400000Y-113500000D03*
%TD*%
D14*
%TO.C,R13*%
X117104998Y-102185455D03*
X115279998Y-102185455D03*
%TD*%
D13*
%TO.C,R3*%
X124982310Y-119938398D03*
X126807310Y-119938398D03*
%TD*%
D10*
%TO.C,LED4*%
X132137500Y-122625000D03*
X130262500Y-122625000D03*
%TD*%
D29*
%TO.C,C5*%
X99900000Y-69500000D03*
X98000000Y-69500000D03*
%TD*%
D28*
%TO.C,J1*%
X116241161Y-128461497D03*
X121241161Y-128461497D03*
X126241161Y-128461497D03*
X131241161Y-128461497D03*
X136241161Y-128461497D03*
X141241161Y-128461497D03*
X146241161Y-128461497D03*
X151241161Y-128461497D03*
X156241161Y-128461497D03*
X161241161Y-128461497D03*
%TD*%
D13*
%TO.C,RL2*%
X153037500Y-61400000D03*
X154862500Y-61400000D03*
%TD*%
%TO.C,R67*%
X152569628Y-82748377D03*
X154394628Y-82748377D03*
%TD*%
D10*
%TO.C,LED10*%
X162350000Y-122625000D03*
X160475000Y-122625000D03*
%TD*%
D13*
%TO.C,R4*%
X130287347Y-119928575D03*
X132112347Y-119928575D03*
%TD*%
D14*
%TO.C,R18*%
X154542500Y-102265000D03*
X152717500Y-102265000D03*
%TD*%
D16*
%TO.C,D5*%
X98398437Y-114244530D03*
X95598437Y-114244530D03*
%TD*%
D14*
%TO.C,R16*%
X139495360Y-102199302D03*
X137670360Y-102199302D03*
%TD*%
%TO.C,R37*%
X154179217Y-64122188D03*
X152354217Y-64122188D03*
%TD*%
D18*
%TO.C,OPTO14*%
X142525000Y-68750000D03*
X139985000Y-68750000D03*
X139985000Y-78250000D03*
X142525000Y-78250000D03*
%TD*%
D12*
%TO.C,S1*%
X108687660Y-108667460D03*
X115187660Y-108667460D03*
X108687660Y-113167460D03*
X115187660Y-113167460D03*
%TD*%
D13*
%TO.C,R30*%
X167857212Y-85488523D03*
X169682212Y-85488523D03*
%TD*%
D14*
%TO.C,R38*%
X160161629Y-64122753D03*
X158336629Y-64122753D03*
%TD*%
D18*
%TO.C,OPTO4*%
X124864818Y-88672981D03*
X122324818Y-88672981D03*
X122324818Y-98172981D03*
X124864818Y-98172981D03*
%TD*%
D16*
%TO.C,D2*%
X98380829Y-104496093D03*
X95580829Y-104496093D03*
%TD*%
D15*
%TO.C,LED11*%
X158062500Y-57425000D03*
X159937500Y-57425000D03*
%TD*%
D10*
%TO.C,LED8*%
X152435160Y-122599460D03*
X150560160Y-122599460D03*
%TD*%
D13*
%TO.C,R10*%
X160525000Y-119875000D03*
X162350000Y-119875000D03*
%TD*%
%TO.C,RL4*%
X143012500Y-61425000D03*
X144837500Y-61425000D03*
%TD*%
D16*
%TO.C,D8*%
X98398451Y-123977038D03*
X95598451Y-123977038D03*
%TD*%
D18*
%TO.C,OPTO13*%
X148595000Y-68675000D03*
X146055000Y-68675000D03*
X146055000Y-78175000D03*
X148595000Y-78175000D03*
%TD*%
D14*
%TO.C,R12*%
X109399406Y-102247053D03*
X107574406Y-102247053D03*
%TD*%
%TO.C,R15*%
X132101352Y-102196284D03*
X130276352Y-102196284D03*
%TD*%
%TO.C,R19*%
X162142500Y-102295000D03*
X160317500Y-102295000D03*
%TD*%
D10*
%TO.C,LED3*%
X126837500Y-122625000D03*
X124962500Y-122625000D03*
%TD*%
D29*
%TO.C,C2*%
X107190000Y-60835000D03*
X105290000Y-60835000D03*
%TD*%
D13*
%TO.C,R63*%
X122729046Y-82774657D03*
X124554046Y-82774657D03*
%TD*%
D18*
%TO.C,OPTO12*%
X154520000Y-68750000D03*
X151980000Y-68750000D03*
X151980000Y-78250000D03*
X154520000Y-78250000D03*
%TD*%
D33*
%TO.C,U4*%
X124290000Y-75825000D03*
X125560000Y-75825000D03*
X126830000Y-75825000D03*
X128100000Y-75825000D03*
X128100000Y-70875000D03*
X126830000Y-70875000D03*
X125560000Y-70875000D03*
X124290000Y-70875000D03*
D34*
X126195000Y-73350000D03*
%TD*%
D13*
%TO.C,RL3*%
X147437500Y-61425000D03*
X149262500Y-61425000D03*
%TD*%
D14*
%TO.C,R68*%
X161155148Y-82749391D03*
X159330148Y-82749391D03*
%TD*%
D13*
%TO.C,R5*%
X135335158Y-119924963D03*
X137160158Y-119924963D03*
%TD*%
%TO.C,R65*%
X138067270Y-82726120D03*
X139892270Y-82726120D03*
%TD*%
D14*
%TO.C,R62*%
X109615915Y-82711469D03*
X107790915Y-82711469D03*
%TD*%
D29*
%TO.C,CR1*%
X182327210Y-57010451D03*
X180427210Y-57010451D03*
%TD*%
D24*
%TO.C,C2*%
X79560000Y-99655000D03*
X81460000Y-99655000D03*
%TD*%
D14*
%TO.C,R61*%
X121662500Y-77662500D03*
X119837500Y-77662500D03*
%TD*%
%TO.C,R69*%
X165827438Y-82755183D03*
X164002438Y-82755183D03*
%TD*%
D18*
%TO.C,OPTO8*%
X154868545Y-88672016D03*
X152328545Y-88672016D03*
X152328545Y-98172016D03*
X154868545Y-98172016D03*
%TD*%
D35*
%TO.C,U2*%
X83610000Y-115035000D03*
X85910000Y-115035000D03*
D36*
X85910000Y-108735000D03*
D35*
X88210000Y-115035000D03*
%TD*%
D13*
%TO.C,R22*%
X107706907Y-85513540D03*
X109531907Y-85513540D03*
%TD*%
%TO.C,R11*%
X107803305Y-79731131D03*
X109628305Y-79731131D03*
%TD*%
D14*
%TO.C,R29*%
X162191653Y-85449847D03*
X160366653Y-85449847D03*
%TD*%
D10*
%TO.C,LED2*%
X121337500Y-122625000D03*
X119462500Y-122625000D03*
%TD*%
D13*
%TO.C,RF1*%
X121145163Y-59661175D03*
X122970163Y-59661175D03*
%TD*%
D18*
%TO.C,OPTO1*%
X117370000Y-72375000D03*
X114830000Y-72375000D03*
X114830000Y-81875000D03*
X117370000Y-81875000D03*
%TD*%
D14*
%TO.C,R6*%
X142207784Y-119918499D03*
X140382784Y-119918499D03*
%TD*%
M02*
