%TF.GenerationSoftware,KiCad,Pcbnew,9.0.4*%
%TF.CreationDate,2025-10-10T10:10:13+07:00*%
%TF.ProjectId,TARA_T8X,54415241-5f54-4385-982e-6b696361645f,rev?*%
%TF.SameCoordinates,Original*%
%TF.FileFunction,Profile,NP*%
%FSLAX46Y46*%
G04 Gerber Fmt 4.6, Leading zero omitted, Abs format (unit mm)*
G04 Created by KiCad (PCBNEW 9.0.4) date 2025-10-10 10:10:13*
%MOMM*%
%LPD*%
G01*
G04 APERTURE LIST*
%TA.AperFunction,Profile*%
%ADD10C,0.100000*%
%TD*%
G04 APERTURE END LIST*
D10*
X204959664Y-133966260D02*
G75*
G02*
X201559664Y-133966260I-1700000J0D01*
G01*
X201559664Y-133966260D02*
G75*
G02*
X204959664Y-133966260I1700000J0D01*
G01*
X84560660Y-136410660D02*
X84560660Y-51560660D01*
X207060000Y-136410000D02*
X207060000Y-51570000D01*
X89948464Y-133981260D02*
G75*
G02*
X86548464Y-133981260I-1700000J0D01*
G01*
X86548464Y-133981260D02*
G75*
G02*
X89948464Y-133981260I1700000J0D01*
G01*
X204959664Y-53981660D02*
G75*
G02*
X201559664Y-53981660I-1700000J0D01*
G01*
X201559664Y-53981660D02*
G75*
G02*
X204959664Y-53981660I1700000J0D01*
G01*
X86060660Y-137910660D02*
G75*
G02*
X84560740Y-136410660I40J1499960D01*
G01*
X86060660Y-50060660D02*
X205560660Y-50060660D01*
X205560660Y-50060660D02*
G75*
G02*
X207060740Y-51560660I40J-1500040D01*
G01*
X109741060Y-95081260D02*
G75*
G02*
X107041060Y-95081260I-1350000J0D01*
G01*
X107041060Y-95081260D02*
G75*
G02*
X109741060Y-95081260I1350000J0D01*
G01*
X184741060Y-64043060D02*
G75*
G02*
X182041060Y-64043060I-1350000J0D01*
G01*
X182041060Y-64043060D02*
G75*
G02*
X184741060Y-64043060I1350000J0D01*
G01*
X109741060Y-64043060D02*
G75*
G02*
X107041060Y-64043060I-1350000J0D01*
G01*
X107041060Y-64043060D02*
G75*
G02*
X109741060Y-64043060I1350000J0D01*
G01*
X184741060Y-95081260D02*
G75*
G02*
X182041060Y-95081260I-1350000J0D01*
G01*
X182041060Y-95081260D02*
G75*
G02*
X184741060Y-95081260I1350000J0D01*
G01*
X207060660Y-136410660D02*
G75*
G02*
X205560660Y-137910660I-1499960J-40D01*
G01*
X89960660Y-53981260D02*
G75*
G02*
X86560660Y-53981260I-1700000J0D01*
G01*
X86560660Y-53981260D02*
G75*
G02*
X89960660Y-53981260I1700000J0D01*
G01*
X84560660Y-51560660D02*
G75*
G02*
X86060660Y-50060660I1500040J-40D01*
G01*
X205560660Y-137910660D02*
X86060660Y-137910660D01*
M02*
